<?xml version="1.0" encoding="UTF-8"?>
<svg xmlns="http://www.w3.org/2000/svg" xmlns:xlink="http://www.w3.org/1999/xlink" width="1024" height="1024" viewBox="0 0 1024 1024">
<path fill-rule="evenodd" fill="rgb(0%, 0%, 0%)" fill-opacity="1" d="M 85.332031 298.667969 C 85.332031 275.101562 104.4375 256 128 256 L 896 256 C 919.5625 256 938.667969 275.101562 938.667969 298.667969 C 938.667969 322.230469 919.5625 341.332031 896 341.332031 L 128 341.332031 C 104.4375 341.332031 85.332031 322.230469 85.332031 298.667969 Z M 85.332031 512 C 85.332031 488.4375 104.4375 469.332031 128 469.332031 L 640 469.332031 C 663.5625 469.332031 682.667969 488.4375 682.667969 512 C 682.667969 535.5625 663.5625 554.667969 640 554.667969 L 128 554.667969 C 104.4375 554.667969 85.332031 535.5625 85.332031 512 Z M 128 682.667969 C 104.4375 682.667969 85.332031 701.769531 85.332031 725.332031 C 85.332031 748.898438 104.4375 768 128 768 L 512 768 C 535.5625 768 554.667969 748.898438 554.667969 725.332031 C 554.667969 701.769531 535.5625 682.667969 512 682.667969 Z M 640 725.332031 C 640 701.769531 659.101562 682.667969 682.667969 682.667969 L 768 682.667969 L 768 597.332031 C 768 573.769531 787.101562 554.667969 810.667969 554.667969 C 834.230469 554.667969 853.332031 573.769531 853.332031 597.332031 L 853.332031 682.667969 L 938.667969 682.667969 C 962.230469 682.667969 981.332031 701.769531 981.332031 725.332031 C 981.332031 748.898438 962.230469 768 938.667969 768 L 853.332031 768 L 853.332031 853.332031 C 853.332031 876.898438 834.230469 896 810.667969 896 C 787.101562 896 768 876.898438 768 853.332031 L 768 768 L 682.667969 768 C 659.101562 768 640 748.898438 640 725.332031 Z M 640 725.332031 "/>
</svg>
