<?xml version="1.0" encoding="UTF-8"?>
<svg xmlns="http://www.w3.org/2000/svg" xmlns:xlink="http://www.w3.org/1999/xlink" width="1024" height="1024" viewBox="0 0 1024 1024">
<path fill-rule="evenodd" fill="rgb(0%, 0%, 0%)" fill-opacity="1" d="M 938.667969 512 C 938.667969 747.648438 747.648438 938.667969 512 938.667969 C 276.351562 938.667969 85.332031 747.648438 85.332031 512 C 85.332031 276.351562 276.351562 85.332031 512 85.332031 C 747.648438 85.332031 938.667969 276.351562 938.667969 512 Z M 853.332031 512 C 853.332031 700.523438 700.503906 853.355469 511.980469 853.355469 C 323.453125 853.355469 170.625 700.523438 170.625 512 C 170.625 323.476562 323.453125 170.644531 511.980469 170.644531 C 700.503906 170.644531 853.332031 323.476562 853.332031 512 Z M 640 512 C 640 582.691406 582.691406 640 512 640 C 441.308594 640 384 582.691406 384 512 C 384 441.308594 441.308594 384 512 384 C 582.691406 384 640 441.308594 640 512 Z M 554.667969 512 C 554.667969 535.5625 535.5625 554.667969 512 554.667969 C 488.4375 554.667969 469.332031 535.5625 469.332031 512 C 469.332031 488.4375 488.4375 469.332031 512 469.332031 C 535.5625 469.332031 554.667969 488.4375 554.667969 512 Z M 554.667969 512 "/>
</svg>
