<?xml version="1.0" encoding="UTF-8"?>
<svg xmlns="http://www.w3.org/2000/svg" xmlns:xlink="http://www.w3.org/1999/xlink" width="1024" height="1024" viewBox="0 0 1024 1024">
<path fill-rule="evenodd" fill="rgb(0%, 0%, 0%)" fill-opacity="1" d="M 512 938.667969 C 747.648438 938.667969 938.667969 747.648438 938.667969 512 C 938.667969 276.351562 747.648438 85.332031 512 85.332031 C 276.351562 85.332031 85.332031 276.351562 85.332031 512 C 85.332031 747.648438 276.351562 938.667969 512 938.667969 Z M 602.496094 602.496094 C 636.335938 570.488281 650.117188 522.625 638.480469 477.523438 C 626.839844 432.421875 591.621094 397.203125 546.519531 385.5625 C 501.417969 373.925781 453.554688 387.707031 421.546875 421.546875 C 373.039062 471.769531 373.730469 551.605469 423.105469 600.980469 C 472.480469 650.351562 552.3125 651.046875 602.539062 602.539062 Z M 549.71875 549.71875 C 528.886719 570.546875 495.113281 570.546875 474.28125 549.71875 C 453.453125 528.886719 453.453125 495.113281 474.28125 474.28125 C 495.113281 453.453125 528.886719 453.453125 549.71875 474.28125 C 570.546875 495.113281 570.546875 528.886719 549.71875 549.71875 Z M 549.71875 549.71875 "/>
</svg>
