<?xml version="1.0" encoding="UTF-8"?>
<svg xmlns="http://www.w3.org/2000/svg" xmlns:xlink="http://www.w3.org/1999/xlink" width="1024" height="1024" viewBox="0 0 1024 1024">
<path fill-rule="evenodd" fill="rgb(0%, 0%, 0%)" fill-opacity="1" d="M 512 938.667969 C 747.648438 938.667969 938.667969 747.648438 938.667969 512 C 938.667969 276.351562 747.648438 85.332031 512 85.332031 C 276.351562 85.332031 85.332031 276.351562 85.332031 512 C 85.332031 747.648438 276.351562 938.667969 512 938.667969 Z M 512 853.332031 C 700.511719 853.332031 853.332031 700.511719 853.332031 512 C 853.332031 323.488281 700.511719 170.667969 512 170.667969 C 323.488281 170.667969 170.667969 323.488281 170.667969 512 C 170.667969 700.511719 323.488281 853.332031 512 853.332031 Z M 316.628906 649.683594 C 240.511719 573.996094 425.515625 283.863281 512.085938 283.433594 C 598.484375 283.863281 783.445312 573.996094 707.371094 649.683594 C 676.734375 680.191406 595.15625 698.496094 512 698.792969 C 428.84375 698.496094 347.265625 680.191406 316.628906 649.726562 Z M 511.660156 613.460938 C 567.808594 613.246094 619.945312 602.539062 639.871094 593.621094 C 639.476562 588.441406 638.722656 583.292969 637.609375 578.21875 C 631.980469 551.550781 617.429688 516.691406 596.820312 481.109375 C 576.46875 445.996094 552.019531 413.226562 529.28125 390.398438 C 523.828125 384.875 518.058594 379.675781 512 374.828125 C 505.953125 379.675781 500.199219 384.875 494.761719 390.398438 C 472.019531 413.226562 447.488281 445.996094 427.136719 481.109375 C 406.527344 516.691406 391.980469 551.550781 386.347656 578.21875 C 385.066406 584.320312 384.339844 589.523438 384.042969 593.578125 C 403.96875 602.539062 456.019531 613.246094 511.617188 613.460938 Z M 511.660156 613.460938 "/>
</svg>
