<?xml version="1.0" encoding="UTF-8"?>
<svg xmlns="http://www.w3.org/2000/svg" xmlns:xlink="http://www.w3.org/1999/xlink" width="1024" height="1024" viewBox="0 0 1024 1024">
<path fill-rule="evenodd" fill="rgb(0%, 0%, 0%)" fill-opacity="1" d="M 466.945312 921.429688 C 491.945312 946.390625 532.222656 946.390625 557.226562 921.429688 C 634.667969 844.160156 785.621094 693.375 797.996094 681.089844 C 814.632812 664.449219 814.632812 637.140625 797.996094 620.5 C 790.023438 612.511719 779.199219 608.023438 767.914062 608.023438 C 756.628906 608.023438 745.808594 612.511719 737.835938 620.5 L 621.910156 736.382812 C 599.109375 759.179688 578.972656 784.484375 561.878906 811.820312 L 552.746094 826.410156 L 543.914062 817.535156 C 551.132812 786.191406 554.78125 754.128906 554.792969 721.960938 L 554.792969 128 C 554.792969 104.4375 535.691406 85.332031 512.128906 85.332031 C 488.5625 85.332031 469.460938 104.4375 469.460938 128 L 469.460938 722.003906 C 469.460938 754.167969 473.09375 786.230469 480.296875 817.578125 L 471.464844 826.410156 L 462.335938 811.820312 C 445.242188 784.484375 425.101562 759.179688 402.304688 736.382812 L 286.421875 620.5 C 278.449219 612.511719 267.628906 608.023438 256.339844 608.023438 C 245.054688 608.023438 234.234375 612.511719 226.261719 620.5 C 209.621094 637.140625 209.621094 664.449219 226.261719 681.089844 Z M 466.945312 921.429688 "/>
</svg>
