<?xml version="1.0" encoding="UTF-8"?>
<svg xmlns="http://www.w3.org/2000/svg" xmlns:xlink="http://www.w3.org/1999/xlink" width="1024" height="1024" viewBox="0 0 1024 1024">
<path fill-rule="evenodd" fill="rgb(0%, 0%, 0%)" fill-opacity="1" d="M 921.429688 557.140625 C 933.414062 545.175781 940.148438 528.9375 940.148438 512 C 940.148438 495.0625 933.414062 478.824219 921.429688 466.859375 C 841.324219 386.609375 761.210938 306.367188 681.089844 226.132812 C 664.449219 209.492188 637.140625 209.492188 620.5 226.132812 C 612.511719 234.105469 608.023438 244.925781 608.023438 256.214844 C 608.023438 267.5 612.511719 278.320312 620.5 286.292969 L 736.382812 402.21875 C 759.179688 425 784.488281 445.125 811.820312 462.207031 L 826.410156 471.339844 L 817.535156 480.171875 C 786.1875 472.96875 754.128906 469.332031 721.960938 469.332031 L 128 469.332031 C 104.4375 469.332031 85.332031 488.4375 85.332031 512 C 85.332031 535.5625 104.4375 554.667969 128 554.667969 L 722.003906 554.667969 C 754.167969 554.667969 786.230469 551.03125 817.578125 543.828125 L 826.410156 552.660156 L 811.820312 561.792969 C 784.46875 578.859375 759.210938 598.996094 736.382812 621.78125 L 620.5 737.707031 C 612.511719 745.679688 608.023438 756.5 608.023438 767.785156 C 608.023438 779.074219 612.511719 789.894531 620.5 797.867188 C 637.140625 814.507812 664.449219 814.507812 681.089844 797.867188 Z M 921.429688 557.140625 "/>
</svg>
