<?xml version="1.0" encoding="UTF-8"?>
<svg xmlns="http://www.w3.org/2000/svg" xmlns:xlink="http://www.w3.org/1999/xlink" width="1024" height="1024" viewBox="0 0 1024 1024">
<path fill-rule="evenodd" fill="rgb(0%, 0%, 0%)" fill-opacity="1" d="M 557.226562 102.699219 C 532.3125 77.765625 491.902344 77.765625 466.988281 102.699219 C 389.546875 179.96875 238.507812 330.667969 226.261719 343.039062 C 209.621094 359.679688 209.621094 386.988281 226.261719 403.625 C 242.902344 420.265625 269.78125 420.265625 286.421875 403.625 L 402.304688 287.742188 C 425.101562 264.949219 445.242188 239.644531 462.335938 212.308594 L 471.464844 197.675781 L 480.296875 206.59375 C 473.085938 237.925781 469.433594 269.972656 469.417969 302.121094 L 469.417969 896.128906 C 469.417969 919.691406 488.519531 938.792969 512.085938 938.792969 C 535.648438 938.792969 554.753906 919.691406 554.753906 896.128906 L 554.753906 302.078125 C 554.753906 269.914062 551.117188 237.855469 543.914062 206.507812 L 552.746094 197.632812 L 561.878906 212.265625 C 578.988281 239.574219 599.082031 264.875 621.910156 287.703125 L 737.792969 403.585938 C 754.433594 420.222656 781.3125 420.222656 797.953125 403.585938 C 814.59375 386.945312 814.59375 359.636719 797.953125 342.996094 C 785.664062 330.667969 634.667969 179.925781 557.226562 102.65625 Z M 557.226562 102.699219 "/>
</svg>
