<?xml version="1.0" encoding="UTF-8"?>
<svg xmlns="http://www.w3.org/2000/svg" xmlns:xlink="http://www.w3.org/1999/xlink" width="1024" height="1024" viewBox="0 0 1024 1024">
<path fill-rule="evenodd" fill="rgb(0%, 0%, 0%)" fill-opacity="1" d="M 102.699219 557.140625 C 90.714844 545.175781 83.980469 528.9375 83.980469 512 C 83.980469 495.0625 90.714844 478.824219 102.699219 466.859375 L 343.039062 226.132812 C 359.679688 209.492188 386.988281 209.492188 403.625 226.132812 C 420.265625 242.773438 420.265625 269.652344 403.625 286.292969 L 287.742188 402.21875 C 264.949219 425.003906 239.640625 445.128906 212.308594 462.207031 L 197.71875 471.339844 L 206.59375 480.171875 C 237.9375 472.96875 270 469.332031 302.164062 469.332031 L 896.085938 469.332031 C 919.648438 469.332031 938.753906 488.4375 938.753906 512 C 938.753906 535.5625 919.648438 554.667969 896.085938 554.667969 L 302.207031 554.667969 C 270.042969 554.667969 237.980469 551.03125 206.632812 543.828125 L 197.761719 552.660156 L 212.351562 561.792969 C 239.703125 578.859375 264.960938 598.996094 287.785156 621.78125 L 403.625 737.707031 C 420.265625 754.347656 420.265625 781.226562 403.625 797.867188 C 386.988281 814.507812 359.679688 814.507812 343.039062 797.867188 Z M 102.699219 557.140625 "/>
</svg>
