<?xml version="1.0" encoding="UTF-8"?>
<svg xmlns="http://www.w3.org/2000/svg" xmlns:xlink="http://www.w3.org/1999/xlink" width="1024" height="1024" viewBox="0 0 1024 1024">
<path fill-rule="evenodd" fill="rgb(0%, 0%, 0%)" fill-opacity="1" d="M 640 230.398438 L 640 192 C 640 180.21875 630.449219 170.667969 618.667969 170.667969 L 469.332031 170.667969 C 293.886719 170.667969 170.667969 258.6875 170.667969 426.667969 C 170.667969 540.671875 235.988281 675.542969 313.171875 745.214844 L 327.253906 757.929688 C 336.214844 766.015625 341.328125 777.519531 341.332031 789.589844 L 341.332031 853.332031 L 640 853.332031 L 640 799.105469 C 640.007812 782.742188 649.371094 767.820312 664.105469 760.703125 L 688.171875 749.054688 C 707.96875 739.457031 730.835938 730.199219 756.222656 721.152344 L 774.1875 714.964844 C 784.871094 711.417969 791.039062 700.257812 788.351562 689.324219 L 766.71875 602.710938 C 764.25 592.824219 765.402344 582.378906 769.960938 573.269531 L 818.175781 476.84375 C 823.152344 466.875 819.621094 454.757812 810.070312 449.023438 L 724.90625 397.910156 C 720.585938 395.320312 717.320312 391.285156 715.691406 386.515625 L 708.097656 364.375 C 700.441406 341.933594 690.265625 320.433594 677.761719 300.289062 L 554.667969 341.332031 L 554.667969 426.667969 C 554.667969 450.230469 535.5625 469.332031 512 469.332031 C 488.4375 469.332031 469.332031 488.4375 469.332031 512 C 469.332031 535.5625 488.4375 554.667969 512 554.667969 C 535.5625 554.667969 554.667969 573.769531 554.667969 597.332031 C 554.667969 620.898438 535.5625 640 512 640 C 449.585938 640.09375 396.203125 595.15625 385.652344 533.640625 C 375.101562 472.121094 410.457031 411.964844 469.332031 391.253906 L 469.332031 327.59375 C 469.34375 310.152344 479.972656 294.472656 496.171875 288 Z M 298.667969 938.667969 C 275.101562 938.667969 256 919.5625 256 896 L 256 808.535156 C 174.378906 734.933594 85.332031 580.820312 85.332031 426.667969 C 85.332031 170.667969 298.667969 85.332031 469.332031 85.332031 L 640 85.332031 C 687.128906 85.332031 725.332031 123.539062 725.332031 170.667969 L 725.332031 219.734375 C 752.953125 254.886719 774.433594 294.453125 788.863281 336.769531 L 904.789062 406.316406 C 923.914062 417.785156 930.980469 442.050781 921.003906 461.996094 L 856.875 590.292969 C 854.605469 594.835938 854.03125 600.042969 855.253906 604.96875 L 885.632812 726.570312 C 891.125 749.550781 877.519531 772.777344 854.785156 779.222656 C 821.929688 788.734375 775.210938 803.5 737.449219 820.222656 C 729.996094 823.605469 725.246094 831.070312 725.332031 839.253906 L 725.332031 896 C 725.332031 919.5625 706.230469 938.667969 682.667969 938.667969 Z M 298.667969 938.667969 "/>
</svg>
