<?xml version="1.0" encoding="UTF-8"?>
<svg xmlns="http://www.w3.org/2000/svg" xmlns:xlink="http://www.w3.org/1999/xlink" width="1024" height="1024" viewBox="0 0 1024 1024">
<path fill-rule="nonzero" fill="rgb(0%, 0%, 0%)" fill-opacity="1" d="M 708.992188 618.496094 C 725.734375 602.328125 752.34375 602.558594 768.804688 619.015625 C 785.261719 635.472656 785.492188 662.085938 769.324219 678.828125 L 633.558594 814.59375 C 516.914062 931.234375 327.800781 931.234375 211.15625 814.59375 C 94.515625 697.949219 94.515625 508.835938 211.15625 392.191406 L 452.566406 150.871094 C 506.128906 95.410156 585.445312 73.171875 660.035156 92.695312 C 734.621094 112.21875 792.871094 170.46875 812.394531 245.054688 C 831.917969 319.640625 809.675781 398.960938 754.21875 452.523438 L 512.894531 693.929688 C 462.90625 743.921875 381.851562 743.921875 331.863281 693.929688 C 281.871094 643.9375 281.871094 562.886719 331.863281 512.894531 L 527.957031 316.800781 C 544.617188 300.128906 571.636719 300.117188 588.308594 316.777344 C 604.980469 333.4375 604.992188 360.460938 588.332031 377.128906 L 392.191406 573.226562 C 375.53125 589.898438 375.542969 616.917969 392.214844 633.578125 C 408.886719 650.238281 435.90625 650.230469 452.566406 633.558594 L 693.886719 392.191406 C 727.164062 360.054688 740.507812 312.464844 728.792969 267.710938 C 717.078125 222.957031 682.128906 188.007812 637.375 176.292969 C 592.625 164.582031 545.035156 177.925781 512.894531 211.199219 L 271.53125 452.566406 C 216.5 506.226562 194.589844 585.339844 214.175781 659.664062 C 233.761719 733.984375 291.8125 792.027344 366.136719 811.601562 C 440.464844 831.175781 519.574219 809.253906 573.226562 754.21875 Z M 708.992188 618.496094 "/>
</svg>
