<?xml version="1.0" encoding="UTF-8"?>
<svg xmlns="http://www.w3.org/2000/svg" xmlns:xlink="http://www.w3.org/1999/xlink" width="1024" height="1024" viewBox="0 0 1024 1024">
<path fill-rule="evenodd" fill="rgb(0%, 0%, 0%)" fill-opacity="1" d="M 512 938.667969 C 747.648438 938.667969 938.667969 747.648438 938.667969 512 C 938.667969 276.351562 747.648438 85.332031 512 85.332031 C 276.351562 85.332031 85.332031 276.351562 85.332031 512 C 85.332031 747.648438 276.351562 938.667969 512 938.667969 Z M 781.652344 721.324219 C 887.285156 585.441406 875.230469 392.171875 753.527344 270.472656 C 631.828125 148.769531 438.558594 136.714844 302.675781 242.347656 L 781.652344 721.28125 Z M 721.324219 781.652344 L 242.347656 302.675781 C 136.714844 438.558594 148.769531 631.828125 270.472656 753.527344 C 392.171875 875.230469 585.441406 887.285156 721.324219 781.652344 Z M 721.324219 781.652344 "/>
</svg>
