<?xml version="1.0" encoding="UTF-8"?>
<svg xmlns="http://www.w3.org/2000/svg" xmlns:xlink="http://www.w3.org/1999/xlink" width="1024" height="1024" viewBox="0 0 1024 1024">
<path fill-rule="nonzero" fill="rgb(0%, 0%, 0%)" fill-opacity="1" d="M 213.332031 256 C 213.332031 196.265625 213.332031 166.398438 224.9375 143.574219 C 235.167969 123.492188 251.492188 107.167969 271.574219 96.9375 C 294.398438 85.332031 324.265625 85.332031 384 85.332031 L 640 85.332031 C 699.734375 85.332031 729.601562 85.332031 752.425781 96.9375 C 772.492188 107.175781 788.800781 123.5 799.019531 143.574219 C 810.667969 166.398438 810.667969 196.265625 810.667969 256 L 810.667969 819.542969 C 810.667969 864.597656 810.667969 887.082031 801.40625 898.730469 C 793.359375 908.863281 781.152344 914.792969 768.214844 914.859375 C 753.324219 914.945312 735.617188 901.035156 700.246094 873.214844 L 512 725.332031 L 323.796875 873.214844 C 288.382812 901.035156 270.675781 914.945312 255.785156 914.859375 C 242.847656 914.792969 230.640625 908.863281 222.59375 898.730469 C 213.332031 887.082031 213.332031 864.597656 213.332031 819.542969 Z M 213.332031 256 "/>
</svg>
