<?xml version="1.0" encoding="UTF-8"?>
<svg xmlns="http://www.w3.org/2000/svg" xmlns:xlink="http://www.w3.org/1999/xlink" width="1024" height="1024" viewBox="0 0 1024 1024">
<path fill-rule="evenodd" fill="rgb(0%, 0%, 0%)" fill-opacity="1" d="M 673.921875 85.332031 L 350.078125 85.332031 C 302.507812 85.332031 285.269531 90.28125 267.902344 99.585938 C 250.726562 108.679688 236.679688 122.726562 227.585938 139.902344 C 218.28125 157.269531 213.332031 174.507812 213.332031 222.078125 L 213.332031 872.191406 C 213.320312 888.535156 222.640625 903.449219 237.335938 910.597656 C 252.03125 917.742188 269.519531 915.871094 282.367188 905.769531 L 512 725.332031 L 741.632812 905.769531 C 754.480469 915.871094 771.96875 917.742188 786.664062 910.597656 C 801.359375 903.449219 810.679688 888.535156 810.667969 872.191406 L 810.667969 222.078125 C 810.667969 174.507812 805.71875 157.269531 796.414062 139.902344 C 787.320312 122.726562 773.273438 108.679688 756.097656 99.585938 C 738.730469 90.28125 721.492188 85.332031 673.921875 85.332031 Z M 459.308594 658.21875 L 298.667969 784.425781 L 298.667969 222.078125 C 298.667969 203.863281 299.476562 192.46875 300.757812 185.855469 C 301.058594 183.828125 301.769531 181.882812 302.847656 180.136719 C 303.988281 177.84375 305.84375 175.988281 308.136719 174.847656 C 309.882812 173.769531 311.828125 173.058594 313.855469 172.757812 C 320.46875 171.476562 331.863281 170.667969 350.078125 170.667969 L 673.921875 170.667969 C 692.136719 170.667969 703.53125 171.476562 710.144531 172.757812 C 712.703125 173.269531 713.300781 173.484375 715.863281 174.847656 C 718.171875 175.980469 720.042969 177.839844 721.195312 180.136719 C 722.515625 182.699219 722.730469 183.253906 723.242188 185.855469 C 724.523438 192.46875 725.332031 203.863281 725.332031 222.078125 L 725.332031 784.425781 L 564.734375 658.21875 C 533.789062 633.890625 490.210938 633.890625 459.265625 658.21875 Z M 459.308594 658.21875 "/>
</svg>
