<?xml version="1.0" encoding="UTF-8"?>
<svg xmlns="http://www.w3.org/2000/svg" xmlns:xlink="http://www.w3.org/1999/xlink" width="1024" height="1024" viewBox="0 0 1024 1024">
<path fill-rule="nonzero" fill="rgb(0%, 0%, 0%)" fill-opacity="1" d="M 768 725.332031 C 768 701.769531 787.101562 682.667969 810.667969 682.667969 C 834.230469 682.667969 853.332031 701.769531 853.332031 725.332031 L 853.332031 771.285156 C 853.332031 803.710938 849.835938 821.84375 839.722656 840.703125 C 830.289062 858.441406 815.773438 872.957031 798.039062 882.390625 C 779.179688 892.5 761.046875 896 728.617188 896 L 252.714844 896 C 220.289062 896 202.15625 892.5 183.296875 882.390625 C 165.542969 872.964844 151.011719 858.449219 141.566406 840.703125 C 131.5 821.84375 128 803.753906 128 771.285156 L 127.957031 277.332031 C 127.957031 249.019531 139.214844 221.871094 159.246094 201.863281 C 179.277344 181.855469 206.441406 170.632812 234.753906 170.667969 L 298.753906 170.878906 C 322.316406 170.9375 341.371094 190.089844 341.3125 213.652344 C 341.253906 237.21875 322.101562 256.273438 298.539062 256.214844 L 234.625 256 C 222.84375 256 213.289062 265.550781 213.289062 277.332031 L 213.289062 771.285156 C 213.289062 790.871094 214.273438 795.605469 216.832031 800.46875 C 218.453125 803.457031 220.542969 805.589844 223.53125 807.167969 C 228.351562 809.726562 233.128906 810.667969 252.714844 810.667969 L 728.617188 810.667969 C 748.203125 810.667969 752.9375 809.726562 757.800781 807.167969 C 760.679688 805.691406 763.023438 803.347656 764.5 800.46875 C 767.0625 795.648438 768 790.871094 768 771.285156 Z M 938.667969 554.667969 C 938.667969 578.230469 919.5625 597.332031 896 597.332031 C 872.4375 597.332031 853.332031 578.230469 853.332031 554.667969 C 853.332031 342.589844 681.410156 170.667969 469.332031 170.667969 C 445.769531 170.667969 426.667969 151.5625 426.667969 128 C 426.667969 104.4375 445.769531 85.332031 469.332031 85.332031 C 728.535156 85.332031 938.667969 295.464844 938.667969 554.667969 Z M 768 554.667969 C 768 578.230469 748.898438 597.332031 725.332031 597.332031 C 701.769531 597.332031 682.667969 578.230469 682.667969 554.667969 C 682.667969 436.847656 587.152344 341.332031 469.332031 341.332031 C 445.769531 341.332031 426.667969 322.230469 426.667969 298.667969 C 426.667969 275.101562 445.769531 256 469.332031 256 C 634.28125 256 768 389.71875 768 554.667969 Z M 597.332031 554.667969 C 597.332031 578.230469 578.230469 597.332031 554.667969 597.332031 C 531.101562 597.332031 512 578.230469 512 554.667969 C 512 531.101562 492.898438 512 469.332031 512 C 445.769531 512 426.667969 492.898438 426.667969 469.332031 C 426.667969 445.769531 445.769531 426.667969 469.332031 426.667969 C 540.027344 426.667969 597.332031 483.972656 597.332031 554.667969 Z M 597.332031 554.667969 "/>
</svg>
