<?xml version="1.0" encoding="UTF-8"?>
<svg xmlns="http://www.w3.org/2000/svg" xmlns:xlink="http://www.w3.org/1999/xlink" width="1024" height="1024" viewBox="0 0 1024 1024">
<path fill-rule="evenodd" fill="rgb(0%, 0%, 0%)" fill-opacity="1" d="M 128 906.667969 C 128 924.332031 142.335938 938.667969 160 938.667969 L 228.90625 938.667969 C 244.558594 938.667969 257.914062 927.351562 260.480469 911.914062 L 277.332031 810.667969 L 746.667969 810.667969 L 763.519531 911.914062 C 766.085938 927.351562 779.441406 938.667969 795.09375 938.667969 L 864 938.667969 C 881.671875 938.667969 896 924.339844 896 906.667969 L 896 426.667969 L 929.28125 393.386719 C 935.28125 387.390625 938.660156 379.257812 938.667969 370.773438 L 938.667969 288 C 938.667969 270.328125 924.339844 256 906.667969 256 L 896 256 L 896 213.546875 C 896 163.585938 861.269531 120.40625 811.945312 112.296875 C 738.089844 100.136719 625.066406 85.332031 512 85.332031 C 398.933594 85.332031 285.910156 100.136719 212.054688 112.296875 C 162.730469 120.40625 128 163.585938 128 213.546875 L 128 256 L 117.332031 256 C 99.660156 256 85.332031 270.328125 85.332031 288 L 85.332031 370.773438 C 85.332031 379.222656 88.703125 387.371094 94.71875 393.386719 L 128 426.667969 Z M 341.332031 618.667969 C 341.332031 654.011719 312.679688 682.667969 277.332031 682.667969 C 241.988281 682.667969 213.332031 654.011719 213.332031 618.667969 C 213.332031 583.320312 241.988281 554.667969 277.332031 554.667969 C 312.679688 554.667969 341.332031 583.320312 341.332031 618.667969 Z M 746.667969 682.667969 C 782.011719 682.667969 810.667969 654.011719 810.667969 618.667969 C 810.667969 583.320312 782.011719 554.667969 746.667969 554.667969 C 711.320312 554.667969 682.667969 583.320312 682.667969 618.667969 C 682.667969 654.011719 711.320312 682.667969 746.667969 682.667969 Z M 213.332031 219.519531 L 213.332031 469.332031 L 810.667969 469.332031 L 810.667969 219.519531 C 810.667969 203.734375 799.148438 190.292969 783.445312 188.289062 C 733.695312 181.886719 622.847656 169.429688 512 169.429688 C 401.152344 169.429688 290.304688 181.84375 240.554688 188.289062 C 224.90625 190.351562 213.242188 203.738281 213.332031 219.519531 Z M 213.332031 219.519531 "/>
</svg>
