<?xml version="1.0" encoding="UTF-8"?>
<svg xmlns="http://www.w3.org/2000/svg" xmlns:xlink="http://www.w3.org/1999/xlink" width="1024" height="1024" viewBox="0 0 1024 1024">
<path fill-rule="evenodd" fill="rgb(0%, 0%, 0%)" fill-opacity="1" d="M 554.667969 853.332031 L 554.667969 682.667969 L 725.375 682.667969 L 725.375 853.332031 Z M 298.667969 853.332031 L 298.667969 682.667969 L 469.332031 682.667969 L 469.332031 853.332031 Z M 42.667969 853.332031 L 42.667969 682.667969 L 213.332031 682.667969 L 213.332031 853.332031 Z M 554.667969 597.332031 L 554.667969 426.667969 L 725.332031 426.667969 L 725.332031 597.332031 Z M 298.667969 597.332031 L 298.667969 426.667969 L 469.332031 426.667969 L 469.332031 597.332031 Z M 42.667969 597.332031 L 42.667969 426.667969 L 213.332031 426.667969 L 213.332031 597.332031 Z M 810.667969 341.332031 L 810.667969 170.625 L 981.332031 170.625 L 981.332031 341.332031 Z M 810.667969 597.332031 L 810.667969 426.667969 L 981.332031 426.667969 L 981.332031 597.332031 Z M 554.667969 341.332031 L 554.667969 170.625 L 725.375 170.625 L 725.375 341.332031 Z M 298.667969 341.332031 L 298.667969 170.625 L 469.332031 170.625 L 469.332031 341.332031 Z M 298.667969 341.332031 "/>
</svg>
