<?xml version="1.0" encoding="UTF-8"?>
<svg xmlns="http://www.w3.org/2000/svg" xmlns:xlink="http://www.w3.org/1999/xlink" width="1024" height="1024" viewBox="0 0 1024 1024">
<path fill-rule="evenodd" fill="rgb(0%, 0%, 0%)" fill-opacity="1" d="M 601.003906 609.578125 C 574.550781 594.902344 544.769531 571.390625 512.214844 538.835938 C 479.660156 506.28125 456.191406 476.542969 441.515625 450.132812 L 481.40625 415.617188 C 526.496094 376.605469 535.160156 309.980469 501.546875 260.734375 L 433.792969 161.449219 C 433.410156 160.90625 433.027344 160.367188 432.640625 159.828125 C 414.472656 134.152344 386.757812 116.847656 355.710938 111.792969 C 324.667969 106.738281 292.894531 114.363281 267.519531 132.949219 C 255.617188 141.695312 243.414062 150.742188 230.953125 160.128906 C 70.570312 280.363281 110.761719 497.707031 332.03125 719.019531 C 553.34375 940.289062 770.730469 980.566406 891.007812 820.179688 C 900.394531 807.636719 909.484375 795.390625 918.230469 783.402344 L 919.339844 781.910156 L 920.40625 780.332031 C 956.917969 726.8125 943.148438 653.832031 889.644531 617.300781 L 790.355469 549.546875 C 741.113281 515.933594 674.488281 524.597656 635.476562 569.683594 Z M 822.742188 768.980469 C 751.316406 864.257812 600.746094 867.070312 392.363281 658.6875 C 183.980469 450.304688 186.878906 299.863281 282.15625 228.394531 C 294.398438 219.179688 306.304688 210.347656 317.996094 201.8125 C 324.988281 196.695312 333.753906 194.636719 342.296875 196.097656 C 350.835938 197.5625 358.417969 202.425781 363.308594 209.578125 L 431.0625 308.863281 C 440.234375 322.285156 437.886719 340.457031 425.601562 351.105469 L 373.121094 396.5 C 351.582031 415.09375 344.90625 445.675781 356.734375 471.550781 C 374.996094 511.488281 406.742188 554.027344 451.882812 599.125 C 497.066406 644.351562 539.605469 676.054688 579.585938 694.355469 C 605.441406 706.175781 635.992188 699.519531 654.59375 678.015625 L 700.03125 625.535156 C 710.667969 613.234375 728.839844 610.867188 742.273438 620.03125 L 841.515625 687.785156 C 848.675781 692.671875 853.546875 700.25 855.019531 708.789062 C 856.488281 717.328125 854.433594 726.101562 849.324219 733.097656 C 840.539062 745.117188 831.675781 757.078125 822.742188 768.980469 Z M 822.742188 768.980469 "/>
</svg>
