<?xml version="1.0" encoding="UTF-8"?>
<svg xmlns="http://www.w3.org/2000/svg" xmlns:xlink="http://www.w3.org/1999/xlink" width="1024" height="1024" viewBox="0 0 1024 1024">
<path fill-rule="nonzero" fill="rgb(0%, 0%, 0%)" fill-opacity="1" d="M 384 682.667969 C 120.0625 418.6875 132.691406 219.050781 253.441406 128.511719 L 280.191406 108.585938 C 293.980469 98.441406 311.296875 94.316406 328.179688 97.152344 C 345.0625 99.992188 360.078125 109.550781 369.792969 123.648438 L 437.164062 220.585938 C 455.832031 247.453125 451.230469 284.078125 426.496094 305.492188 L 361.644531 361.558594 C 345.429688 375.59375 337.492188 396.886719 344.789062 417.066406 C 358.273438 454.613281 390.996094 520.875 468.394531 598.230469 C 545.792969 675.625 612.011719 708.351562 649.558594 721.878906 C 669.78125 729.128906 691.070312 721.238281 705.109375 704.980469 L 761.171875 640.214844 C 782.589844 615.476562 819.210938 610.875 846.078125 629.546875 L 943.1875 696.960938 C 957.273438 706.644531 966.828125 721.625 969.675781 738.476562 C 972.523438 755.328125 968.414062 772.617188 958.292969 786.390625 L 938.238281 813.398438 C 847.742188 934.058594 648.019531 946.644531 384 682.667969 Z M 384 682.667969 "/>
</svg>
