<?xml version="1.0" encoding="UTF-8"?>
<svg xmlns="http://www.w3.org/2000/svg" xmlns:xlink="http://www.w3.org/1999/xlink" width="1024" height="1024" viewBox="0 0 1024 1024">
<path fill-rule="evenodd" fill="rgb(0%, 0%, 0%)" fill-opacity="1" d="M 588.585938 213.332031 L 222.078125 213.332031 C 174.507812 213.332031 157.269531 218.28125 139.902344 227.585938 C 122.726562 236.679688 108.679688 250.726562 99.585938 267.902344 C 90.28125 285.269531 85.332031 302.507812 85.332031 350.078125 L 85.332031 673.921875 C 85.332031 721.492188 90.28125 738.730469 99.585938 756.097656 C 108.886719 773.460938 122.539062 787.113281 139.902344 796.414062 C 157.269531 805.71875 174.507812 810.667969 222.078125 810.667969 L 588.585938 810.667969 C 636.117188 810.667969 653.398438 805.71875 670.761719 796.414062 C 688.128906 787.113281 701.78125 773.460938 711.082031 756.097656 C 718.976562 741.332031 723.753906 726.65625 724.992188 693.460938 L 857.601562 774.144531 C 874.066406 784.167969 894.660156 784.527344 911.464844 775.082031 C 928.273438 765.632812 938.671875 747.855469 938.667969 728.574219 L 938.667969 295.425781 C 938.671875 276.144531 928.273438 258.367188 911.464844 248.917969 C 894.660156 239.472656 874.066406 239.832031 857.601562 249.855469 L 724.992188 330.496094 C 723.710938 297.300781 719.019531 282.667969 711.082031 267.902344 C 701.988281 250.726562 687.941406 236.679688 670.761719 227.585938 C 653.398438 218.28125 636.160156 213.332031 588.585938 213.332031 Z M 639.914062 682.667969 C 639.703125 695.894531 638.976562 704.640625 637.910156 710.144531 C 637.609375 712.171875 636.898438 714.117188 635.820312 715.863281 C 634.6875 718.171875 632.828125 720.042969 630.527344 721.195312 C 628.78125 722.257812 626.835938 722.957031 624.8125 723.242188 C 618.199219 724.523438 606.804688 725.332031 588.585938 725.332031 L 222.078125 725.332031 C 203.863281 725.332031 192.46875 724.523438 185.855469 723.242188 C 183.828125 722.941406 181.882812 722.230469 180.136719 721.152344 C 177.84375 720.011719 175.988281 718.15625 174.847656 715.863281 C 173.769531 714.117188 173.058594 712.171875 172.757812 710.144531 C 171.476562 703.53125 170.667969 692.136719 170.667969 673.921875 L 170.667969 350.078125 C 170.667969 331.863281 171.476562 320.46875 172.757812 313.855469 C 173.058594 311.828125 173.769531 309.882812 174.847656 308.136719 C 175.988281 305.84375 177.84375 303.988281 180.136719 302.847656 C 181.882812 301.769531 183.828125 301.058594 185.855469 300.757812 C 192.46875 299.476562 203.863281 298.667969 222.078125 298.667969 L 588.585938 298.667969 C 606.804688 298.667969 618.199219 299.476562 624.8125 300.757812 C 627.371094 301.269531 627.96875 301.484375 630.527344 302.847656 C 632.820312 303.988281 634.679688 305.84375 635.820312 308.136719 C 637.183594 310.699219 637.398438 311.253906 637.910156 313.855469 C 638.976562 319.359375 639.703125 328.105469 639.914062 341.332031 L 640 341.332031 L 640 405.332031 C 640.003906 420.707031 648.277344 434.890625 661.660156 442.460938 C 675.042969 450.03125 691.460938 449.816406 704.640625 441.898438 L 853.332031 352.769531 L 853.332031 671.359375 L 704.640625 582.144531 C 691.46875 574.230469 675.058594 574.011719 661.679688 581.570312 C 648.296875 589.128906 640.019531 603.300781 640 618.667969 L 640 682.667969 Z M 639.914062 682.667969 "/>
</svg>
