<?xml version="1.0" encoding="UTF-8"?>
<svg xmlns="http://www.w3.org/2000/svg" xmlns:xlink="http://www.w3.org/1999/xlink" width="1024" height="1024" viewBox="0 0 1024 1024">
<path fill-rule="evenodd" fill="rgb(0%, 0%, 0%)" fill-opacity="1" d="M 96.9375 271.574219 C 85.332031 294.398438 85.332031 324.265625 85.332031 384 L 85.332031 640 C 85.332031 699.734375 85.332031 729.601562 96.9375 752.425781 C 107.175781 772.492188 123.5 788.800781 143.574219 799.019531 C 166.398438 810.667969 196.265625 810.667969 256 810.667969 L 512 810.667969 C 571.734375 810.667969 601.601562 810.667969 624.425781 799.019531 C 644.484375 788.792969 660.792969 772.484375 671.019531 752.425781 C 682.667969 729.601562 682.667969 699.734375 682.667969 640 L 682.667969 622.078125 L 870.699219 760.746094 C 883.65625 770.289062 900.878906 771.730469 915.242188 764.472656 C 929.605469 757.214844 938.664062 742.492188 938.667969 726.398438 L 938.667969 297.8125 C 938.664062 281.722656 929.605469 267 915.242188 259.742188 C 900.878906 252.484375 883.65625 253.925781 870.699219 263.464844 L 682.667969 401.921875 L 682.667969 384 C 682.667969 324.265625 682.667969 294.398438 671.019531 271.574219 C 660.800781 251.5 644.492188 235.175781 624.425781 224.9375 C 601.601562 213.332031 571.734375 213.332031 512 213.332031 L 256 213.332031 C 196.265625 213.332031 166.398438 213.332031 143.574219 224.9375 C 123.492188 235.167969 107.167969 251.492188 96.9375 271.574219 Z M 96.9375 271.574219 "/>
</svg>
