<?xml version="1.0" encoding="UTF-8"?>
<svg xmlns="http://www.w3.org/2000/svg" xmlns:xlink="http://www.w3.org/1999/xlink" width="1024" height="1024" viewBox="0 0 1024 1024">
<path fill-rule="evenodd" fill="rgb(0%, 0%, 0%)" fill-opacity="1" d="M 313.257812 212.691406 C 331.265625 181.800781 340.265625 166.398438 352.8125 155.179688 C 363.90625 145.246094 376.957031 137.746094 391.125 133.164062 C 407.125 128 424.960938 128 460.671875 128 L 563.285156 128 C 599.039062 128 616.875 128 632.875 133.164062 C 647.042969 137.746094 660.09375 145.246094 671.1875 155.179688 C 683.734375 166.398438 692.734375 181.800781 710.742188 212.691406 L 736 256 L 768 256 C 827.734375 256 857.601562 256 880.425781 267.605469 C 900.492188 277.839844 916.800781 294.164062 927.019531 314.238281 C 938.667969 337.066406 938.667969 366.933594 938.667969 426.667969 L 938.667969 682.667969 C 938.667969 742.398438 938.667969 772.265625 927.019531 795.09375 C 916.792969 815.152344 900.484375 831.460938 880.425781 841.683594 C 857.601562 853.332031 827.734375 853.332031 768 853.332031 L 256 853.332031 C 196.265625 853.332031 166.398438 853.332031 143.574219 841.683594 C 123.5 831.46875 107.175781 815.160156 96.9375 795.09375 C 85.332031 772.265625 85.332031 742.398438 85.332031 682.667969 L 85.332031 426.667969 C 85.332031 366.933594 85.332031 337.066406 96.9375 314.238281 C 107.167969 294.160156 123.492188 277.832031 143.574219 267.605469 C 166.398438 256 196.265625 256 256 256 L 288 256 Z M 512 727.464844 C 623.929688 727.464844 714.667969 636.730469 714.667969 524.800781 C 714.667969 412.871094 623.929688 322.132812 512 322.132812 C 400.070312 322.132812 309.332031 412.871094 309.332031 524.800781 C 309.332031 636.730469 400.070312 727.464844 512 727.464844 Z M 627.199219 524.800781 C 627.199219 588.421875 575.625 640 512 640 C 448.375 640 396.800781 588.421875 396.800781 524.800781 C 396.800781 461.175781 448.375 409.601562 512 409.601562 C 575.625 409.601562 627.199219 461.175781 627.199219 524.800781 Z M 627.199219 524.800781 "/>
</svg>
