<?xml version="1.0" encoding="UTF-8"?>
<svg xmlns="http://www.w3.org/2000/svg" xmlns:xlink="http://www.w3.org/1999/xlink" width="1024" height="1024" viewBox="0 0 1024 1024">
<path fill-rule="evenodd" fill="rgb(0%, 0%, 0%)" fill-opacity="1" d="M 85.332031 631.59375 L 85.332031 906.667969 C 85.332031 924.332031 99.667969 938.667969 117.332031 938.667969 L 186.199219 938.667969 C 201.847656 938.667969 215.203125 927.351562 217.769531 911.914062 L 234.667969 810.667969 L 789.332031 810.667969 L 806.1875 911.914062 C 808.753906 927.351562 822.109375 938.667969 837.761719 938.667969 L 906.667969 938.667969 C 924.339844 938.667969 938.667969 924.339844 938.667969 906.667969 L 938.667969 631.59375 C 938.667969 581.4375 923.824219 532.402344 896 490.667969 L 862.71875 440.746094 C 859.75 436.300781 857.210938 431.589844 855.125 426.667969 L 897.535156 426.667969 C 909.664062 426.667969 920.75 419.808594 926.164062 408.960938 L 936.832031 387.625 C 941.78125 377.714844 941.25 365.945312 935.429688 356.519531 C 929.609375 347.09375 919.324219 341.347656 908.246094 341.332031 L 836.265625 341.332031 L 823.039062 275.371094 C 814.820312 234.339844 783.371094 201.90625 742.613281 192.425781 C 680.234375 177.921875 603.347656 170.667969 512 170.667969 C 420.609375 170.667969 343.765625 177.921875 281.386719 192.425781 C 240.613281 201.890625 209.144531 234.328125 200.917969 275.371094 L 187.691406 341.332031 L 115.796875 341.332031 C 104.71875 341.347656 94.433594 347.09375 88.613281 356.519531 C 82.792969 365.945312 82.261719 377.714844 87.210938 387.625 L 97.878906 408.960938 C 103.289062 419.796875 114.351562 426.648438 126.464844 426.667969 L 168.917969 426.667969 C 166.832031 431.585938 164.289062 436.300781 161.324219 440.746094 L 128 490.667969 C 100.179688 532.394531 85.332031 581.417969 85.332031 631.59375 Z M 766.335938 426.835938 C 769.273438 441.59375 774.152344 455.898438 780.84375 469.375 L 243.15625 469.375 C 249.855469 455.9375 254.71875 441.644531 257.664062 426.835938 L 284.628906 292.136719 C 286.253906 283.914062 292.546875 277.402344 300.714844 275.5 C 356.097656 262.699219 426.667969 256 512 256 C 597.332031 256 667.902344 262.65625 723.285156 275.542969 C 731.457031 277.421875 737.765625 283.917969 739.414062 292.136719 Z M 234.667969 682.667969 C 270.011719 682.667969 298.667969 654.011719 298.667969 618.667969 C 298.667969 583.320312 270.011719 554.667969 234.667969 554.667969 C 199.320312 554.667969 170.667969 583.320312 170.667969 618.667969 C 170.667969 654.011719 199.320312 682.667969 234.667969 682.667969 Z M 853.332031 618.667969 C 853.332031 654.011719 824.679688 682.667969 789.332031 682.667969 C 753.988281 682.667969 725.332031 654.011719 725.332031 618.667969 C 725.332031 583.320312 753.988281 554.667969 789.332031 554.667969 C 824.679688 554.667969 853.332031 583.320312 853.332031 618.667969 Z M 853.332031 618.667969 "/>
</svg>
