<?xml version="1.0" encoding="UTF-8"?>
<svg xmlns="http://www.w3.org/2000/svg" xmlns:xlink="http://www.w3.org/1999/xlink" width="1024" height="1024" viewBox="0 0 1024 1024">
<path fill-rule="evenodd" fill="rgb(0%, 0%, 0%)" fill-opacity="1" d="M 176.46875 892.375 C 179.796875 894.675781 183.722656 895.957031 187.820312 896 C 304.042969 897.28125 389.246094 874.835938 443.179688 825.898438 C 472.191406 832 502.355469 835.199219 533.332031 835.199219 C 757.207031 835.199219 938.667969 667.347656 938.667969 460.289062 C 938.667969 253.140625 757.207031 85.332031 533.332031 85.332031 C 309.460938 85.332031 128 253.183594 128 460.246094 C 128 556.246094 166.996094 643.839844 231.167969 710.1875 C 225.707031 764.375 205.867188 816.128906 171.519531 865.492188 C 165.121094 874.710938 167.253906 885.972656 176.46875 892.375 Z M 460.800781 743.253906 C 435.691406 737.96875 409.574219 745.042969 390.570312 762.28125 C 369.109375 781.78125 323.753906 808.703125 281.214844 816.894531 C 301.183594 787.925781 311.679688 745.683594 314.753906 715.347656 C 317.105469 691.925781 309.019531 668.652344 292.652344 651.734375 C 241.621094 598.953125 213.332031 531.753906 213.332031 460.671875 C 213.332031 301.953125 355.285156 170.667969 533.332031 170.667969 C 711.382812 170.667969 853.332031 301.953125 853.332031 460.671875 C 853.332031 619.390625 711.382812 750.675781 533.332031 750.675781 C 508.628906 750.675781 484.351562 748.117188 460.800781 743.210938 Z M 460.800781 743.253906 "/>
</svg>
