<?xml version="1.0" encoding="UTF-8"?>
<svg xmlns="http://www.w3.org/2000/svg" xmlns:xlink="http://www.w3.org/1999/xlink" width="1024" height="1024" viewBox="0 0 1024 1024">
<path fill-rule="evenodd" fill="rgb(0%, 0%, 0%)" fill-opacity="1" d="M 106.667969 512 C 106.667969 288.140625 288.140625 106.667969 512 106.667969 C 735.859375 106.667969 917.332031 288.140625 917.332031 512 C 917.332031 735.859375 735.859375 917.332031 512 917.332031 C 288.140625 917.332031 106.667969 735.859375 106.667969 512 Z M 512 21.332031 C 241.023438 21.332031 21.332031 241.023438 21.332031 512 C 21.332031 782.976562 241.023438 1002.667969 512 1002.667969 C 782.976562 1002.667969 1002.667969 782.976562 1002.667969 512 C 1002.667969 241.023438 782.976562 21.332031 512 21.332031 Z M 469.332031 298.667969 C 469.332031 275.101562 488.4375 256 512 256 C 535.5625 256 554.667969 275.101562 554.667969 298.667969 L 554.667969 512 L 725.332031 512 C 748.898438 512 768 531.101562 768 554.667969 C 768 578.230469 748.898438 597.332031 725.332031 597.332031 L 512 597.332031 C 488.4375 597.332031 469.332031 578.230469 469.332031 554.667969 Z M 469.332031 298.667969 "/>
</svg>
