<?xml version="1.0" encoding="UTF-8"?>
<svg xmlns="http://www.w3.org/2000/svg" xmlns:xlink="http://www.w3.org/1999/xlink" width="1024" height="1024" viewBox="0 0 1024 1024">
<path fill-rule="evenodd" fill="rgb(0%, 0%, 0%)" fill-opacity="1" d="M 512 938.667969 C 747.648438 938.667969 938.667969 747.648438 938.667969 512 C 938.667969 276.351562 747.648438 85.332031 512 85.332031 C 276.351562 85.332031 85.332031 276.351562 85.332031 512 C 85.332031 747.648438 276.351562 938.667969 512 938.667969 Z M 315.863281 315.863281 C 332.523438 299.203125 359.53125 299.203125 376.191406 315.863281 L 512 451.667969 L 647.808594 315.863281 C 658.519531 304.769531 674.382812 300.320312 689.300781 304.226562 C 704.21875 308.132812 715.867188 319.78125 719.773438 334.699219 C 723.679688 349.617188 719.230469 365.480469 708.136719 376.191406 L 572.332031 512 L 708.136719 647.808594 C 724.308594 664.550781 724.078125 691.160156 707.617188 707.617188 C 691.160156 724.078125 664.550781 724.308594 647.808594 708.136719 L 512 572.332031 L 376.191406 708.136719 C 359.449219 724.308594 332.839844 724.078125 316.382812 707.617188 C 299.921875 691.160156 299.691406 664.550781 315.863281 647.808594 L 451.667969 512 L 315.863281 376.191406 C 299.203125 359.53125 299.203125 332.523438 315.863281 315.863281 Z M 315.863281 315.863281 "/>
</svg>
