<?xml version="1.0" encoding="UTF-8"?>
<svg xmlns="http://www.w3.org/2000/svg" xmlns:xlink="http://www.w3.org/1999/xlink" width="1024" height="1024" viewBox="0 0 1024 1024">
<path fill-rule="evenodd" fill="rgb(0%, 0%, 0%)" fill-opacity="1" d="M 938.667969 512 C 938.667969 747.648438 747.648438 938.667969 512 938.667969 C 276.351562 938.667969 85.332031 747.648438 85.332031 512 C 85.332031 276.351562 276.351562 85.332031 512 85.332031 C 747.648438 85.332031 938.667969 276.351562 938.667969 512 Z M 853.332031 512 C 853.332031 700.511719 700.511719 853.332031 512 853.332031 C 323.488281 853.332031 170.667969 700.511719 170.667969 512 C 170.667969 323.488281 323.488281 170.667969 512 170.667969 C 700.511719 170.667969 853.332031 323.488281 853.332031 512 Z M 330.921875 391.125 C 314.261719 374.453125 314.273438 347.433594 330.945312 330.773438 C 347.617188 314.113281 374.636719 314.121094 391.296875 330.792969 L 512 451.625 L 632.660156 330.964844 C 643.375 319.875 659.238281 315.425781 674.15625 319.332031 C 689.074219 323.234375 700.722656 334.886719 704.628906 349.800781 C 708.53125 364.71875 704.082031 380.582031 692.992188 391.296875 L 572.375 512 L 693.035156 632.746094 C 709.695312 649.417969 709.683594 676.4375 693.011719 693.097656 C 676.339844 709.757812 649.320312 709.75 632.660156 693.078125 L 512 572.332031 L 391.253906 693.078125 C 374.511719 709.246094 347.898438 709.015625 331.441406 692.558594 C 314.984375 676.101562 314.753906 649.488281 330.921875 632.746094 L 451.667969 512 Z M 330.921875 391.125 "/>
</svg>
