<?xml version="1.0" encoding="UTF-8"?>
<svg xmlns="http://www.w3.org/2000/svg" xmlns:xlink="http://www.w3.org/1999/xlink" width="1024" height="1024" viewBox="0 0 1024 1024">
<path fill-rule="evenodd" fill="rgb(0%, 0%, 0%)" fill-opacity="1" d="M 819.5 264.832031 C 835.667969 248.089844 835.4375 221.480469 818.980469 205.019531 C 802.519531 188.5625 775.910156 188.332031 759.167969 204.5 L 512 451.667969 L 264.832031 204.5 C 248.089844 188.332031 221.480469 188.5625 205.019531 205.019531 C 188.5625 221.480469 188.332031 248.089844 204.5 264.832031 L 451.667969 512 L 204.5 759.167969 C 193.410156 769.878906 188.960938 785.742188 192.867188 800.660156 C 196.769531 815.578125 208.421875 827.230469 223.339844 831.132812 C 238.257812 835.039062 254.121094 830.589844 264.832031 819.5 L 512 572.332031 L 759.167969 819.5 C 775.910156 835.667969 802.519531 835.4375 818.980469 818.980469 C 835.4375 802.519531 835.667969 775.910156 819.5 759.167969 L 572.332031 512 Z M 819.5 264.832031 "/>
</svg>
