<?xml version="1.0" encoding="UTF-8"?>
<svg xmlns="http://www.w3.org/2000/svg" xmlns:xlink="http://www.w3.org/1999/xlink" width="1024" height="1024" viewBox="0 0 1024 1024">
<path fill-rule="evenodd" fill="rgb(0%, 0%, 0%)" fill-opacity="1" d="M 341.332031 128 C 341.332031 151.5625 360.4375 170.667969 384 170.667969 L 631.253906 170.667969 C 678.785156 170.667969 696.0625 175.617188 713.429688 184.917969 C 730.792969 194.21875 744.449219 207.871094 753.75 225.238281 C 763.050781 242.601562 768 259.839844 768 307.414062 L 768 725.332031 C 768 748.898438 787.101562 768 810.667969 768 C 834.230469 768 853.332031 748.898438 853.332031 725.332031 L 853.332031 304.128906 C 853.332031 228.054688 845.398438 200.449219 830.550781 172.628906 C 816 145.144531 793.523438 122.667969 766.039062 108.117188 C 738.21875 93.269531 710.613281 85.332031 634.539062 85.332031 L 384 85.332031 C 360.4375 85.332031 341.332031 104.4375 341.332031 128 Z M 545.921875 256 L 307.414062 256 C 259.839844 256 242.601562 260.949219 225.238281 270.25 C 208.058594 279.34375 194.011719 293.390625 184.917969 310.570312 C 175.617188 327.9375 170.667969 345.171875 170.667969 392.746094 L 170.667969 892.585938 C 170.671875 908.976562 180.070312 923.914062 194.839844 931.019531 C 209.613281 938.125 227.148438 936.136719 239.957031 925.910156 L 426.667969 776.703125 L 613.375 925.910156 C 626.179688 936.132812 643.703125 938.121094 658.472656 931.027344 C 673.242188 923.9375 682.644531 909.011719 682.667969 892.628906 L 682.667969 392.703125 C 682.667969 345.128906 677.71875 327.894531 668.414062 310.527344 C 659.320312 293.351562 645.273438 279.300781 628.097656 270.207031 C 610.730469 260.949219 593.492188 256 545.921875 256 Z M 545.921875 256 "/>
</svg>
