<?xml version="1.0" encoding="UTF-8"?>
<svg xmlns="http://www.w3.org/2000/svg" xmlns:xlink="http://www.w3.org/1999/xlink" width="1024" height="1024" viewBox="0 0 1024 1024">
<path fill-rule="evenodd" fill="rgb(0%, 0%, 0%)" fill-opacity="1" d="M 341.332031 128 C 341.332031 151.5625 360.4375 170.667969 384 170.667969 L 631.253906 170.667969 C 678.785156 170.667969 696.0625 175.617188 713.429688 184.917969 C 730.792969 194.21875 744.449219 207.871094 753.75 225.238281 C 763.050781 242.601562 768 259.839844 768 307.414062 L 768 725.332031 C 768 748.898438 787.101562 768 810.667969 768 C 834.230469 768 853.332031 748.898438 853.332031 725.332031 L 853.332031 304.128906 C 853.332031 228.054688 845.398438 200.449219 830.550781 172.628906 C 816 145.144531 793.523438 122.667969 766.039062 108.117188 C 738.21875 93.269531 710.613281 85.332031 634.539062 85.332031 L 384 85.332031 C 360.4375 85.332031 341.332031 104.4375 341.332031 128 Z M 545.921875 256 L 307.414062 256 C 259.839844 256 242.601562 260.949219 225.238281 270.25 C 208.058594 279.34375 194.011719 293.390625 184.917969 310.570312 C 175.617188 327.9375 170.667969 345.171875 170.667969 392.746094 L 170.667969 893.140625 C 170.675781 909.492188 180.03125 924.398438 194.746094 931.519531 C 209.464844 938.644531 226.957031 936.730469 239.785156 926.59375 L 426.667969 778.667969 L 613.546875 926.59375 C 626.382812 936.695312 643.859375 938.585938 658.5625 931.472656 C 673.265625 924.355469 682.625 909.476562 682.667969 893.140625 L 682.667969 392.746094 C 682.667969 345.171875 677.71875 327.9375 668.414062 310.570312 C 659.320312 293.390625 645.273438 279.34375 628.097656 270.25 C 610.730469 260.949219 593.492188 256 545.921875 256 Z M 595.242188 356.523438 C 596.523438 363.136719 597.332031 374.527344 597.332031 392.746094 L 597.332031 804.90625 L 479.617188 711.765625 C 448.585938 687.210938 404.746094 687.210938 373.71875 711.765625 L 256 804.949219 L 256 392.746094 C 256 374.527344 256.8125 363.136719 258.089844 356.523438 C 258.390625 354.496094 259.101562 352.550781 260.179688 350.804688 C 261.320312 348.511719 263.179688 346.652344 265.472656 345.515625 C 267.214844 344.4375 269.160156 343.722656 271.1875 343.425781 C 277.800781 342.144531 289.195312 341.332031 307.414062 341.332031 L 545.921875 341.332031 C 564.136719 341.332031 575.53125 342.144531 582.144531 343.425781 C 584.703125 343.9375 585.300781 344.148438 587.863281 345.515625 C 590.164062 346.667969 592 348.5 593.152344 350.804688 C 594.515625 353.367188 594.730469 353.921875 595.242188 356.523438 Z M 595.242188 356.523438 "/>
</svg>
