<?xml version="1.0" encoding="UTF-8"?>
<svg xmlns="http://www.w3.org/2000/svg" xmlns:xlink="http://www.w3.org/1999/xlink" width="1024" height="1024" viewBox="0 0 1024 1024">
<path fill-rule="evenodd" fill="rgb(0%, 0%, 0%)" fill-opacity="1" d="M 359.125 674.816406 L 358.441406 674.6875 C 340.109375 671.148438 321.140625 675.792969 306.515625 687.402344 C 283.476562 705.75 263.59375 718.976562 246.910156 727.253906 C 253.992188 710.25 258.796875 692.390625 261.207031 674.132812 C 263.90625 652.234375 256.496094 630.300781 241.066406 614.527344 L 234.28125 607.660156 C 188.074219 563.414062 162.132812 505.34375 162.132812 443.734375 C 162.132812 313.171875 279.296875 204.800781 426.667969 204.800781 C 574.039062 204.800781 691.199219 313.171875 691.199219 443.734375 C 691.199219 574.292969 574.039062 682.667969 426.667969 682.667969 C 403.921875 682.695312 381.253906 680.058594 359.125 674.816406 Z M 158.292969 808.492188 C 235.691406 802.261719 296.703125 782.59375 341.332031 749.523438 C 368.640625 756.011719 397.226562 759.464844 426.667969 759.464844 C 615.167969 759.464844 768 618.113281 768 443.734375 C 768 269.355469 615.167969 128 426.667969 128 C 238.164062 128 85.332031 269.355469 85.332031 443.734375 C 85.332031 532.308594 124.757812 612.351562 188.289062 669.695312 C 182.914062 708.34375 166.378906 744.582031 140.714844 773.972656 C 135.144531 780.402344 134.027344 789.566406 137.890625 797.148438 C 141.75 804.726562 149.816406 809.210938 158.292969 808.492188 Z M 720.042969 757.207031 C 666.15625 785.960938 590.761719 806.441406 483.15625 810.113281 C 530.964844 837.242188 585.03125 851.40625 640 851.199219 C 686.945312 851.320312 733.328125 841.015625 775.808594 821.035156 C 812.886719 843.222656 860.542969 856.617188 918.910156 861.3125 C 926.320312 861.898438 933.355469 857.957031 936.71875 851.328125 C 940.085938 844.699219 939.117188 836.699219 934.273438 831.0625 C 908.417969 801.351562 893.25 763.851562 891.179688 724.523438 C 922.023438 680.734375 938.605469 628.496094 938.667969 574.933594 C 938.667969 483.625 890.753906 402.644531 816.980469 352.382812 C 836.777344 392.234375 849.921875 437.246094 855.210938 487.082031 C 860.714844 538.582031 859.265625 577.367188 851.328125 608.980469 C 846.335938 630.398438 837.589844 651.222656 825.300781 670.761719 L 824.148438 672.683594 C 812.101562 693.226562 810.90625 718.375 820.949219 739.96875 C 825.769531 750.25 831.871094 760.492188 839.296875 770.6875 C 825.8125 767.703125 809.855469 761.386719 791.59375 751.617188 C 773.15625 741.789062 751.078125 741.582031 732.457031 751.0625 L 728.492188 753.066406 C 725.691406 754.480469 722.875 755.859375 720.042969 757.207031 Z M 720.042969 757.207031 "/>
</svg>
