<?xml version="1.0" encoding="UTF-8"?>
<svg xmlns="http://www.w3.org/2000/svg" xmlns:xlink="http://www.w3.org/1999/xlink" width="1024" height="1024" viewBox="0 0 1024 1024">
<path fill-rule="nonzero" fill="rgb(0%, 0%, 0%)" fill-opacity="1" d="M 467.96875 800.8125 C 661.121094 772.566406 810.667969 615.851562 810.667969 424.019531 C 810.695312 396.566406 807.605469 369.199219 801.449219 342.441406 C 883.96875 391.59375 938.667969 477.355469 938.667969 574.933594 C 938.605469 628.496094 922.023438 680.734375 891.179688 724.523438 C 893.738281 765.011719 908.074219 800.511719 934.273438 831.0625 C 939.148438 836.695312 940.132812 844.71875 936.761719 851.367188 C 933.394531 858.011719 926.339844 861.960938 918.910156 861.355469 C 860.585938 856.617188 812.886719 843.179688 775.808594 821.035156 C 733.328125 841.015625 686.945312 851.320312 640 851.199219 C 578.976562 851.476562 519.199219 833.964844 467.96875 800.8125 Z M 467.96875 800.8125 "/>
<path fill-rule="nonzero" fill="rgb(0%, 0%, 0%)" fill-opacity="1" d="M 325.332031 710.699219 C 350.933594 716.757812 377.726562 720 405.332031 720 C 582.058594 720 725.332031 587.476562 725.332031 423.980469 C 725.332031 260.566406 582.058594 128 405.332031 128 C 228.609375 128 85.332031 260.523438 85.332031 424.019531 C 85.332031 507.050781 122.28125 582.101562 181.84375 635.863281 C 176.800781 672.074219 161.304688 706.027344 137.257812 733.566406 C 132.019531 739.597656 130.960938 748.203125 134.578125 755.324219 C 138.195312 762.449219 145.769531 766.667969 153.726562 765.996094 C 226.261719 760.105469 283.476562 741.675781 325.332031 710.699219 Z M 325.332031 710.699219 "/>
</svg>
