<?xml version="1.0" encoding="UTF-8"?>
<svg xmlns="http://www.w3.org/2000/svg" xmlns:xlink="http://www.w3.org/1999/xlink" width="1024" height="1024" viewBox="0 0 1024 1024">
<path fill-rule="evenodd" fill="rgb(0%, 0%, 0%)" fill-opacity="1" d="M 341.332031 213.332031 L 673.921875 213.332031 C 721.492188 213.332031 738.730469 218.28125 756.097656 227.585938 C 773.460938 236.886719 787.113281 250.539062 796.414062 267.902344 C 805.71875 285.269531 810.667969 302.507812 810.667969 350.078125 L 810.667969 682.667969 C 810.667969 706.230469 829.769531 725.332031 853.332031 725.332031 C 876.898438 725.332031 896 706.230469 896 682.667969 L 896 346.792969 C 896 270.71875 888.0625 243.113281 873.214844 215.296875 C 858.667969 187.808594 836.191406 165.332031 808.703125 150.785156 C 780.886719 135.9375 753.28125 128 677.207031 128 L 341.332031 128 C 317.769531 128 298.667969 147.101562 298.667969 170.667969 C 298.667969 194.230469 317.769531 213.332031 341.332031 213.332031 Z M 264.746094 298.667969 C 227.113281 298.667969 205.3125 300.757812 182.570312 312.917969 C 165.390625 322.011719 151.34375 336.058594 142.25 353.238281 C 130.089844 375.980469 128 397.78125 128 435.414062 L 128 759.253906 C 128 796.886719 130.089844 818.644531 142.25 841.429688 C 151.550781 858.792969 165.207031 872.449219 182.570312 881.75 C 205.3125 893.910156 227.113281 896 264.746094 896 L 588.585938 896 C 626.21875 896 648.019531 893.910156 670.761719 881.75 C 688.128906 872.449219 701.78125 858.792969 711.082031 841.429688 C 723.242188 818.644531 725.332031 796.886719 725.332031 759.253906 L 725.332031 435.414062 C 725.332031 397.78125 723.242188 375.980469 711.082031 353.238281 C 701.988281 336.058594 687.941406 322.011719 670.761719 312.917969 C 647.980469 300.757812 626.21875 298.667969 588.585938 298.667969 Z M 222.804688 388.179688 C 225.402344 386.746094 228.261719 385.847656 231.210938 385.535156 C 237.097656 384.640625 246.699219 384 264.746094 384 L 588.585938 384 C 606.632812 384 616.234375 384.640625 622.121094 385.535156 C 625.074219 385.847656 627.929688 386.746094 630.527344 388.179688 C 632.820312 389.320312 634.679688 391.179688 635.820312 393.472656 C 637.253906 396.070312 638.152344 398.925781 638.464844 401.878906 C 639.359375 407.765625 640 417.367188 640 435.414062 L 640 759.253906 C 640 777.300781 639.359375 786.902344 638.464844 792.789062 C 638.152344 795.738281 637.253906 798.597656 635.820312 801.195312 C 634.6875 803.503906 632.828125 805.378906 630.527344 806.527344 C 627.925781 807.933594 625.066406 808.804688 622.121094 809.089844 C 616.234375 810.027344 606.632812 810.667969 588.585938 810.667969 L 264.746094 810.667969 C 246.699219 810.667969 237.097656 810.027344 231.210938 809.128906 C 228.261719 808.832031 225.40625 807.949219 222.804688 806.527344 C 220.503906 805.378906 218.644531 803.503906 217.515625 801.195312 C 216.078125 798.597656 215.179688 795.738281 214.871094 792.789062 C 213.972656 786.902344 213.332031 777.300781 213.332031 759.253906 L 213.332031 435.414062 C 213.332031 417.367188 213.972656 407.765625 214.871094 401.878906 C 215.179688 398.925781 216.078125 396.070312 217.515625 393.472656 C 218.652344 391.179688 220.511719 389.320312 222.804688 388.179688 Z M 222.804688 388.179688 "/>
</svg>
