<?xml version="1.0" encoding="UTF-8"?>
<svg xmlns="http://www.w3.org/2000/svg" xmlns:xlink="http://www.w3.org/1999/xlink" width="1024" height="1024" viewBox="0 0 1024 1024">
<path fill-rule="evenodd" fill="rgb(0%, 0%, 0%)" fill-opacity="1" d="M 341.332031 213.332031 L 673.921875 213.332031 C 721.492188 213.332031 738.730469 218.28125 756.097656 227.585938 C 773.460938 236.886719 787.113281 250.539062 796.414062 267.902344 C 805.71875 285.269531 810.667969 302.507812 810.667969 350.078125 L 810.667969 682.667969 C 810.667969 706.230469 829.769531 725.332031 853.332031 725.332031 C 876.898438 725.332031 896 706.230469 896 682.667969 L 896 346.792969 C 896 270.71875 888.0625 243.113281 873.214844 215.296875 C 858.667969 187.808594 836.191406 165.332031 808.703125 150.785156 C 780.886719 135.9375 753.28125 128 677.207031 128 L 341.332031 128 C 317.769531 128 298.667969 147.101562 298.667969 170.667969 C 298.667969 194.230469 317.769531 213.332031 341.332031 213.332031 Z M 670.761719 312.917969 C 653.398438 303.617188 636.160156 298.667969 588.585938 298.667969 L 264.746094 298.667969 C 217.171875 298.667969 199.9375 303.617188 182.570312 312.917969 C 165.390625 322.011719 151.34375 336.058594 142.25 353.238281 C 132.949219 370.601562 128 387.839844 128 435.414062 L 128 759.253906 C 128 806.785156 132.949219 824.0625 142.25 841.429688 C 151.550781 858.792969 165.207031 872.449219 182.570312 881.75 C 199.9375 891.050781 217.171875 896 264.746094 896 L 588.585938 896 C 636.117188 896 653.398438 891.050781 670.761719 881.75 C 688.128906 872.449219 701.78125 858.792969 711.082031 841.429688 C 720.382812 824.0625 725.332031 806.828125 725.332031 759.253906 L 725.332031 435.414062 C 725.332031 387.839844 720.382812 370.601562 711.082031 353.238281 C 701.988281 336.058594 687.941406 322.011719 670.761719 312.917969 Z M 670.761719 312.917969 "/>
</svg>
