<?xml version="1.0" encoding="UTF-8"?>
<svg xmlns="http://www.w3.org/2000/svg" xmlns:xlink="http://www.w3.org/1999/xlink" width="1024" height="1024" viewBox="0 0 1024 1024">
<path fill-rule="evenodd" fill="rgb(0%, 0%, 0%)" fill-opacity="1" d="M 801.921875 213.332031 L 222.078125 213.332031 C 174.507812 213.332031 157.269531 218.28125 139.902344 227.585938 C 122.726562 236.679688 108.679688 250.726562 99.585938 267.902344 C 90.28125 285.269531 85.332031 302.507812 85.332031 350.078125 L 85.332031 673.921875 C 85.332031 721.492188 90.28125 738.730469 99.585938 756.097656 C 108.886719 773.460938 122.539062 787.113281 139.902344 796.414062 C 157.269531 805.71875 174.507812 810.667969 222.078125 810.667969 L 801.921875 810.667969 C 849.449219 810.667969 866.730469 805.71875 884.097656 796.414062 C 901.460938 787.113281 915.113281 773.460938 924.414062 756.097656 C 933.71875 738.730469 938.667969 721.492188 938.667969 673.921875 L 938.667969 350.078125 C 938.667969 302.507812 933.71875 285.269531 924.414062 267.902344 C 915.320312 250.726562 901.273438 236.679688 884.097656 227.585938 C 866.730469 218.28125 849.492188 213.332031 801.921875 213.332031 Z M 185.855469 300.757812 C 192.46875 299.476562 203.863281 298.667969 222.078125 298.667969 L 801.921875 298.667969 C 820.136719 298.667969 831.53125 299.476562 838.144531 300.757812 C 840.703125 301.269531 841.300781 301.484375 843.863281 302.847656 C 846.164062 304 848.042969 305.835938 849.195312 308.136719 C 850.515625 310.699219 850.730469 311.253906 851.242188 313.855469 C 852.523438 320.46875 853.332031 331.863281 853.332031 350.078125 L 853.332031 384 L 170.667969 384 L 170.667969 350.078125 C 170.667969 331.863281 171.476562 320.46875 172.757812 313.855469 C 173.058594 311.828125 173.769531 309.882812 174.847656 308.136719 C 175.988281 305.84375 177.84375 303.988281 180.136719 302.847656 C 181.882812 301.769531 183.828125 301.058594 185.855469 300.757812 Z M 170.667969 469.332031 L 170.667969 673.921875 C 170.667969 692.136719 171.476562 703.53125 172.757812 710.144531 C 173.269531 712.703125 173.484375 713.300781 174.847656 715.863281 C 176 718.164062 177.835938 720.042969 180.136719 721.195312 C 182.699219 722.515625 183.253906 722.730469 185.855469 723.242188 C 192.46875 724.523438 203.863281 725.332031 222.078125 725.332031 L 801.921875 725.332031 C 820.136719 725.332031 831.53125 724.523438 838.144531 723.242188 C 840.171875 722.945312 842.117188 722.230469 843.863281 721.152344 C 846.171875 720.019531 848.042969 718.160156 849.195312 715.863281 C 850.257812 714.113281 850.957031 712.167969 851.242188 710.144531 C 852.523438 703.53125 853.332031 692.136719 853.332031 673.921875 L 853.332031 469.332031 Z M 298.667969 640 C 275.101562 640 256 620.898438 256 597.332031 C 256 573.769531 275.101562 554.667969 298.667969 554.667969 L 426.667969 554.667969 C 450.230469 554.667969 469.332031 573.769531 469.332031 597.332031 C 469.332031 620.898438 450.230469 640 426.667969 640 Z M 298.667969 640 "/>
</svg>
