<?xml version="1.0" encoding="UTF-8"?>
<svg xmlns="http://www.w3.org/2000/svg" xmlns:xlink="http://www.w3.org/1999/xlink" width="1024" height="1024" viewBox="0 0 1024 1024">
<path fill-rule="evenodd" fill="rgb(0%, 0%, 0%)" fill-opacity="1" d="M 85.332031 384 C 85.332031 324.265625 85.332031 294.398438 96.9375 271.574219 C 107.167969 251.492188 123.492188 235.167969 143.574219 224.9375 C 166.398438 213.332031 196.265625 213.332031 256 213.332031 L 768 213.332031 C 827.734375 213.332031 857.601562 213.332031 880.425781 224.9375 C 900.492188 235.175781 916.800781 251.5 927.019531 271.574219 C 938.667969 294.398438 938.667969 324.265625 938.667969 384 Z M 85.332031 469.332031 L 938.667969 469.332031 L 938.667969 640 C 938.667969 699.734375 938.667969 729.601562 927.019531 752.425781 C 916.792969 772.484375 900.484375 788.792969 880.425781 799.019531 C 857.601562 810.667969 827.734375 810.667969 768 810.667969 L 256 810.667969 C 196.265625 810.667969 166.398438 810.667969 143.574219 799.019531 C 123.5 788.800781 107.175781 772.492188 96.9375 752.425781 C 85.332031 729.601562 85.332031 699.734375 85.332031 640 Z M 213.332031 640 C 213.332031 663.5625 232.4375 682.667969 256 682.667969 L 384 682.667969 C 407.5625 682.667969 426.667969 663.5625 426.667969 640 C 426.667969 616.4375 407.5625 597.332031 384 597.332031 L 256 597.332031 C 232.4375 597.332031 213.332031 616.4375 213.332031 640 Z M 213.332031 640 "/>
</svg>
