<?xml version="1.0" encoding="UTF-8"?>
<svg xmlns="http://www.w3.org/2000/svg" xmlns:xlink="http://www.w3.org/1999/xlink" width="1024" height="1024" viewBox="0 0 1024 1024">
<path fill-rule="evenodd" fill="rgb(0%, 0%, 0%)" fill-opacity="1" d="M 682.453125 302.847656 C 612.820312 308.265625 537.046875 321.535156 459.605469 342.101562 C 382.804688 362.453125 312.191406 388.097656 250.792969 417.066406 C 251.433594 415.230469 252.203125 413.609375 252.800781 411.734375 C 283.945312 313.089844 335.871094 246.871094 429.140625 221.867188 C 522.410156 196.863281 600.535156 228.222656 676.820312 298.113281 C 678.699219 299.820312 680.574219 301.226562 682.453125 302.847656 Z M 966.785156 440.746094 C 983.550781 502.910156 925.996094 590.632812 797.824219 654.292969 C 798.195312 647.863281 797.648438 641.414062 796.203125 635.136719 C 788.523438 606.378906 760.703125 572.117188 672.296875 572.117188 C 631.125 572.117188 580.863281 579.796875 527.019531 594.175781 C 462.378906 611.5 408.535156 634.027344 371.285156 659.285156 C 311.851562 699.734375 307.5 738.6875 314.367188 764.246094 C 315.902344 769.921875 318.507812 775.808594 321.878906 781.609375 C 310.785156 782.292969 299.347656 783.445312 288.894531 783.445312 C 165.289062 783.445312 84.734375 738.261719 69.460938 681.171875 C 43.945312 586.027344 222.507812 462.378906 473.8125 395.734375 C 575.316406 368.769531 671.105469 355.5 750.933594 355.5 C 868.609375 355.5 951.550781 384.339844 966.785156 440.746094 Z M 740.652344 660.90625 C 737.09375 667.613281 732.453125 673.683594 726.910156 678.871094 L 726.910156 678.953125 C 703.359375 701.441406 653.011719 729.257812 569.214844 751.703125 C 498.644531 770.644531 433.960938 774.699219 397.78125 767.148438 C 392.171875 766.050781 386.703125 764.316406 381.484375 761.984375 C 379.777344 761.257812 378.15625 760.574219 376.789062 759.765625 C 375.550781 758.984375 374.378906 758.101562 373.289062 757.121094 C 370.808594 755.308594 368.945312 752.777344 367.957031 749.867188 C 364.96875 738.730469 377.855469 722.003906 402.515625 705.238281 C 434.175781 683.734375 483.5 663.296875 541.3125 647.808594 C 590.632812 634.582031 635.863281 627.625 672.296875 627.625 C 711.464844 627.625 739.03125 636.246094 742.613281 649.558594 C 743.109375 652.074219 742.933594 654.679688 742.101562 657.109375 C 741.800781 658.347656 741.246094 659.585938 740.691406 660.90625 Z M 740.652344 660.90625 "/>
</svg>
