<?xml version="1.0" encoding="UTF-8"?>
<svg xmlns="http://www.w3.org/2000/svg" xmlns:xlink="http://www.w3.org/1999/xlink" width="1024" height="1024" viewBox="0 0 1024 1024">
<path fill-rule="evenodd" fill="rgb(0%, 0%, 0%)" fill-opacity="1" d="M 345.601562 874.667969 C 345.601562 938.667969 408.832031 981.332031 458.238281 981.332031 C 492.628906 981.332031 495.316406 955.179688 500.609375 903.679688 C 502.953125 881.066406 505.769531 853.589844 512 821.332031 C 528.46875 735.914062 585.386719 626.773438 639.828125 594.132812 L 639.828125 341.332031 C 640 245.332031 608 213.332031 469.332031 213.332031 L 308.351562 213.332031 C 215.507812 213.332031 193.023438 274.433594 184.660156 297.128906 C 184.476562 297.644531 184.292969 298.15625 184.105469 298.667969 C 179.242188 311.722656 168.832031 321.960938 156.886719 333.652344 C 143.660156 346.710938 128.554688 361.515625 117.332031 384 C 104.0625 410.582031 105.8125 434.21875 107.390625 455.253906 C 108.375 468.011719 109.269531 479.785156 106.667969 490.667969 C 103.9375 502.1875 100.4375 510.933594 97.066406 519.296875 C 90.964844 534.484375 85.332031 548.566406 85.332031 576 C 85.332031 640 117.246094 682.582031 184.105469 682.582031 L 362.667969 682.582031 C 362.667969 682.582031 345.601562 810.667969 345.601562 874.667969 Z M 789.332031 640 C 824.679688 640 853.332031 611.347656 853.332031 576 L 853.332031 277.332031 C 853.332031 241.988281 824.679688 213.332031 789.332031 213.332031 C 753.988281 213.332031 725.332031 241.988281 725.332031 277.332031 L 725.332031 576 C 725.332031 611.347656 753.988281 640 789.332031 640 Z M 789.332031 640 "/>
</svg>
