<?xml version="1.0" encoding="UTF-8"?>
<svg xmlns="http://www.w3.org/2000/svg" xmlns:xlink="http://www.w3.org/1999/xlink" width="1024" height="1024" viewBox="0 0 1024 1024">
<path fill-rule="evenodd" fill="rgb(0%, 0%, 0%)" fill-opacity="1" d="M 85.332031 576 C 85.332031 665.472656 137.726562 725.246094 226.773438 725.246094 L 351.273438 725.246094 C 347.6875 760.722656 345.792969 796.347656 345.601562 832 C 345.601562 915.753906 422.828125 981.332031 500.90625 981.332031 C 561.238281 981.332031 578.132812 946.773438 588.332031 866.859375 L 588.332031 866.816406 C 588.542969 865.066406 592.339844 834.304688 593.664062 824.40625 C 596.011719 807.039062 598.441406 791.550781 601.472656 776.0625 C 613.078125 715.734375 643.625 650.453125 675.113281 612.179688 C 680.960938 617.386719 687.445312 621.953125 694.570312 625.75 C 711.9375 635.050781 732.246094 640 761.472656 640 L 774.527344 640 C 803.753906 640 824.019531 635.050781 841.429688 625.75 C 858.792969 616.449219 872.449219 602.835938 881.75 585.429688 C 891.050781 568.0625 896 547.753906 896 518.527344 L 896 292.136719 C 896 262.910156 891.050781 242.644531 881.75 225.238281 C 872.65625 208.058594 858.609375 194.011719 841.429688 184.917969 C 824.0625 175.617188 803.753906 170.667969 774.527344 170.667969 L 761.472656 170.667969 C 732.246094 170.667969 711.980469 175.617188 694.570312 184.917969 C 684.722656 190.152344 675.847656 197.035156 668.332031 205.269531 C 638.59375 182.871094 596.652344 170.667969 540.96875 170.667969 L 351.019531 170.667969 C 287.617188 170.667969 241.578125 194.261719 212.179688 234.113281 C 200.105469 250.496094 194.902344 261.886719 186.753906 283.863281 C 184.972656 287.269531 182.636719 290.355469 179.839844 292.992188 C 178.730469 294.1875 175.148438 297.769531 170.964844 301.953125 C 165.207031 307.710938 158.335938 314.539062 155.265625 317.867188 C 141.441406 332.628906 130.644531 347.308594 121.855469 364.929688 C 106.625 395.347656 104.535156 418.601562 107.476562 457.644531 C 108.585938 472.574219 108.628906 477.441406 107.820312 480.769531 C 106.222656 487.277344 104.125 493.652344 101.546875 499.839844 L 98.730469 506.921875 C 89.34375 530.476562 85.332031 548.351562 85.332031 576 Z M 503.679688 856.0625 C 503.59375 856.492188 507.648438 823.722656 509.097656 813.011719 C 511.660156 794.15625 514.347656 777.171875 517.632812 759.9375 C 534.953125 670.121094 583.9375 574.039062 639.828125 526.933594 L 639.828125 341.332031 C 639.828125 280.234375 619.179688 256 540.96875 256 L 351.019531 256 C 314.921875 256 294.273438 266.582031 280.917969 284.714844 C 274.988281 292.734375 272.257812 298.753906 266.792969 313.472656 C 261.589844 327.464844 253.695312 338.902344 242.347656 351.105469 C 240.042969 353.578125 234.238281 359.382812 228.734375 364.84375 C 223.914062 369.707031 219.265625 374.316406 217.515625 376.191406 C 209.75 384.132812 203.222656 393.195312 198.144531 403.070312 C 191.617188 416.171875 190.675781 426.410156 192.597656 451.285156 C 194.390625 475.5625 194.433594 485.417969 190.847656 500.566406 C 188.289062 511.316406 185.34375 520.019531 180.863281 531.285156 L 178.046875 538.410156 C 172.757812 550.214844 170.230469 563.070312 170.667969 576 C 170.667969 620.671875 187.519531 639.914062 226.773438 639.914062 L 398.933594 639.914062 C 411.167969 639.917969 422.816406 645.175781 430.910156 654.347656 C 439.007812 663.523438 442.777344 675.730469 441.257812 687.871094 C 434.347656 743.167969 430.933594 791.253906 430.933594 832 C 430.933594 863.785156 464.085938 893.3125 496.511719 895.828125 C 498.816406 888.832031 501.035156 876.671875 503.679688 856.0625 Z M 801.195312 550.484375 C 796.246094 553.128906 789.375 554.667969 774.527344 554.667969 L 761.472656 554.667969 C 746.625 554.667969 739.753906 553.128906 734.804688 550.484375 C 732.496094 549.355469 730.621094 547.496094 729.472656 545.195312 C 726.871094 540.246094 725.332031 533.375 725.332031 518.527344 L 725.332031 292.136719 C 725.332031 277.332031 726.871094 270.421875 729.515625 265.472656 C 730.652344 263.179688 732.511719 261.320312 734.804688 260.179688 C 739.753906 257.535156 746.625 256 761.472656 256 L 774.527344 256 C 789.375 256 796.246094 257.535156 801.195312 260.179688 C 803.503906 261.3125 805.378906 263.171875 806.527344 265.472656 C 809.128906 270.421875 810.667969 277.332031 810.667969 292.136719 L 810.667969 518.527344 C 810.667969 533.375 809.128906 540.246094 806.484375 545.195312 C 805.347656 547.488281 803.488281 549.347656 801.195312 550.484375 Z M 801.195312 550.484375 "/>
</svg>
