<?xml version="1.0" encoding="UTF-8"?>
<svg xmlns="http://www.w3.org/2000/svg" xmlns:xlink="http://www.w3.org/1999/xlink" width="1024" height="1024" viewBox="0 0 1024 1024">
<path fill-rule="evenodd" fill="rgb(0%, 0%, 0%)" fill-opacity="1" d="M 224.9375 143.574219 C 213.332031 166.398438 213.332031 196.265625 213.332031 256 L 213.332031 768 C 213.332031 827.734375 213.332031 857.601562 224.9375 880.425781 C 235.175781 900.492188 251.5 916.800781 271.574219 927.019531 C 294.398438 938.667969 324.265625 938.667969 384 938.667969 L 640 938.667969 C 699.734375 938.667969 729.601562 938.667969 752.425781 927.019531 C 772.484375 916.792969 788.792969 900.484375 799.019531 880.425781 C 810.667969 857.601562 810.667969 827.734375 810.667969 768 L 810.667969 426.15625 C 810.667969 394.835938 810.667969 379.222656 807.125 364.457031 C 803.976562 351.398438 798.792969 338.914062 791.765625 327.464844 C 783.871094 314.539062 772.820312 303.488281 750.675781 281.386719 L 614.65625 145.28125 C 592.511719 123.179688 581.460938 112.128906 568.535156 104.191406 C 557.085938 97.164062 544.601562 91.980469 531.542969 88.832031 C 516.777344 85.332031 501.121094 85.332031 469.84375 85.332031 L 384 85.332031 C 324.265625 85.332031 294.398438 85.332031 271.574219 96.9375 C 251.492188 107.167969 235.167969 123.492188 224.9375 143.574219 Z M 469.332031 384 L 469.332031 205.652344 C 469.335938 191.75 477.558594 179.164062 490.292969 173.578125 C 503.023438 167.992188 517.855469 170.464844 528.085938 179.882812 L 715.222656 367.019531 C 725.214844 377.019531 728.203125 392.054688 722.785156 405.113281 C 717.367188 418.171875 704.613281 426.679688 690.476562 426.667969 L 512 426.667969 C 488.4375 426.667969 469.332031 407.5625 469.332031 384 Z M 469.332031 384 "/>
</svg>
