<?xml version="1.0" encoding="UTF-8"?>
<svg xmlns="http://www.w3.org/2000/svg" xmlns:xlink="http://www.w3.org/1999/xlink" width="1024" height="1024" viewBox="0 0 1024 1024">
<path fill-rule="evenodd" fill="rgb(0%, 0%, 0%)" fill-opacity="1" d="M 350.078125 85.332031 L 511.617188 85.332031 C 544.683594 85.332031 556.117188 86.527344 568.789062 89.429688 C 581.460938 92.375 592.683594 97.023438 603.691406 103.9375 C 614.699219 110.804688 623.660156 118.015625 646.996094 141.398438 L 754.601562 249.003906 C 777.941406 272.339844 785.195312 281.300781 792.105469 292.308594 C 798.976562 303.316406 803.625 314.539062 806.527344 327.210938 C 809.472656 339.882812 810.667969 351.316406 810.667969 384.382812 L 810.667969 801.921875 C 810.667969 849.449219 805.71875 866.730469 796.414062 884.097656 C 787.320312 901.273438 773.273438 915.320312 756.097656 924.414062 C 738.730469 933.71875 721.492188 938.667969 673.921875 938.667969 L 350.078125 938.667969 C 302.507812 938.667969 285.269531 933.71875 267.902344 924.414062 C 250.726562 915.320312 236.679688 901.273438 227.585938 884.097656 C 218.28125 866.730469 213.332031 849.492188 213.332031 801.921875 L 213.332031 222.078125 C 213.332031 174.507812 218.28125 157.269531 227.585938 139.902344 C 236.886719 122.539062 250.539062 108.886719 267.902344 99.585938 C 285.269531 90.28125 302.507812 85.332031 350.078125 85.332031 Z M 350.078125 170.667969 C 331.863281 170.667969 320.46875 171.476562 313.855469 172.757812 C 311.828125 173.058594 309.882812 173.769531 308.136719 174.847656 C 305.84375 175.988281 303.988281 177.84375 302.847656 180.136719 C 301.769531 181.882812 301.058594 183.828125 300.757812 185.855469 C 299.476562 192.46875 298.667969 203.863281 298.667969 222.078125 L 298.667969 801.921875 C 298.667969 820.136719 299.476562 831.53125 300.757812 838.144531 C 301.269531 840.703125 301.484375 841.300781 302.847656 843.863281 C 303.980469 846.171875 305.839844 848.042969 308.136719 849.195312 C 310.699219 850.515625 311.253906 850.730469 313.855469 851.242188 C 320.46875 852.523438 331.863281 853.332031 350.078125 853.332031 L 673.921875 853.332031 C 692.136719 853.332031 703.53125 852.523438 710.144531 851.242188 C 712.171875 850.941406 714.117188 850.230469 715.863281 849.152344 C 718.171875 848.019531 720.042969 846.160156 721.195312 843.863281 C 722.257812 842.113281 722.957031 840.167969 723.242188 838.144531 C 724.523438 831.53125 725.332031 820.136719 725.332031 801.921875 L 725.332031 426.667969 L 606.078125 426.667969 C 558.550781 426.667969 541.269531 421.71875 523.902344 412.414062 C 506.726562 403.320312 492.679688 389.273438 483.585938 372.097656 C 474.28125 354.730469 469.332031 337.492188 469.332031 289.921875 L 469.332031 170.667969 Z M 554.667969 174.207031 L 554.667969 289.921875 C 554.667969 308.136719 555.476562 319.53125 556.757812 326.144531 C 557.269531 328.703125 557.484375 329.300781 558.847656 331.863281 C 559.988281 334.15625 561.84375 336.011719 564.136719 337.152344 C 566.699219 338.515625 567.253906 338.730469 569.855469 339.242188 C 576.46875 340.523438 587.863281 341.332031 606.078125 341.332031 L 721.75 341.332031 C 721.175781 340.035156 720.503906 338.777344 719.742188 337.578125 C 716.375 332.203125 712.0625 327.125 694.230469 309.332031 L 586.710938 201.769531 C 568.875 183.980469 563.796875 179.585938 558.464844 176.257812 C 557.25 175.480469 555.980469 174.796875 554.667969 174.207031 Z M 554.667969 174.207031 "/>
</svg>
