<?xml version="1.0" encoding="UTF-8"?>
<svg xmlns="http://www.w3.org/2000/svg" xmlns:xlink="http://www.w3.org/1999/xlink" width="1024" height="1024" viewBox="0 0 1024 1024">
<path fill-rule="evenodd" fill="rgb(0%, 0%, 0%)" fill-opacity="1" d="M 390.953125 120.277344 C 384 133.929688 384 151.851562 384 187.734375 L 384 469.332031 L 332.929688 469.332031 C 295.253906 469.332031 276.394531 469.332031 267.476562 476.84375 C 259.71875 483.363281 255.507812 493.179688 256.128906 503.296875 C 256.851562 514.988281 269.867188 528.597656 295.851562 555.863281 L 474.964844 743.636719 C 487.851562 757.207031 494.292969 763.945312 501.84375 766.464844 C 508.433594 768.671875 515.566406 768.671875 522.15625 766.464844 C 529.707031 763.945312 536.148438 757.207031 549.035156 743.636719 L 728.148438 555.902344 C 754.175781 528.597656 767.148438 514.945312 767.828125 503.296875 C 768.460938 493.1875 764.265625 483.375 756.523438 476.84375 C 747.605469 469.332031 728.789062 469.332031 691.070312 469.332031 L 640 469.332031 L 640 187.734375 C 640 151.894531 640 133.972656 633.003906 120.277344 C 626.875 108.230469 617.09375 98.433594 605.054688 92.289062 C 591.402344 85.332031 573.484375 85.332031 537.601562 85.332031 L 486.398438 85.332031 C 450.558594 85.332031 432.640625 85.332031 418.945312 92.289062 C 406.890625 98.425781 397.09375 108.222656 390.953125 120.277344 Z M 213.332031 896 C 213.332031 919.5625 232.4375 938.667969 256 938.667969 L 768 938.667969 C 791.5625 938.667969 810.667969 919.5625 810.667969 896 C 810.667969 872.4375 791.5625 853.332031 768 853.332031 L 256 853.332031 C 232.4375 853.332031 213.332031 872.4375 213.332031 896 Z M 213.332031 896 "/>
</svg>
