<?xml version="1.0" encoding="UTF-8"?>
<svg xmlns="http://www.w3.org/2000/svg" xmlns:xlink="http://www.w3.org/1999/xlink" width="1024" height="1024" viewBox="0 0 1024 1024">
<path fill-rule="evenodd" fill="rgb(0%, 0%, 0%)" fill-opacity="1" d="M 512 85.332031 C 488.535156 85.332031 469.332031 104.535156 469.332031 128 L 469.332031 508.671875 C 469.332031 540.835938 472.96875 572.898438 480.171875 604.246094 L 471.382812 613.035156 L 462.207031 598.355469 C 445.140625 571.050781 424.960938 545.707031 402.175781 522.921875 L 360.960938 481.707031 C 352.988281 473.71875 342.164062 469.230469 330.878906 469.230469 C 319.59375 469.230469 308.773438 473.71875 300.800781 481.707031 C 284.160156 498.347656 284.160156 525.652344 300.800781 542.292969 L 466.773438 707.96875 C 491.761719 732.925781 532.238281 732.925781 557.226562 707.96875 L 723.199219 542.292969 C 739.839844 525.652344 739.839844 498.347656 723.199219 481.707031 C 715.226562 473.71875 704.40625 469.230469 693.121094 469.230469 C 681.835938 469.230469 671.011719 473.71875 663.039062 481.707031 L 621.824219 522.921875 C 599.027344 545.71875 578.890625 571.027344 561.792969 598.355469 L 552.617188 613.035156 L 543.828125 604.203125 C 551.03125 572.855469 554.667969 540.792969 554.667969 508.628906 L 554.667969 128 C 554.667969 104.535156 535.464844 85.332031 512 85.332031 Z M 256 853.332031 C 232.4375 853.332031 213.332031 872.4375 213.332031 896 C 213.332031 919.5625 232.4375 938.667969 256 938.667969 L 768 938.667969 C 791.5625 938.667969 810.667969 919.5625 810.667969 896 C 810.667969 872.4375 791.5625 853.332031 768 853.332031 Z M 256 853.332031 "/>
</svg>
