<?xml version="1.0" encoding="UTF-8"?>
<svg xmlns="http://www.w3.org/2000/svg" xmlns:xlink="http://www.w3.org/1999/xlink" width="1024" height="1024" viewBox="0 0 1024 1024">
<path fill-rule="nonzero" fill="rgb(0%, 0%, 0%)" fill-opacity="1" d="M 631.167969 314.367188 L 274.476562 671.0625 C 266.789062 678.71875 260.636719 687.765625 256.339844 697.726562 L 182.613281 832.851562 L 326.1875 767.574219 C 336.128906 763.265625 345.171875 757.121094 352.8125 749.484375 L 709.503906 392.703125 C 699.871094 376.707031 688.210938 362.023438 674.816406 349.011719 C 661.816406 335.636719 647.144531 323.992188 631.167969 314.367188 Z M 692.863281 252.671875 C 707.15625 262.785156 721.238281 274.816406 735.105469 288.683594 C 749.054688 302.59375 761.089844 316.714844 771.199219 331.007812 L 833.921875 268.246094 C 839.992188 262.183594 841.84375 253.070312 838.613281 245.121094 C 834.089844 233.941406 825.941406 222.207031 813.78125 210.046875 C 801.664062 197.929688 789.929688 189.78125 778.710938 185.214844 C 770.769531 182.007812 761.679688 183.855469 755.625 189.910156 Z M 177.921875 664.0625 C 186.484375 644.148438 198.761719 626.050781 214.101562 610.730469 L 695.296875 129.535156 C 725.605469 99.21875 771.117188 89.992188 810.835938 106.113281 C 833.238281 115.242188 854.355469 129.878906 874.15625 149.675781 C 893.953125 169.515625 908.585938 190.59375 917.675781 212.992188 C 933.804688 252.707031 924.59375 298.214844 894.292969 328.535156 L 413.140625 809.8125 C 397.832031 825.132812 379.746094 837.394531 359.851562 845.953125 L 212.992188 909.097656 C 184.917969 921.1875 152.3125 914.941406 130.691406 893.339844 C 109.066406 871.734375 102.796875 839.136719 114.859375 811.050781 Z M 177.921875 664.0625 "/>
</svg>
