<?xml version="1.0" encoding="UTF-8"?>
<svg xmlns="http://www.w3.org/2000/svg" xmlns:xlink="http://www.w3.org/1999/xlink" width="1024" height="1024" viewBox="0 0 1024 1024">
<path fill-rule="evenodd" fill="rgb(0%, 0%, 0%)" fill-opacity="1" d="M 170.238281 719.105469 L 114.175781 868.609375 C 109.777344 880.359375 112.65625 893.59375 121.53125 902.460938 C 130.40625 911.328125 143.644531 914.191406 155.390625 909.78125 L 304.851562 853.71875 C 321.960938 847.308594 337.496094 837.316406 350.421875 824.40625 L 783.359375 391.464844 C 783.359375 391.464844 768.257812 346.199219 723.03125 300.929688 C 677.800781 255.703125 632.492188 240.597656 632.492188 240.597656 L 199.550781 673.535156 C 186.640625 686.460938 176.648438 701.996094 170.238281 719.105469 Z M 692.863281 180.222656 L 751.871094 121.214844 C 762.453125 110.632812 776.574219 103.894531 791.339844 106.367188 C 812.117188 109.78125 843.902344 120.105469 873.855469 150.101562 C 903.851562 180.097656 914.175781 211.839844 917.589844 232.617188 C 920.0625 247.382812 913.324219 261.503906 902.742188 272.085938 L 843.691406 331.09375 C 843.691406 331.09375 828.628906 285.867188 783.359375 240.640625 C 738.132812 195.328125 692.863281 180.265625 692.863281 180.265625 Z M 692.863281 180.222656 "/>
</svg>
