<?xml version="1.0" encoding="UTF-8"?>
<svg xmlns="http://www.w3.org/2000/svg" xmlns:xlink="http://www.w3.org/1999/xlink" width="1024" height="1024" viewBox="0 0 1024 1024">
<path fill-rule="nonzero" fill="rgb(0%, 0%, 0%)" fill-opacity="1" d="M 885.332031 298.667969 C 914.789062 298.667969 938.667969 322.542969 938.667969 352 C 938.667969 381.457031 914.789062 405.332031 885.332031 405.332031 L 138.667969 405.332031 C 109.210938 405.332031 85.332031 381.457031 85.332031 352 C 85.332031 322.542969 109.210938 298.667969 138.667969 298.667969 Z M 885.332031 661.332031 C 914.789062 661.332031 938.667969 685.210938 938.667969 714.667969 C 938.667969 744.121094 914.789062 768 885.332031 768 L 138.667969 768 C 109.210938 768 85.332031 744.121094 85.332031 714.667969 C 85.332031 685.210938 109.210938 661.332031 138.667969 661.332031 Z M 885.332031 661.332031 "/>
</svg>
