<?xml version="1.0" encoding="UTF-8"?>
<svg xmlns="http://www.w3.org/2000/svg" xmlns:xlink="http://www.w3.org/1999/xlink" width="1024" height="1024" viewBox="0 0 1024 1024">
<path fill-rule="evenodd" fill="rgb(0%, 0%, 0%)" fill-opacity="1" d="M 512 938.667969 C 747.648438 938.667969 938.667969 747.648438 938.667969 512 C 938.667969 276.351562 747.648438 85.332031 512 85.332031 C 276.351562 85.332031 85.332031 276.351562 85.332031 512 C 85.332031 747.648438 276.351562 938.667969 512 938.667969 Z M 448 724.949219 C 448 687.957031 476.117188 661.332031 511.617188 661.332031 C 547.882812 661.332031 576 687.957031 576 724.949219 C 576 761.941406 547.882812 789.332031 511.617188 789.332031 C 476.117188 789.332031 448 761.941406 448 724.949219 Z M 476.671875 256 C 470.855469 256.007812 465.292969 258.386719 461.273438 262.59375 C 457.253906 266.796875 455.125 272.460938 455.382812 278.273438 L 468.4375 576.9375 C 468.941406 588.351562 478.34375 597.34375 489.769531 597.332031 L 534.273438 597.332031 C 545.695312 597.34375 555.101562 588.351562 555.605469 576.9375 L 568.617188 278.273438 C 568.875 272.453125 566.742188 266.78125 562.710938 262.578125 C 558.683594 258.371094 553.109375 255.996094 547.285156 256 Z M 476.671875 256 "/>
</svg>
