<?xml version="1.0" encoding="UTF-8"?>
<svg xmlns="http://www.w3.org/2000/svg" xmlns:xlink="http://www.w3.org/1999/xlink" width="1024" height="1024" viewBox="0 0 1024 1024">
<path fill-rule="evenodd" fill="rgb(0%, 0%, 0%)" fill-opacity="1" d="M 938.667969 512 C 938.667969 747.648438 747.648438 938.667969 512 938.667969 C 276.351562 938.667969 85.332031 747.648438 85.332031 512 C 85.332031 276.351562 276.351562 85.332031 512 85.332031 C 747.648438 85.332031 938.667969 276.351562 938.667969 512 Z M 853.332031 512 C 853.332031 700.511719 700.511719 853.332031 512 853.332031 C 323.488281 853.332031 170.667969 700.511719 170.667969 512 C 170.667969 323.488281 323.488281 170.667969 512 170.667969 C 700.511719 170.667969 853.332031 323.488281 853.332031 512 Z M 458.667969 693.035156 C 458.667969 662.1875 482.132812 640 511.703125 640 C 541.910156 640 565.332031 662.1875 565.332031 693.035156 C 565.332031 723.839844 541.867188 746.667969 511.703125 746.667969 C 497.476562 746.84375 483.792969 741.230469 473.792969 731.117188 C 463.789062 721.003906 458.328125 707.253906 458.667969 693.035156 Z M 483.070312 256 C 477.246094 255.996094 471.675781 258.371094 467.644531 262.578125 C 463.617188 266.78125 461.480469 272.453125 461.738281 278.273438 L 474.835938 576.9375 C 475.339844 588.351562 484.746094 597.34375 496.171875 597.332031 L 527.828125 597.332031 C 539.253906 597.34375 548.660156 588.351562 549.164062 576.9375 L 562.21875 278.273438 C 562.476562 272.453125 560.339844 266.78125 556.3125 262.578125 C 552.285156 258.371094 546.710938 255.996094 540.886719 256 Z M 483.070312 256 "/>
</svg>
