<?xml version="1.0" encoding="UTF-8"?>
<svg xmlns="http://www.w3.org/2000/svg" xmlns:xlink="http://www.w3.org/1999/xlink" width="1024" height="1024" viewBox="0 0 1024 1024">
<path fill-rule="evenodd" fill="rgb(0%, 0%, 0%)" fill-opacity="1" d="M 298.667969 85.332031 C 275.101562 85.332031 256 104.4375 256 128 L 256 170.710938 C 214.996094 171.308594 198.828125 176.214844 182.570312 184.917969 C 165.390625 194.011719 151.34375 208.058594 142.25 225.238281 C 132.949219 242.601562 128 259.839844 128 307.414062 L 128 759.253906 C 128 806.785156 132.949219 824.0625 142.25 841.429688 C 151.550781 858.792969 165.207031 872.449219 182.570312 881.75 C 199.9375 891.050781 217.171875 896 264.746094 896 L 759.253906 896 C 806.785156 896 824.0625 891.050781 841.429688 881.75 C 858.792969 872.449219 872.449219 858.792969 881.75 841.429688 C 891.050781 824.0625 896 806.828125 896 759.253906 L 896 307.414062 C 896 259.839844 891.050781 242.601562 881.75 225.238281 C 872.65625 208.058594 858.609375 194.011719 841.429688 184.917969 C 825.171875 176.214844 809.003906 171.308594 768 170.667969 L 768 128 C 768 104.4375 748.898438 85.332031 725.332031 85.332031 C 701.769531 85.332031 682.667969 104.4375 682.667969 128 L 682.667969 170.667969 L 341.332031 170.667969 L 341.332031 128 C 341.332031 104.4375 322.230469 85.332031 298.667969 85.332031 Z M 213.332031 384 L 213.332031 759.253906 C 213.332031 777.472656 214.144531 788.863281 215.425781 795.476562 C 215.9375 798.039062 216.148438 798.632812 217.515625 801.195312 C 218.644531 803.503906 220.503906 805.378906 222.804688 806.527344 C 225.367188 807.851562 225.921875 808.0625 228.523438 808.574219 C 235.136719 809.855469 246.527344 810.667969 264.746094 810.667969 L 759.253906 810.667969 C 777.472656 810.667969 788.863281 809.855469 795.476562 808.574219 C 797.503906 808.277344 799.449219 807.5625 801.195312 806.484375 C 803.503906 805.355469 805.378906 803.496094 806.527344 801.195312 C 807.59375 799.449219 808.289062 797.503906 808.574219 795.476562 C 809.855469 788.863281 810.667969 777.472656 810.667969 759.253906 L 810.835938 384 Z M 586.667969 554.667969 C 568.992188 554.667969 554.667969 568.992188 554.667969 586.667969 L 554.667969 693.332031 C 554.667969 710.996094 569.003906 725.332031 586.667969 725.332031 L 693.332031 725.332031 C 711.007812 725.332031 725.332031 711.007812 725.332031 693.332031 L 725.332031 586.667969 C 725.332031 568.992188 711.007812 554.667969 693.332031 554.667969 Z M 586.667969 554.667969 "/>
</svg>
