<?xml version="1.0" encoding="UTF-8"?>
<svg xmlns="http://www.w3.org/2000/svg" xmlns:xlink="http://www.w3.org/1999/xlink" width="1024" height="1024" viewBox="0 0 1024 1024">
<path fill-rule="evenodd" fill="rgb(0%, 0%, 0%)" fill-opacity="1" d="M 64 512 C 64 416 224 192 512 192 C 800 192 960 416 960 512 C 960 608 800 832 512 832 C 224 832 64 608 64 512 Z M 512 714.667969 C 623.929688 714.667969 714.667969 623.929688 714.667969 512 C 714.667969 400.070312 623.929688 309.332031 512 309.332031 C 400.070312 309.332031 309.332031 400.070312 309.332031 512 C 309.332031 623.929688 400.070312 714.667969 512 714.667969 Z M 627.199219 512 C 627.199219 575.625 575.625 627.199219 512 627.199219 C 448.375 627.199219 396.800781 575.625 396.800781 512 C 396.800781 448.375 448.375 396.800781 512 396.800781 C 575.625 396.800781 627.199219 448.375 627.199219 512 Z M 627.199219 512 "/>
</svg>
