<?xml version="1.0" encoding="UTF-8"?>
<svg xmlns="http://www.w3.org/2000/svg" xmlns:xlink="http://www.w3.org/1999/xlink" width="1024" height="1024" viewBox="0 0 1024 1024">
<path fill-rule="evenodd" fill="rgb(0%, 0%, 0%)" fill-opacity="1" d="M 512 192 C 224 192 64 416 64 512 C 64 608 224 832 512 832 C 800 832 960 608 960 512 C 960 416 800 192 512 192 Z M 236.886719 644.394531 C 182.699219 595.882812 149.332031 536.875 149.332031 512 C 149.332031 487.082031 182.65625 428.117188 236.886719 379.605469 C 308.523438 315.519531 402.6875 277.332031 512 277.332031 C 621.3125 277.332031 715.519531 315.519531 787.113281 379.605469 C 841.300781 428.117188 874.667969 487.125 874.667969 512 C 874.667969 536.917969 841.34375 595.882812 787.113281 644.394531 C 715.476562 708.480469 621.3125 746.667969 512 746.667969 C 402.6875 746.667969 308.480469 708.480469 236.886719 644.394531 Z M 512 682.667969 C 417.742188 682.667969 341.332031 606.257812 341.332031 512 C 341.332031 417.742188 417.742188 341.332031 512 341.332031 C 606.257812 341.332031 682.667969 417.742188 682.667969 512 C 682.667969 606.257812 606.257812 682.667969 512 682.667969 Z M 597.332031 512 C 597.332031 559.128906 559.128906 597.332031 512 597.332031 C 464.871094 597.332031 426.667969 559.128906 426.667969 512 C 426.667969 464.871094 464.871094 426.667969 512 426.667969 C 559.128906 426.667969 597.332031 464.871094 597.332031 512 Z M 597.332031 512 "/>
</svg>
