<?xml version="1.0" encoding="UTF-8"?>
<svg xmlns="http://www.w3.org/2000/svg" xmlns:xlink="http://www.w3.org/1999/xlink" width="1024" height="1024" viewBox="0 0 1024 1024">
<path fill-rule="evenodd" fill="rgb(0%, 0%, 0%)" fill-opacity="1" d="M 883.5 883.5 C 900.15625 866.835938 900.15625 839.828125 883.5 823.167969 L 200.832031 140.5 C 184.089844 124.332031 157.480469 124.5625 141.019531 141.019531 C 124.5625 157.480469 124.332031 184.089844 140.5 200.832031 L 222.078125 282.453125 C 118.828125 355.753906 64 455.808594 64 512 C 64 608 224 832 512 832 C 593.75 832 665.171875 813.953125 725.589844 785.921875 L 823.167969 883.5 C 839.828125 900.15625 866.835938 900.15625 883.5 883.5 Z M 621.953125 682.28125 L 557.523438 617.855469 C 514.191406 636.527344 463.847656 626.882812 430.484375 593.515625 C 397.117188 560.152344 387.472656 509.808594 406.144531 466.476562 L 341.71875 402.046875 C 289.835938 482.277344 301.035156 587.847656 368.59375 655.40625 C 436.152344 722.964844 541.722656 734.164062 621.953125 682.28125 Z M 960 512 C 960 554.878906 928.042969 623.359375 866.988281 685.996094 L 713.644531 532.609375 C 719.847656 471.972656 698.4375 411.761719 655.335938 368.664062 C 612.238281 325.5625 552.027344 304.152344 491.390625 310.355469 L 387.753906 206.761719 C 426.027344 197.375 467.5 192 512 192 C 800 192 960 416 960 512 Z M 960 512 "/>
</svg>
