<?xml version="1.0" encoding="UTF-8"?>
<svg xmlns="http://www.w3.org/2000/svg" xmlns:xlink="http://www.w3.org/1999/xlink" width="1024" height="1024" viewBox="0 0 1024 1024">
<path fill-rule="evenodd" fill="rgb(0%, 0%, 0%)" fill-opacity="1" d="M 883.5 883.5 C 900.15625 866.835938 900.15625 839.828125 883.5 823.167969 L 200.832031 140.5 C 184.089844 124.332031 157.480469 124.5625 141.019531 141.019531 C 124.5625 157.480469 124.332031 184.089844 140.5 200.832031 L 222.078125 282.453125 C 118.828125 355.753906 64 455.808594 64 512 C 64 608 224 832 512 832 C 593.75 832 665.171875 813.953125 725.589844 785.921875 L 823.167969 883.5 C 839.828125 900.15625 866.835938 900.15625 883.5 883.5 Z M 660.4375 720.769531 L 584.746094 645.078125 C 519.59375 675.84375 442.140625 662.378906 391.191406 611.429688 C 340.246094 560.484375 326.78125 483.03125 357.546875 417.878906 L 283.476562 343.808594 C 267.113281 354.59375 251.570312 366.574219 236.96875 379.648438 C 182.613281 428.117188 149.332031 487.125 149.332031 512 C 149.332031 536.917969 182.65625 595.882812 236.886719 644.394531 C 308.523438 708.480469 402.6875 746.667969 512 746.667969 C 565.332031 746.667969 615.125 737.578125 660.480469 720.769531 Z M 866.988281 685.996094 C 928.042969 623.359375 960 554.921875 960 512 C 960 416 800 192 512 192 C 467.5 192 426.027344 197.332031 387.753906 206.761719 L 461.183594 280.148438 C 477.738281 278.316406 494.675781 277.332031 512 277.332031 C 621.3125 277.332031 715.519531 315.519531 787.113281 379.605469 C 841.300781 428.117188 874.667969 487.125 874.667969 512 C 874.667969 533.761719 849.238281 581.546875 806.613281 625.621094 Z M 866.988281 685.996094 "/>
</svg>
