<?xml version="1.0" encoding="UTF-8"?>
<svg xmlns="http://www.w3.org/2000/svg" xmlns:xlink="http://www.w3.org/1999/xlink" width="1024" height="1024" viewBox="0 0 1024 1024">
<path fill-rule="evenodd" fill="rgb(0%, 0%, 0%)" fill-opacity="1" d="M 640 448 C 706.046875 447.988281 764.25 404.617188 783.148438 341.332031 L 896 341.332031 C 919.5625 341.332031 938.667969 322.230469 938.667969 298.667969 C 938.667969 275.101562 919.5625 256 896 256 L 783.148438 256 C 764.21875 192.75 706.023438 149.417969 640 149.417969 C 573.976562 149.417969 515.78125 192.75 496.851562 256 L 128 256 C 104.4375 256 85.332031 275.101562 85.332031 298.667969 C 85.332031 322.230469 104.4375 341.332031 128 341.332031 L 496.851562 341.332031 C 515.75 404.617188 573.953125 447.988281 640 448 Z M 128 682.667969 C 104.4375 682.667969 85.332031 701.769531 85.332031 725.332031 C 85.332031 748.898438 104.4375 768 128 768 L 219.519531 768 C 238.449219 831.25 296.644531 874.582031 362.667969 874.582031 C 428.6875 874.582031 486.886719 831.25 505.8125 768 L 896 768 C 919.5625 768 938.667969 748.898438 938.667969 725.332031 C 938.667969 701.769531 919.5625 682.667969 896 682.667969 L 505.8125 682.667969 C 486.886719 619.414062 428.6875 576.085938 362.667969 576.085938 C 296.644531 576.085938 238.449219 619.414062 219.519531 682.667969 Z M 128 682.667969 "/>
</svg>
