<?xml version="1.0" encoding="UTF-8"?>
<svg xmlns="http://www.w3.org/2000/svg" xmlns:xlink="http://www.w3.org/1999/xlink" width="1024" height="1024" viewBox="0 0 1024 1024">
<path fill-rule="evenodd" fill="rgb(0%, 0%, 0%)" fill-opacity="1" d="M 640 469.332031 C 562.171875 469.324219 494.195312 416.683594 474.710938 341.332031 L 128 341.332031 C 104.4375 341.332031 85.332031 322.230469 85.332031 298.667969 C 85.332031 275.101562 104.4375 256 128 256 L 474.710938 256 C 494.230469 180.683594 562.195312 128.085938 640 128.085938 C 717.804688 128.085938 785.769531 180.683594 805.289062 256 L 896 256 C 919.5625 256 938.667969 275.101562 938.667969 298.667969 C 938.667969 322.230469 919.5625 341.332031 896 341.332031 L 805.289062 341.332031 C 785.804688 416.683594 717.828125 469.324219 640 469.332031 Z M 128 682.667969 C 104.4375 682.667969 85.332031 701.769531 85.332031 725.332031 C 85.332031 748.898438 104.4375 768 128 768 L 218.710938 768 C 238.230469 843.316406 306.195312 895.914062 384 895.914062 C 461.804688 895.914062 529.769531 843.316406 549.289062 768 L 896 768 C 919.5625 768 938.667969 748.898438 938.667969 725.332031 C 938.667969 701.769531 919.5625 682.667969 896 682.667969 L 549.289062 682.667969 C 529.769531 607.351562 461.804688 554.753906 384 554.753906 C 306.195312 554.753906 238.230469 607.351562 218.710938 682.667969 Z M 640 384 C 687.128906 384 725.332031 345.796875 725.332031 298.667969 C 725.332031 251.539062 687.128906 213.332031 640 213.332031 C 592.871094 213.332031 554.667969 251.539062 554.667969 298.667969 C 554.667969 345.796875 592.871094 384 640 384 Z M 469.332031 725.332031 C 469.332031 772.460938 431.128906 810.667969 384 810.667969 C 336.871094 810.667969 298.667969 772.460938 298.667969 725.332031 C 298.667969 678.203125 336.871094 640 384 640 C 431.128906 640 469.332031 678.203125 469.332031 725.332031 Z M 469.332031 725.332031 "/>
</svg>
