<?xml version="1.0" encoding="UTF-8"?>
<svg xmlns="http://www.w3.org/2000/svg" xmlns:xlink="http://www.w3.org/1999/xlink" width="1024" height="1024" viewBox="0 0 1024 1024">
<path fill-rule="nonzero" fill="rgb(0%, 0%, 0%)" fill-opacity="1" d="M 252.84375 877.824219 C 290.363281 909.257812 334.796875 931.351562 382.507812 942.292969 C 387.070312 943.785156 390.144531 937.8125 387.070312 934.828125 C 284.886719 837.332031 341.035156 731.820312 382.507812 684.246094 C 412.074219 650.28125 454.1875 594.347656 451.113281 519.339844 C 451.113281 511.828125 458.792969 505.8125 464.851562 510.335938 C 522.835938 540.332031 562.476562 606.335938 573.140625 660.308594 C 589.953125 643.839844 596.054688 618.324219 596.054688 595.839844 C 596.054688 588.332031 605.183594 582.316406 612.820312 588.332031 C 667.734375 637.824219 762.28125 805.800781 609.75 937.769531 C 606.71875 940.800781 609.75 946.816406 612.820312 945.324219 C 659.074219 933.199219 702.566406 912.3125 740.949219 883.796875 C 989.566406 691.796875 827.863281 351.316406 722.601562 238.847656 C 708.90625 225.324219 684.5 234.324219 684.5 253.824219 C 682.964844 294.355469 670.761719 339.328125 638.761719 369.324219 C 614.355469 267.347656 533.035156 151.507812 417.109375 94.507812 C 401.878906 86.996094 383.574219 98.988281 385.109375 115.5 C 388.097656 255.019531 297.089844 343.851562 217.769531 459.347656 C 147.585938 562.816406 101.84375 753.324219 252.84375 877.824219 Z M 252.84375 877.824219 "/>
</svg>
