<?xml version="1.0" encoding="UTF-8"?>
<svg xmlns="http://www.w3.org/2000/svg" xmlns:xlink="http://www.w3.org/1999/xlink" width="1024" height="1024" viewBox="0 0 1024 1024">
<path fill-rule="evenodd" fill="rgb(0%, 0%, 0%)" fill-opacity="1" d="M 355.96875 155.222656 C 352.128906 234.113281 339.667969 265.003906 218.710938 441.128906 C 123.988281 579.03125 121.558594 762.070312 258.304688 874.835938 C 298.238281 907.777344 347.265625 927.871094 395.945312 938.667969 C 447.359375 950.101562 474.753906 893.738281 439.210938 859.863281 C 382.550781 805.761719 388.222656 748.671875 434.304688 695.722656 C 468.949219 656 491.136719 611.796875 500.609375 567.125 C 618.667969 639.660156 676.351562 776.832031 583.636719 857.089844 C 543.914062 891.476562 574.164062 953.300781 628.351562 936.535156 C 868.734375 861.996094 907.902344 659.199219 887.382812 512.597656 C 870.953125 395.007812 812.929688 278.785156 748.542969 229.207031 C 698.753906 184.960938 654.675781 208.851562 647.722656 275.5 C 646.332031 286.183594 644.28125 296.769531 641.578125 307.199219 C 606.078125 210.21875 528.769531 130.132812 444.332031 93.269531 C 396.542969 72.449219 359.167969 89.171875 355.96875 155.222656 Z M 421.246094 519.296875 C 423.039062 563.542969 405.035156 599.507812 369.960938 639.703125 C 326.398438 689.707031 289.195312 769.960938 337.109375 848.339844 C 210.859375 740.820312 217.644531 594.859375 289.195312 489.214844 L 299.179688 474.835938 L 323.242188 440.574219 L 325.078125 437.972656 C 335.445312 423.167969 343.210938 411.902344 350.675781 400.8125 C 404.734375 320.085938 428.160156 237.996094 434.046875 165.246094 C 507.050781 210.046875 571.820312 312.875 591.273438 394.199219 C 594.804688 408.984375 605.933594 420.773438 620.488281 425.152344 C 635.046875 429.53125 650.832031 425.832031 661.929688 415.445312 C 688.128906 390.910156 709.121094 338.261719 714.28125 300.414062 C 750.804688 345.257812 791.765625 444.96875 802.902344 524.414062 C 823.9375 675.03125 765.953125 772.820312 684.800781 840.789062 C 746.027344 696.449219 641.40625 535.082031 496.042969 473.214844 C 445.867188 451.839844 419.710938 480.8125 421.246094 519.296875 Z M 421.246094 519.296875 "/>
</svg>
