<?xml version="1.0" encoding="UTF-8"?>
<svg xmlns="http://www.w3.org/2000/svg" xmlns:xlink="http://www.w3.org/1999/xlink" width="1024" height="1024" viewBox="0 0 1024 1024">
<path fill-rule="evenodd" fill="rgb(0%, 0%, 0%)" fill-opacity="1" d="M 329.515625 128 L 222.078125 128 C 174.507812 128 157.269531 132.949219 139.902344 142.25 C 122.726562 151.34375 108.679688 165.390625 99.585938 182.570312 C 90.28125 199.9375 85.332031 217.171875 85.332031 264.746094 L 85.332031 673.921875 C 85.332031 721.492188 90.28125 738.730469 99.585938 756.097656 C 108.886719 773.460938 122.539062 787.113281 139.902344 796.414062 C 157.269531 805.71875 174.507812 810.667969 222.078125 810.667969 L 801.921875 810.667969 C 849.449219 810.667969 866.730469 805.71875 884.097656 796.414062 C 901.460938 787.113281 915.113281 773.460938 924.414062 756.097656 C 933.71875 738.730469 938.667969 721.492188 938.667969 673.921875 L 938.667969 392.746094 C 938.667969 345.171875 933.71875 327.9375 924.414062 310.570312 C 915.320312 293.390625 901.273438 279.34375 884.097656 270.25 C 866.730469 260.949219 849.492188 256 801.921875 256 L 512 256 L 480.554688 208.851562 C 459.007812 176.511719 449.664062 166.1875 437.546875 156.117188 C 425.71875 146.25 411.996094 138.902344 397.226562 134.527344 C 382.164062 130.003906 368.339844 128 329.515625 128 Z M 185.855469 215.425781 C 192.46875 214.144531 203.863281 213.332031 222.078125 213.332031 L 329.515625 213.332031 C 358.058594 213.332031 365.484375 214.101562 372.652344 216.277344 C 376.832031 217.558594 379.820312 219.136719 383.1875 221.910156 C 388.949219 226.644531 393.726562 232.449219 409.558594 256.171875 L 441.003906 303.316406 C 456.824219 327.0625 483.46875 341.328125 512 341.332031 L 801.921875 341.332031 C 820.136719 341.332031 831.53125 342.144531 838.144531 343.425781 C 840.703125 343.9375 841.300781 344.148438 843.863281 345.515625 C 846.171875 346.644531 848.042969 348.503906 849.195312 350.804688 C 850.515625 353.367188 850.730469 353.921875 851.242188 356.523438 C 852.523438 363.136719 853.332031 374.527344 853.332031 392.746094 L 853.332031 673.921875 C 853.332031 692.136719 852.523438 703.53125 851.242188 710.144531 C 850.941406 712.171875 850.230469 714.117188 849.152344 715.863281 C 848.019531 718.171875 846.160156 720.042969 843.863281 721.195312 C 842.113281 722.257812 840.167969 722.957031 838.144531 723.242188 C 831.53125 724.523438 820.136719 725.332031 801.921875 725.332031 L 222.078125 725.332031 C 203.863281 725.332031 192.46875 724.523438 185.855469 723.242188 C 183.828125 722.941406 181.882812 722.230469 180.136719 721.152344 C 177.84375 720.011719 175.988281 718.15625 174.847656 715.863281 C 173.769531 714.117188 173.058594 712.171875 172.757812 710.144531 C 171.476562 703.53125 170.667969 692.136719 170.667969 673.921875 L 170.667969 264.746094 C 170.667969 246.527344 171.476562 235.136719 172.757812 228.523438 C 173.058594 226.496094 173.769531 224.550781 174.847656 222.804688 C 175.988281 220.511719 177.84375 218.652344 180.136719 217.515625 C 181.882812 216.4375 183.828125 215.722656 185.855469 215.425781 Z M 185.855469 215.425781 "/>
</svg>
