<?xml version="1.0" encoding="UTF-8"?>
<svg xmlns="http://www.w3.org/2000/svg" xmlns:xlink="http://www.w3.org/1999/xlink" width="1024" height="1024" viewBox="0 0 1024 1024">
<path fill-rule="nonzero" fill="rgb(0%, 0%, 0%)" fill-opacity="1" d="M 85.332031 298.667969 C 85.332031 238.933594 85.332031 209.066406 96.9375 186.238281 C 107.167969 166.160156 123.492188 149.832031 143.574219 139.605469 C 166.398438 128 196.265625 128 256 128 L 317.054688 128 C 357.164062 128 377.171875 128 395.347656 133.546875 C 411.445312 138.425781 426.421875 146.429688 439.425781 157.097656 C 454.144531 169.171875 465.238281 185.855469 487.464844 219.179688 L 512 256 L 768 256 C 827.734375 256 857.601562 256 880.425781 267.605469 C 900.492188 277.839844 916.800781 294.164062 927.019531 314.238281 C 938.667969 337.066406 938.667969 366.933594 938.667969 426.667969 L 938.667969 640 C 938.667969 699.734375 938.667969 729.601562 927.019531 752.425781 C 916.792969 772.484375 900.484375 788.792969 880.425781 799.019531 C 857.601562 810.667969 827.734375 810.667969 768 810.667969 L 256 810.667969 C 196.265625 810.667969 166.398438 810.667969 143.574219 799.019531 C 123.5 788.800781 107.175781 772.492188 96.9375 752.425781 C 85.332031 729.601562 85.332031 699.734375 85.332031 640 Z M 85.332031 298.667969 "/>
</svg>
