<?xml version="1.0" encoding="UTF-8"?>
<svg xmlns="http://www.w3.org/2000/svg" xmlns:xlink="http://www.w3.org/1999/xlink" width="1024" height="1024" viewBox="0 0 1024 1024">
<path fill-rule="evenodd" fill="rgb(0%, 0%, 0%)" fill-opacity="1" d="M 768 198.570312 L 768 210.988281 C 740.75 228.054688 715.515625 248.152344 692.777344 270.890625 L 567.167969 396.5 C 551 413.242188 551.230469 439.855469 567.6875 456.3125 C 584.144531 472.769531 610.757812 473 627.5 456.832031 L 752.640625 331.734375 C 775.5 308.851562 795.683594 283.445312 812.800781 256 L 825.429688 256 L 821.589844 272.640625 C 814.324219 304.125 810.660156 336.328125 810.667969 368.640625 L 810.667969 405.207031 C 810.667969 428.769531 829.769531 447.871094 853.332031 447.871094 C 876.898438 447.871094 896 428.769531 896 405.207031 L 896 192.128906 C 896 156.78125 867.347656 128.128906 832 128.128906 L 618.667969 128 C 595.101562 128 576 147.101562 576 170.667969 C 576 194.230469 595.101562 213.332031 618.667969 213.332031 L 655.402344 213.332031 C 687.699219 213.335938 719.890625 209.671875 751.359375 202.410156 Z M 211.199219 768 C 228.316406 740.558594 248.5 715.148438 271.359375 692.265625 L 396.5 567.167969 C 413.242188 551 439.855469 551.230469 456.3125 567.6875 C 472.769531 584.144531 473 610.757812 456.832031 627.5 L 331.222656 753.109375 C 308.484375 775.847656 283.25 795.945312 256 813.011719 L 256 825.429688 L 272.640625 821.589844 C 304.125 814.324219 336.328125 810.660156 368.640625 810.667969 L 405.332031 810.667969 C 428.898438 810.667969 448 829.769531 448 853.332031 C 448 876.898438 428.898438 896 405.332031 896 L 192 895.871094 C 156.652344 895.871094 128 867.21875 128 831.871094 L 128 618.667969 C 128 595.101562 147.101562 576 170.667969 576 C 194.230469 576 213.332031 595.101562 213.332031 618.667969 L 213.332031 655.402344 C 213.335938 687.699219 209.671875 719.890625 202.410156 751.359375 L 198.570312 768 Z M 211.199219 768 "/>
</svg>
