<?xml version="1.0" encoding="UTF-8"?>
<svg xmlns="http://www.w3.org/2000/svg" xmlns:xlink="http://www.w3.org/1999/xlink" width="1024" height="1024" viewBox="0 0 1024 1024">
<path fill-rule="evenodd" fill="rgb(0%, 0%, 0%)" fill-opacity="1" d="M 823.167969 140.5 C 833.878906 129.410156 849.742188 124.960938 864.660156 128.867188 C 879.578125 132.769531 891.230469 144.421875 895.132812 159.339844 C 899.039062 174.257812 894.589844 190.121094 883.5 200.832031 L 757.886719 326.441406 C 735.152344 349.179688 709.917969 369.277344 682.667969 386.347656 L 682.667969 398.761719 L 699.308594 394.921875 C 730.789062 387.660156 762.996094 383.996094 795.308594 384 L 832.042969 384 C 855.605469 384 874.710938 403.101562 874.710938 426.667969 C 874.710938 450.230469 855.605469 469.332031 832.042969 469.332031 L 618.710938 469.207031 C 583.363281 469.207031 554.710938 440.550781 554.710938 405.207031 L 554.710938 192 C 554.710938 168.4375 573.8125 149.332031 597.375 149.332031 C 620.941406 149.332031 640.042969 168.4375 640.042969 192 L 640.042969 228.734375 C 640.042969 261.035156 636.375 293.207031 629.121094 324.691406 L 625.28125 341.332031 L 637.867188 341.332031 C 654.996094 313.886719 675.195312 288.480469 698.070312 265.601562 L 823.210938 140.5 Z M 341.332031 625.195312 L 341.332031 637.652344 C 314.113281 654.71875 288.851562 674.773438 266.113281 697.558594 L 140.5 823.167969 C 129.410156 833.878906 124.960938 849.742188 128.867188 864.660156 C 132.769531 879.578125 144.421875 891.230469 159.339844 895.132812 C 174.257812 899.039062 190.121094 894.589844 200.832031 883.5 L 325.972656 758.398438 C 348.832031 735.515625 369.015625 710.109375 386.132812 682.667969 L 398.761719 682.667969 L 394.921875 699.308594 C 387.660156 730.789062 383.996094 762.996094 384 795.308594 L 384 832.042969 C 384 855.605469 403.101562 874.710938 426.667969 874.710938 C 450.230469 874.710938 469.332031 855.605469 469.332031 832.042969 L 469.332031 618.835938 C 469.332031 583.492188 440.679688 554.835938 405.332031 554.835938 L 192 554.667969 C 168.4375 554.667969 149.332031 573.769531 149.332031 597.332031 C 149.332031 620.898438 168.4375 640 192 640 L 228.734375 640 C 261.035156 640 293.207031 636.332031 324.691406 629.078125 L 341.332031 625.238281 Z M 341.332031 625.195312 "/>
</svg>
