<?xml version="1.0" encoding="UTF-8"?>
<svg xmlns="http://www.w3.org/2000/svg" xmlns:xlink="http://www.w3.org/1999/xlink" width="1024" height="1024" viewBox="0 0 1024 1024">
<path fill-rule="evenodd" fill="rgb(0%, 0%, 0%)" fill-opacity="1" d="M 117.886719 543.019531 L 405.332031 618.667969 L 480.980469 906.113281 C 485.585938 923.65625 500.78125 936.367188 518.859375 937.808594 C 536.9375 939.25 553.953125 929.101562 561.28125 912.511719 L 879.488281 192.339844 C 885.511719 178.644531 882.507812 162.65625 871.925781 152.082031 C 861.339844 141.507812 845.347656 138.519531 831.660156 144.554688 L 111.488281 462.675781 C 94.898438 470.003906 84.75 487.019531 86.191406 505.097656 C 87.632812 523.175781 100.34375 538.371094 117.886719 542.976562 Z M 427.050781 536.148438 L 257.492188 491.519531 L 750.164062 273.792969 L 532.480469 766.507812 L 487.851562 596.949219 C 480.023438 567.207031 456.792969 543.976562 427.050781 536.148438 Z M 427.050781 536.148438 "/>
</svg>
