<?xml version="1.0" encoding="UTF-8"?>
<svg xmlns="http://www.w3.org/2000/svg" xmlns:xlink="http://www.w3.org/1999/xlink" width="1024" height="1024" viewBox="0 0 1024 1024">
<path fill-rule="evenodd" fill="rgb(0%, 0%, 0%)" fill-opacity="1" d="M 213.332031 288 C 254.570312 288 288 254.570312 288 213.332031 C 288 172.097656 254.570312 138.667969 213.332031 138.667969 C 172.097656 138.667969 138.667969 172.097656 138.667969 213.332031 C 138.667969 254.570312 172.097656 288 213.332031 288 Z M 213.332031 885.332031 C 254.570312 885.332031 288 851.902344 288 810.667969 C 288 769.429688 254.570312 736 213.332031 736 C 172.097656 736 138.667969 769.429688 138.667969 810.667969 C 138.667969 851.902344 172.097656 885.332031 213.332031 885.332031 Z M 288 512 C 288 553.238281 254.570312 586.667969 213.332031 586.667969 C 172.097656 586.667969 138.667969 553.238281 138.667969 512 C 138.667969 470.761719 172.097656 437.332031 213.332031 437.332031 C 254.570312 437.332031 288 470.761719 288 512 Z M 512 288 C 553.238281 288 586.667969 254.570312 586.667969 213.332031 C 586.667969 172.097656 553.238281 138.667969 512 138.667969 C 470.761719 138.667969 437.332031 172.097656 437.332031 213.332031 C 437.332031 254.570312 470.761719 288 512 288 Z M 586.667969 810.667969 C 586.667969 851.902344 553.238281 885.332031 512 885.332031 C 470.761719 885.332031 437.332031 851.902344 437.332031 810.667969 C 437.332031 769.429688 470.761719 736 512 736 C 553.238281 736 586.667969 769.429688 586.667969 810.667969 Z M 512 586.667969 C 553.238281 586.667969 586.667969 553.238281 586.667969 512 C 586.667969 470.761719 553.238281 437.332031 512 437.332031 C 470.761719 437.332031 437.332031 470.761719 437.332031 512 C 437.332031 553.238281 470.761719 586.667969 512 586.667969 Z M 885.332031 213.332031 C 885.332031 254.570312 851.902344 288 810.667969 288 C 769.429688 288 736 254.570312 736 213.332031 C 736 172.097656 769.429688 138.667969 810.667969 138.667969 C 851.902344 138.667969 885.332031 172.097656 885.332031 213.332031 Z M 810.667969 885.332031 C 851.902344 885.332031 885.332031 851.902344 885.332031 810.667969 C 885.332031 769.429688 851.902344 736 810.667969 736 C 769.429688 736 736 769.429688 736 810.667969 C 736 851.902344 769.429688 885.332031 810.667969 885.332031 Z M 885.332031 512 C 885.332031 553.238281 851.902344 586.667969 810.667969 586.667969 C 769.429688 586.667969 736 553.238281 736 512 C 736 470.761719 769.429688 437.332031 810.667969 437.332031 C 851.902344 437.332031 885.332031 470.761719 885.332031 512 Z M 885.332031 512 "/>
</svg>
