<?xml version="1.0" encoding="UTF-8"?>
<svg xmlns="http://www.w3.org/2000/svg" xmlns:xlink="http://www.w3.org/1999/xlink" width="1024" height="1024" viewBox="0 0 1024 1024">
<path fill-rule="evenodd" fill="rgb(0%, 0%, 0%)" fill-opacity="1" d="M 234.539062 128.257812 L 426.667969 128.042969 C 437.988281 128.03125 448.851562 132.523438 456.863281 140.523438 C 464.875 148.527344 469.375 159.386719 469.375 170.710938 L 469.375 426.667969 C 469.375 450.230469 450.273438 469.332031 426.710938 469.332031 L 170.667969 469.332031 C 147.101562 469.332031 128 450.230469 128 426.667969 L 128 234.921875 C 128 176.0625 175.679688 128.328125 234.539062 128.257812 Z M 170.667969 555.007812 C 147.121094 555.03125 128.042969 574.128906 128.042969 597.675781 L 128.042969 789.332031 C 128.042969 848.226562 175.773438 895.976562 234.667969 896 L 426.667969 896 C 450.230469 896 469.332031 876.898438 469.332031 853.332031 L 469.332031 597.375 C 469.332031 586.050781 464.832031 575.195312 456.820312 567.191406 C 448.8125 559.1875 437.949219 554.699219 426.625 554.710938 L 170.625 555.007812 Z M 597.332031 555.007812 C 573.785156 555.03125 554.710938 574.128906 554.710938 597.675781 L 554.710938 853.332031 C 554.710938 876.898438 573.8125 896 597.375 896 L 789.375 896 C 848.285156 896 896.042969 848.242188 896.042969 789.332031 L 896.042969 597.375 C 896.042969 586.050781 891.542969 575.195312 883.53125 567.191406 C 875.519531 559.1875 864.65625 554.699219 853.332031 554.710938 Z M 597.332031 128.339844 C 573.785156 128.363281 554.710938 147.460938 554.710938 171.007812 L 554.710938 426.667969 C 554.710938 450.230469 573.8125 469.332031 597.375 469.332031 L 853.375 469.332031 C 876.941406 469.332031 896.042969 450.230469 896.042969 426.667969 L 896.042969 234.792969 C 896.042969 206.484375 884.785156 179.332031 864.753906 159.324219 C 844.722656 139.316406 817.558594 128.09375 789.246094 128.128906 Z M 213.332031 789.332031 C 213.332031 801.117188 222.882812 810.667969 234.667969 810.667969 L 384 810.667969 L 384 640.085938 L 213.332031 640.296875 Z M 789.332031 810.667969 L 640 810.667969 L 640 640.296875 L 810.667969 640.085938 L 810.667969 789.332031 C 810.667969 801.117188 801.117188 810.667969 789.332031 810.667969 Z M 384 384 L 384 213.417969 L 234.667969 213.589844 C 222.882812 213.589844 213.332031 223.140625 213.332031 234.921875 L 213.332031 384 Z M 810.667969 384 L 640 384 L 640 213.632812 L 789.332031 213.460938 C 801.117188 213.460938 810.667969 223.011719 810.667969 234.792969 Z M 810.667969 384 "/>
</svg>
