<?xml version="1.0" encoding="UTF-8"?>
<svg xmlns="http://www.w3.org/2000/svg" xmlns:xlink="http://www.w3.org/1999/xlink" width="1024" height="1024" viewBox="0 0 1024 1024">
<path fill-rule="evenodd" fill="rgb(0%, 0%, 0%)" fill-opacity="1" d="M 234.539062 128.726562 C 175.679688 128.796875 128 176.53125 128 235.390625 L 128 789.332031 C 128 848.242188 175.757812 896 234.667969 896 L 789.332031 896 C 848.242188 896 896 848.242188 896 789.332031 L 896 234.792969 C 896 206.484375 884.746094 179.332031 864.710938 159.324219 C 844.679688 139.316406 817.515625 128.09375 789.207031 128.128906 Z M 213.332031 469.332031 L 213.332031 235.390625 C 213.332031 223.609375 222.882812 214.058594 234.667969 214.058594 L 469.332031 213.800781 L 469.332031 469.332031 Z M 213.332031 554.667969 L 213.332031 789.332031 C 213.332031 801.117188 222.882812 810.667969 234.667969 810.667969 L 469.332031 810.667969 L 469.332031 554.667969 Z M 554.667969 554.667969 L 554.667969 810.667969 L 789.332031 810.667969 C 801.117188 810.667969 810.667969 801.117188 810.667969 789.332031 L 810.667969 554.667969 Z M 810.667969 469.332031 L 810.667969 234.792969 C 810.667969 223.011719 801.117188 213.460938 789.332031 213.460938 L 554.667969 213.71875 L 554.667969 469.332031 Z M 810.667969 469.332031 "/>
</svg>
