<?xml version="1.0" encoding="UTF-8"?>
<svg xmlns="http://www.w3.org/2000/svg" xmlns:xlink="http://www.w3.org/1999/xlink" width="1024" height="1024" viewBox="0 0 1024 1024">
<path fill-rule="evenodd" fill="rgb(0%, 0%, 0%)" fill-opacity="1" d="M 234.539062 128.257812 C 175.679688 128.328125 128 176.0625 128 234.921875 L 128 426.667969 C 128 450.230469 147.101562 469.332031 170.667969 469.332031 L 426.667969 469.332031 C 450.230469 469.332031 469.332031 450.230469 469.332031 426.667969 L 469.332031 170.710938 C 469.332031 159.386719 464.832031 148.527344 456.820312 140.523438 C 448.8125 132.523438 437.949219 128.03125 426.625 128.042969 Z M 128 597.675781 C 128 574.128906 147.078125 555.03125 170.625 555.007812 L 426.625 554.710938 C 437.949219 554.699219 448.8125 559.1875 456.820312 567.191406 C 464.832031 575.195312 469.332031 586.050781 469.332031 597.375 L 469.332031 853.332031 C 469.332031 876.898438 450.230469 896 426.667969 896 L 234.667969 896 C 175.757812 896 128 848.242188 128 789.332031 Z M 554.667969 597.675781 C 554.667969 574.128906 573.742188 555.03125 597.289062 555.007812 L 853.289062 554.710938 C 864.613281 554.699219 875.476562 559.1875 883.488281 567.191406 C 891.5 575.195312 896 586.050781 896 597.375 L 896 789.332031 C 896 848.242188 848.242188 896 789.332031 896 L 597.332031 896 C 573.769531 896 554.667969 876.898438 554.667969 853.332031 Z M 554.667969 171.007812 C 554.667969 147.460938 573.742188 128.363281 597.289062 128.339844 L 789.207031 128.128906 C 817.515625 128.09375 844.679688 139.316406 864.710938 159.324219 C 884.746094 179.332031 896 206.484375 896 234.792969 L 896 426.667969 C 896 450.230469 876.898438 469.332031 853.332031 469.332031 L 597.332031 469.332031 C 573.769531 469.332031 554.667969 450.230469 554.667969 426.667969 Z M 554.667969 171.007812 "/>
</svg>
