<?xml version="1.0" encoding="UTF-8"?>
<svg xmlns="http://www.w3.org/2000/svg" xmlns:xlink="http://www.w3.org/1999/xlink" width="1024" height="1024" viewBox="0 0 1024 1024">
<path fill-rule="evenodd" fill="rgb(0%, 0%, 0%)" fill-opacity="1" d="M 213.332031 128 C 213.332031 104.4375 232.4375 85.332031 256 85.332031 L 768 85.332031 C 791.5625 85.332031 810.667969 104.4375 810.667969 128 C 810.667969 151.5625 791.5625 170.667969 768 170.667969 L 256 170.667969 C 232.4375 170.667969 213.332031 151.5625 213.332031 128 Z M 673.921875 256 L 350.078125 256 C 302.507812 256 285.269531 260.949219 267.902344 270.25 C 250.726562 279.34375 236.679688 293.390625 227.585938 310.570312 C 218.28125 327.9375 213.332031 345.171875 213.332031 392.746094 L 213.332031 631.253906 C 213.332031 678.785156 218.28125 696.0625 227.585938 713.429688 C 236.886719 730.792969 250.539062 744.449219 267.902344 753.75 C 285.269531 763.050781 302.507812 768 350.078125 768 L 673.921875 768 C 721.492188 768 738.730469 763.050781 756.097656 753.75 C 773.460938 744.449219 787.113281 730.792969 796.414062 713.429688 C 805.71875 696.0625 810.667969 678.785156 810.667969 631.253906 L 810.667969 392.746094 C 810.667969 345.171875 805.71875 327.9375 796.414062 310.570312 C 787.320312 293.390625 773.273438 279.34375 756.097656 270.25 C 738.730469 260.949219 721.492188 256 673.921875 256 Z M 313.855469 343.425781 C 320.46875 342.144531 331.863281 341.332031 350.078125 341.332031 L 673.921875 341.332031 C 692.136719 341.332031 703.53125 342.144531 710.144531 343.425781 C 712.703125 343.9375 713.300781 344.148438 715.863281 345.515625 C 718.171875 346.644531 720.042969 348.503906 721.195312 350.804688 C 722.515625 353.367188 722.730469 353.921875 723.242188 356.523438 C 724.523438 363.136719 725.332031 374.527344 725.332031 392.746094 L 725.332031 631.253906 C 725.332031 649.472656 724.523438 660.863281 723.242188 667.476562 C 722.941406 669.503906 722.230469 671.449219 721.152344 673.195312 C 720.011719 675.488281 718.15625 677.347656 715.863281 678.484375 C 714.117188 679.5625 712.171875 680.277344 710.144531 680.574219 C 703.53125 681.855469 692.136719 682.667969 673.921875 682.667969 L 350.078125 682.667969 C 331.863281 682.667969 320.46875 681.855469 313.855469 680.574219 C 311.828125 680.277344 309.882812 679.5625 308.136719 678.484375 C 305.84375 677.347656 303.988281 675.488281 302.847656 673.195312 C 301.769531 671.449219 301.058594 669.503906 300.757812 667.476562 C 299.476562 660.863281 298.667969 649.472656 298.667969 631.253906 L 298.667969 392.746094 C 298.667969 374.527344 299.476562 363.136719 300.757812 356.523438 C 301.058594 354.496094 301.769531 352.550781 302.847656 350.804688 C 303.988281 348.511719 305.84375 346.652344 308.136719 345.515625 C 309.882812 344.4375 311.828125 343.722656 313.855469 343.425781 Z M 256 853.332031 C 232.4375 853.332031 213.332031 872.4375 213.332031 896 C 213.332031 919.5625 232.4375 938.667969 256 938.667969 L 768 938.667969 C 791.5625 938.667969 810.667969 919.5625 810.667969 896 C 810.667969 872.4375 791.5625 853.332031 768 853.332031 Z M 256 853.332031 "/>
</svg>
