<?xml version="1.0" encoding="UTF-8"?>
<svg xmlns="http://www.w3.org/2000/svg" xmlns:xlink="http://www.w3.org/1999/xlink" width="1024" height="1024" viewBox="0 0 1024 1024">
<path fill-rule="evenodd" fill="rgb(0%, 0%, 0%)" fill-opacity="1" d="M 213.332031 128 C 213.332031 104.4375 232.4375 85.332031 256 85.332031 L 768 85.332031 C 791.5625 85.332031 810.667969 104.4375 810.667969 128 C 810.667969 151.5625 791.5625 170.667969 768 170.667969 L 256 170.667969 C 232.4375 170.667969 213.332031 151.5625 213.332031 128 Z M 213.332031 426.667969 C 213.332031 366.933594 213.332031 337.066406 224.9375 314.238281 C 235.167969 294.160156 251.492188 277.832031 271.574219 267.605469 C 294.398438 256 324.265625 256 384 256 L 640 256 C 699.734375 256 729.601562 256 752.425781 267.605469 C 772.492188 277.839844 788.800781 294.164062 799.019531 314.238281 C 810.667969 337.066406 810.667969 366.933594 810.667969 426.667969 L 810.667969 597.332031 C 810.667969 657.066406 810.667969 686.933594 799.019531 709.761719 C 788.792969 729.820312 772.484375 746.128906 752.425781 756.351562 C 729.601562 768 699.734375 768 640 768 L 384 768 C 324.265625 768 294.398438 768 271.574219 756.351562 C 251.5 746.136719 235.175781 729.824219 224.9375 709.761719 C 213.332031 686.933594 213.332031 657.066406 213.332031 597.332031 Z M 256 853.332031 C 232.4375 853.332031 213.332031 872.4375 213.332031 896 C 213.332031 919.5625 232.4375 938.667969 256 938.667969 L 768 938.667969 C 791.5625 938.667969 810.667969 919.5625 810.667969 896 C 810.667969 872.4375 791.5625 853.332031 768 853.332031 Z M 256 853.332031 "/>
</svg>
