<?xml version="1.0" encoding="UTF-8"?>
<svg xmlns="http://www.w3.org/2000/svg" xmlns:xlink="http://www.w3.org/1999/xlink" width="1024" height="1024" viewBox="0 0 1024 1024">
<path fill-rule="nonzero" fill="rgb(0%, 0%, 0%)" fill-opacity="1" d="M 512 213.332031 C 347.050781 213.332031 213.332031 347.050781 213.332031 512 L 213.332031 554.667969 L 302.078125 554.667969 C 330.667969 554.667969 344.746094 554.667969 355.839844 560.214844 C 365.652344 565.332031 373.332031 573.011719 378.453125 582.828125 C 384 593.492188 384 608 384 636.585938 L 384 814.078125 C 384 842.667969 384 856.746094 378.453125 867.839844 C 373.332031 877.652344 365.652344 885.332031 355.839844 890.453125 C 345.171875 896 330.667969 896 302.078125 896 L 264.535156 896 C 216.746094 896 192.851562 896 174.933594 886.613281 C 158.808594 878.519531 145.664062 865.523438 137.386719 849.492188 C 128.851562 832 128 810.238281 128 768 L 128 512 C 128 299.921875 299.921875 128 512 128 C 724.078125 128 896 299.921875 896 512 L 896 768 C 896 810.238281 895.574219 832 886.613281 849.066406 C 878.519531 865.191406 865.523438 878.335938 849.492188 886.613281 C 831.148438 896 807.253906 896 759.464844 896 L 721.921875 896 C 693.332031 896 679.253906 896 668.160156 890.453125 C 658.402344 885.523438 650.476562 877.597656 645.546875 867.839844 C 640 857.171875 640 842.667969 640 814.078125 L 640 636.585938 C 640 608 640 593.921875 645.546875 582.828125 C 650.667969 573.011719 658.347656 565.332031 668.160156 560.214844 C 678.828125 554.667969 693.332031 554.667969 721.921875 554.667969 L 810.667969 554.667969 L 810.667969 512 C 810.667969 347.050781 676.949219 213.332031 512 213.332031 Z M 512 213.332031 "/>
</svg>
