<?xml version="1.0" encoding="UTF-8"?>
<svg xmlns="http://www.w3.org/2000/svg" xmlns:xlink="http://www.w3.org/1999/xlink" width="1024" height="1024" viewBox="0 0 1024 1024">
<path fill-rule="evenodd" fill="rgb(0%, 0%, 0%)" fill-opacity="1" d="M 533.71875 890.027344 C 801.28125 731.902344 938.667969 564.054688 938.667969 384 C 938.667969 127.914062 650.710938 47.359375 512 217.683594 C 373.289062 47.402344 85.332031 127.914062 85.332031 384 C 85.332031 564.054688 222.675781 731.863281 490.28125 890.027344 C 503.675781 897.949219 520.324219 897.949219 533.71875 890.027344 Z M 550.871094 316.246094 C 626.21875 149.761719 853.332031 193.792969 853.332031 384 C 853.332031 522.792969 741.71875 663.464844 512 803.585938 C 282.324219 663.425781 170.667969 522.835938 170.667969 384 C 170.667969 193.75 397.78125 149.761719 473.128906 316.246094 C 488.277344 349.695312 535.722656 349.695312 550.871094 316.246094 Z M 550.871094 316.246094 "/>
</svg>
