<?xml version="1.0" encoding="UTF-8"?>
<svg xmlns="http://www.w3.org/2000/svg" xmlns:xlink="http://www.w3.org/1999/xlink" width="1024" height="1024" viewBox="0 0 1024 1024">
<path fill-rule="nonzero" fill="rgb(0%, 0%, 0%)" fill-opacity="1" d="M 512 938.667969 C 276.351562 938.667969 85.332031 747.648438 85.332031 512 C 85.332031 276.351562 276.351562 85.332031 512 85.332031 C 747.648438 85.332031 938.667969 276.351562 938.667969 512 C 938.667969 747.648438 747.648438 938.667969 512 938.667969 Z M 337.921875 393.984375 L 337.921875 398.335938 C 337.921875 410.117188 347.472656 419.667969 359.253906 419.667969 L 401.792969 419.667969 C 413.550781 419.667969 423.082031 410.136719 423.082031 398.378906 C 423.082031 343.339844 465.664062 313.941406 522.921875 313.941406 C 578.730469 313.941406 615.425781 343.339844 615.425781 385.195312 C 615.425781 424.789062 594.859375 443.179688 543.488281 466.6875 L 528.8125 473.257812 C 485.503906 492.375 469.332031 520.960938 469.332031 570.921875 L 469.332031 576 C 469.332031 587.78125 478.882812 597.332031 490.667969 597.332031 L 533.207031 597.332031 C 544.964844 597.332031 554.496094 587.800781 554.496094 576.042969 C 554.496094 554.027344 560.382812 545.195312 577.960938 537.128906 L 592.683594 530.515625 C 654.335938 502.613281 700.585938 465.921875 700.585938 385.878906 L 700.585938 381.484375 C 700.585938 297.089844 627.199219 234.667969 522.921875 234.667969 C 417.195312 234.667969 337.921875 295.59375 337.921875 393.984375 Z M 448 724.949219 C 448 761.941406 476.117188 789.332031 511.617188 789.332031 C 547.882812 789.332031 576 761.941406 576 724.949219 C 576 687.957031 547.882812 661.332031 511.617188 661.332031 C 476.117188 661.332031 448 687.957031 448 724.949219 Z M 448 724.949219 "/>
</svg>
