<?xml version="1.0" encoding="UTF-8"?>
<svg xmlns="http://www.w3.org/2000/svg" xmlns:xlink="http://www.w3.org/1999/xlink" width="1024" height="1024" viewBox="0 0 1024 1024">
<path fill-rule="evenodd" fill="rgb(0%, 0%, 0%)" fill-opacity="1" d="M 938.667969 512 C 938.667969 747.648438 747.648438 938.667969 512 938.667969 C 276.351562 938.667969 85.332031 747.648438 85.332031 512 C 85.332031 276.351562 276.351562 85.332031 512 85.332031 C 747.648438 85.332031 938.667969 276.351562 938.667969 512 Z M 853.332031 512 C 853.332031 700.511719 700.511719 853.332031 512 853.332031 C 323.488281 853.332031 170.667969 700.511719 170.667969 512 C 170.667969 323.488281 323.488281 170.667969 512 170.667969 C 700.511719 170.667969 853.332031 323.488281 853.332031 512 Z M 458.667969 693.035156 C 458.667969 662.1875 482.132812 640 511.703125 640 C 541.910156 640 565.332031 662.1875 565.332031 693.035156 C 565.332031 723.839844 541.867188 746.667969 511.703125 746.667969 C 497.476562 746.84375 483.792969 741.230469 473.792969 731.117188 C 463.789062 721.003906 458.328125 707.253906 458.667969 693.035156 Z M 521.601562 277.332031 C 429.566406 277.332031 360.535156 330.367188 360.535156 416 L 360.535156 417.066406 C 360.535156 428.847656 370.085938 438.398438 381.867188 438.398438 L 416.128906 438.398438 C 426.367188 438.398438 434.6875 430.078125 434.6875 419.839844 C 434.6875 371.925781 471.722656 346.367188 521.601562 346.367188 C 570.15625 346.367188 602.113281 371.925781 602.113281 408.363281 C 602.113281 442.878906 584.191406 458.835938 539.476562 479.316406 L 526.675781 485.035156 C 489.003906 501.675781 474.921875 526.59375 474.921875 570.070312 L 474.921875 576 C 474.921875 587.78125 484.472656 597.332031 496.257812 597.332031 L 527.742188 597.332031 C 539.527344 597.332031 549.078125 587.78125 549.078125 576 L 549.078125 574.550781 C 549.078125 555.347656 554.199219 547.667969 569.558594 540.671875 L 582.316406 534.910156 C 635.988281 510.59375 676.265625 478.675781 676.265625 409.003906 L 676.265625 405.164062 C 676.265625 331.648438 612.351562 277.332031 521.601562 277.332031 Z M 521.601562 277.332031 "/>
</svg>
