<?xml version="1.0" encoding="UTF-8"?>
<svg xmlns="http://www.w3.org/2000/svg" xmlns:xlink="http://www.w3.org/1999/xlink" width="1024" height="1024" viewBox="0 0 1024 1024">
<path fill-rule="evenodd" fill="rgb(0%, 0%, 0%)" fill-opacity="1" d="M 759.253906 896 L 264.746094 896 C 217.171875 896 199.9375 891.050781 182.570312 881.75 C 165.390625 872.65625 151.34375 858.609375 142.25 841.429688 C 132.949219 824.0625 128 806.828125 128 759.253906 L 128 264.746094 C 128 217.171875 132.949219 199.9375 142.25 182.570312 C 151.550781 165.207031 165.207031 151.550781 182.570312 142.25 C 199.9375 132.949219 217.171875 128 264.746094 128 L 759.253906 128 C 806.785156 128 824.0625 132.949219 841.429688 142.25 C 858.792969 151.550781 872.449219 165.207031 881.75 182.570312 C 891.050781 199.9375 896 217.171875 896 264.746094 L 896 759.253906 C 896 806.785156 891.050781 824.0625 881.75 841.429688 C 872.65625 858.609375 858.609375 872.65625 841.429688 881.75 C 824.0625 891.050781 806.828125 896 759.253906 896 Z M 384 810.667969 L 229.417969 810.667969 L 351.914062 644.394531 L 449.960938 707.414062 C 479.347656 726.292969 518.441406 718.128906 537.8125 689.066406 L 669.652344 491.347656 L 810.667969 616.703125 L 810.667969 810.667969 Z M 213.332031 682.667969 C 213.332031 691.96875 212.820312 703.574219 211.96875 716.074219 C 227.839844 682.921875 251.648438 637.566406 275.542969 604.289062 L 295.125 577.664062 C 315.152344 550.5 352.832031 543.554688 381.226562 561.792969 L 478.421875 624.296875 L 612.222656 423.59375 C 622.488281 408.175781 638.929688 397.960938 657.296875 395.589844 C 675.667969 393.214844 694.164062 398.917969 708.011719 411.222656 L 810.667969 502.570312 L 810.667969 264.746094 C 810.667969 246.527344 809.855469 235.136719 808.574219 228.523438 C 808.277344 226.496094 807.5625 224.550781 806.484375 222.804688 C 805.347656 220.511719 803.488281 218.652344 801.195312 217.515625 C 799.449219 216.4375 797.503906 215.722656 795.476562 215.425781 C 788.863281 214.144531 777.472656 213.332031 759.253906 213.332031 L 264.746094 213.332031 C 246.527344 213.332031 235.136719 214.144531 228.523438 215.425781 C 226.496094 215.722656 224.550781 216.4375 222.804688 217.515625 C 220.511719 218.652344 218.652344 220.511719 217.515625 222.804688 C 216.4375 224.550781 215.722656 226.496094 215.425781 228.523438 C 214.144531 235.136719 213.332031 246.527344 213.332031 264.746094 Z M 372.90625 298.667969 C 331.476562 298.667969 298.667969 329.726562 298.667969 372.90625 C 298.667969 416.042969 331.476562 448 372.90625 448 C 415.1875 448 448 416.042969 448 372.90625 C 448 329.726562 415.1875 298.667969 372.90625 298.667969 Z M 372.90625 298.667969 "/>
</svg>
