<?xml version="1.0" encoding="UTF-8"?>
<svg xmlns="http://www.w3.org/2000/svg" xmlns:xlink="http://www.w3.org/1999/xlink" width="1024" height="1024" viewBox="0 0 1024 1024">
<path fill-rule="evenodd" fill="rgb(0%, 0%, 0%)" fill-opacity="1" d="M 264.746094 128 L 759.253906 128 C 806.785156 128 824.0625 132.949219 841.429688 142.25 C 858.792969 151.550781 872.449219 165.207031 881.75 182.570312 C 891.050781 199.9375 896 217.171875 896 264.746094 L 896 585.171875 L 708.652344 412.246094 C 694.890625 399.550781 676.265625 393.515625 657.675781 395.730469 C 639.085938 397.949219 622.398438 408.191406 612.011719 423.765625 L 478.464844 624.085938 L 380.203125 560.9375 C 353.101562 543.527344 317.277344 548.972656 296.574219 573.652344 L 128.214844 774.398438 C 128.074219 769.351562 128.003906 764.304688 128 759.253906 L 128 264.746094 C 128 217.171875 132.949219 199.9375 142.25 182.570312 C 151.550781 165.207031 165.207031 151.550781 182.570312 142.25 C 199.9375 132.949219 217.171875 128 264.746094 128 Z M 669.097656 491.945312 L 896 701.3125 L 896 759.210938 C 896 806.742188 891.050781 824.019531 881.75 841.386719 C 872.65625 858.566406 858.609375 872.613281 841.429688 881.707031 C 824.0625 891.007812 806.828125 895.957031 759.253906 895.957031 L 264.746094 895.957031 C 217.171875 895.957031 199.9375 891.007812 182.570312 881.707031 C 175.066406 877.714844 168.109375 872.765625 161.878906 866.988281 L 349.867188 642.859375 L 449.960938 707.199219 C 479.347656 726.082031 518.441406 717.914062 537.8125 688.851562 L 669.097656 491.902344 Z M 340.820312 256 C 293.460938 256 256 291.5 256 340.820312 C 256 390.1875 293.503906 426.667969 340.820312 426.667969 C 389.164062 426.667969 426.667969 390.1875 426.667969 340.820312 C 426.667969 291.5 389.164062 256 340.820312 256 Z M 340.820312 256 "/>
</svg>
