<?xml version="1.0" encoding="UTF-8"?>
<svg xmlns="http://www.w3.org/2000/svg" xmlns:xlink="http://www.w3.org/1999/xlink" width="1024" height="1024" viewBox="0 0 1024 1024">
<path fill-rule="evenodd" fill="rgb(0%, 0%, 0%)" fill-opacity="1" d="M 264.746094 128 L 759.253906 128 C 806.785156 128 824.0625 132.949219 841.429688 142.25 C 858.792969 151.550781 872.449219 165.207031 881.75 182.570312 C 891.050781 199.9375 896 217.171875 896 264.746094 L 896 759.253906 C 896 806.785156 891.050781 824.0625 881.75 841.429688 C 872.65625 858.609375 858.609375 872.65625 841.429688 881.75 C 824.0625 891.050781 806.828125 896 759.253906 896 L 264.746094 896 C 217.171875 896 199.9375 891.050781 182.570312 881.75 C 165.390625 872.65625 151.34375 858.609375 142.25 841.429688 C 132.949219 824.0625 128 806.828125 128 759.253906 L 128 264.746094 C 128 217.171875 132.949219 199.9375 142.25 182.570312 C 151.550781 165.207031 165.207031 151.550781 182.570312 142.25 C 199.9375 132.949219 217.171875 128 264.746094 128 Z M 264.746094 213.332031 C 246.527344 213.332031 235.136719 214.144531 228.523438 215.425781 C 226.496094 215.722656 224.550781 216.4375 222.804688 217.515625 C 220.511719 218.652344 218.652344 220.511719 217.515625 222.804688 C 216.4375 224.550781 215.722656 226.496094 215.425781 228.523438 C 214.144531 235.136719 213.332031 246.527344 213.332031 264.746094 L 213.332031 640 L 358.953125 640 C 372.652344 640 384.851562 648.746094 391.125 660.90625 C 407.125 691.96875 444.800781 746.667969 512 746.667969 C 579.199219 746.667969 616.875 691.96875 632.875 660.90625 C 639.148438 648.746094 651.347656 640 665.046875 640 L 810.667969 640 L 810.667969 264.746094 C 810.667969 246.527344 809.855469 235.136719 808.574219 228.523438 C 808.277344 226.496094 807.5625 224.550781 806.484375 222.804688 C 805.347656 220.511719 803.488281 218.652344 801.195312 217.515625 C 799.449219 216.4375 797.503906 215.722656 795.476562 215.425781 C 788.863281 214.144531 777.472656 213.332031 759.253906 213.332031 Z M 264.746094 213.332031 "/>
</svg>
