<?xml version="1.0" encoding="UTF-8"?>
<svg xmlns="http://www.w3.org/2000/svg" xmlns:xlink="http://www.w3.org/1999/xlink" width="1024" height="1024" viewBox="0 0 1024 1024">
<path fill-rule="nonzero" fill="rgb(0%, 0%, 0%)" fill-opacity="1" d="M 512 938.667969 C 276.351562 938.667969 85.332031 747.648438 85.332031 512 C 85.332031 276.351562 276.351562 85.332031 512 85.332031 C 747.648438 85.332031 938.667969 276.351562 938.667969 512 C 938.667969 747.648438 747.648438 938.667969 512 938.667969 Z M 482.304688 787.882812 C 509.183594 787.882812 539.136719 775.59375 576 725.675781 L 614.871094 673.621094 C 617.164062 670.546875 618.125 666.675781 617.53125 662.886719 C 616.933594 659.097656 614.839844 655.707031 611.710938 653.484375 C 604.933594 648.695312 595.632812 649.800781 590.164062 656.042969 L 527.230469 727.679688 C 524.261719 731.058594 519.4375 732.113281 515.328125 730.28125 C 511.316406 728.519531 509.152344 724.125 510.207031 719.871094 L 589.484375 402.175781 C 591.261719 395.140625 589.335938 387.679688 584.371094 382.386719 C 579.40625 377.09375 572.085938 374.695312 564.949219 376.019531 L 422.015625 402.175781 C 416.277344 403.230469 411.679688 407.527344 410.238281 413.183594 L 406.570312 427.433594 C 405.75 430.632812 406.460938 434.03125 408.488281 436.632812 C 410.515625 439.238281 413.636719 440.757812 416.9375 440.746094 L 490.753906 440.746094 L 427.777344 693.417969 C 425.472656 703.402344 421.632812 720.296875 421.632812 732.585938 C 421.632812 761.003906 438.527344 787.882812 482.304688 787.882812 Z M 560.382812 338.347656 C 590.335938 338.347656 613.375 320.683594 619.519531 293.800781 C 621.054688 287.660156 621.824219 280.746094 621.824219 276.136719 C 621.824219 254.632812 604.929688 234.667969 573.441406 234.667969 C 543.488281 234.667969 520.449219 252.332031 514.304688 279.210938 C 512.878906 284.992188 512.105469 290.917969 512 296.875 C 512 318.378906 528.894531 338.347656 560.382812 338.347656 Z M 560.382812 338.347656 "/>
</svg>
