<?xml version="1.0" encoding="UTF-8"?>
<svg xmlns="http://www.w3.org/2000/svg" xmlns:xlink="http://www.w3.org/1999/xlink" width="1024" height="1024" viewBox="0 0 1024 1024">
<path fill-rule="evenodd" fill="rgb(0%, 0%, 0%)" fill-opacity="1" d="M 938.667969 512 C 938.667969 747.648438 747.648438 938.667969 512 938.667969 C 276.351562 938.667969 85.332031 747.648438 85.332031 512 C 85.332031 276.351562 276.351562 85.332031 512 85.332031 C 747.648438 85.332031 938.667969 276.351562 938.667969 512 Z M 853.332031 512 C 853.332031 700.511719 700.511719 853.332031 512 853.332031 C 323.488281 853.332031 170.667969 700.511719 170.667969 512 C 170.667969 323.488281 323.488281 170.667969 512 170.667969 C 700.511719 170.667969 853.332031 323.488281 853.332031 512 Z M 489.046875 746.835938 C 445.3125 746.835938 430.933594 720.042969 430.933594 695.210938 C 430.933594 684.800781 434.21875 669.140625 436.820312 660.011719 L 482.476562 463.230469 L 429.011719 463.230469 C 425.761719 463.226562 422.6875 461.738281 420.667969 459.183594 C 418.648438 456.632812 417.902344 453.300781 418.644531 450.132812 L 421.886719 436.265625 C 423.25 430.445312 427.949219 426 433.835938 424.960938 L 554.921875 403.625 C 561.992188 402.382812 569.214844 404.78125 574.140625 410.007812 C 579.0625 415.230469 581.03125 422.582031 579.371094 429.566406 L 517.972656 684.800781 C 517.089844 688.457031 518.855469 692.238281 522.222656 693.910156 C 525.59375 695.585938 529.671875 694.707031 532.054688 691.796875 L 581.761719 630.996094 C 586.46875 625.46875 594.664062 624.554688 600.472656 628.917969 C 606.277344 633.277344 607.6875 641.40625 603.691406 647.464844 L 573.824219 690.6875 C 542.507812 736.339844 513.792969 746.835938 489.003906 746.835938 Z M 503.464844 326.058594 C 503.464844 347.605469 520.449219 365.867188 550.484375 365.867188 C 579.839844 365.867188 601.386719 349.566406 607.914062 323.457031 C 609.195312 318.207031 609.878906 312.363281 609.878906 307.753906 C 609.878906 286.207031 592.894531 267.945312 562.859375 267.945312 C 534.144531 267.945312 511.957031 284.246094 505.429688 310.355469 C 504.148438 315.605469 503.464844 321.449219 503.464844 326.058594 Z M 503.464844 326.058594 "/>
</svg>
