<?xml version="1.0" encoding="UTF-8"?>
<svg xmlns="http://www.w3.org/2000/svg" xmlns:xlink="http://www.w3.org/1999/xlink" width="1024" height="1024" viewBox="0 0 1024 1024">
<path fill-rule="evenodd" fill="rgb(0%, 0%, 0%)" fill-opacity="1" d="M 853.332031 597.332031 C 829.769531 597.332031 810.667969 616.4375 810.667969 640 L 810.667969 771.285156 C 810.667969 790.871094 809.726562 795.605469 807.167969 800.46875 C 805.691406 803.347656 803.347656 805.691406 800.46875 807.167969 C 795.648438 809.726562 790.871094 810.667969 771.285156 810.667969 L 252.714844 810.667969 C 233.128906 810.667969 228.351562 809.726562 223.53125 807.167969 C 220.652344 805.691406 218.308594 803.347656 216.832031 800.46875 C 214.273438 795.648438 213.332031 790.871094 213.332031 771.285156 L 213.289062 234.667969 C 213.289062 222.882812 222.84375 213.332031 234.625 213.332031 L 383.957031 213.546875 C 407.519531 213.570312 426.644531 194.488281 426.667969 170.921875 C 426.691406 147.359375 407.605469 128.238281 384.042969 128.214844 L 234.710938 128 C 175.765625 127.953125 127.957031 175.722656 127.957031 234.667969 L 127.957031 771.285156 C 127.957031 803.710938 131.5 821.84375 141.609375 840.703125 C 151.125 858.582031 165.417969 872.832031 183.296875 882.390625 C 202.15625 892.5 220.246094 896 252.714844 896 L 771.285156 896 C 803.710938 896 821.84375 892.5 840.703125 882.390625 C 858.582031 872.832031 872.832031 858.582031 882.390625 840.703125 C 892.5 821.84375 896 803.753906 896 771.285156 L 896 640 C 896 616.4375 876.898438 597.332031 853.332031 597.332031 Z M 768 210.988281 L 768 198.570312 L 751.359375 202.410156 C 719.875 209.675781 687.671875 213.339844 655.359375 213.332031 L 597.332031 213.332031 C 573.769531 213.332031 554.667969 194.230469 554.667969 170.667969 C 554.667969 147.101562 573.769531 128 597.332031 128 L 832 128.128906 C 867.347656 128.128906 896 156.78125 896 192.128906 L 896 426.667969 C 896 450.230469 876.898438 469.332031 853.332031 469.332031 C 829.769531 469.332031 810.667969 450.230469 810.667969 426.667969 L 810.667969 368.597656 C 810.667969 336.296875 814.335938 304.128906 821.589844 272.640625 L 825.429688 256 L 812.84375 256 C 795.710938 283.445312 775.515625 308.851562 752.640625 331.734375 L 499.5 584.832031 C 482.757812 601 456.144531 600.769531 439.6875 584.3125 C 423.230469 567.855469 423 541.242188 439.167969 524.5 L 692.777344 270.890625 C 715.515625 248.152344 740.75 228.054688 768 210.988281 Z M 768 210.988281 "/>
</svg>
