<?xml version="1.0" encoding="UTF-8"?>
<svg xmlns="http://www.w3.org/2000/svg" xmlns:xlink="http://www.w3.org/1999/xlink" width="1024" height="1024" viewBox="0 0 1024 1024">
<path fill-rule="evenodd" fill="rgb(0%, 0%, 0%)" fill-opacity="1" d="M 224 85.332031 C 294.816406 85.3125 359.167969 126.519531 388.777344 190.847656 C 428.472656 177.433594 470.097656 170.617188 512 170.667969 C 555.09375 170.667969 596.566406 177.75 635.222656 190.847656 C 668.847656 117.917969 746.4375 75.789062 825.917969 87.316406 C 905.394531 98.839844 967.828125 161.269531 979.351562 240.75 C 990.875 320.226562 948.75 397.820312 875.820312 431.445312 C 888.917969 470.101562 896 511.574219 896 554.667969 C 895.851562 706.816406 805.886719 844.527344 666.617188 905.792969 C 527.34375 967.054688 365.039062 940.308594 252.785156 837.601562 C 140.53125 734.894531 99.503906 575.597656 148.179688 431.445312 C 70.722656 395.863281 28.503906 311.132812 46.742188 227.863281 C 64.984375 144.597656 138.757812 85.273438 224 85.332031 Z M 512 853.332031 C 618.027344 853.332031 704 788.691406 704 682.667969 C 704 576.640625 618.027344 469.332031 512 469.332031 C 405.972656 469.332031 320 576.640625 320 682.667969 C 320 788.691406 405.972656 853.332031 512 853.332031 Z M 392.535156 392.535156 C 392.535156 420.808594 369.609375 443.734375 341.332031 443.734375 C 313.054688 443.734375 290.132812 420.808594 290.132812 392.535156 C 290.132812 364.257812 313.054688 341.332031 341.332031 341.332031 C 369.609375 341.332031 392.535156 364.257812 392.535156 392.535156 Z M 682.667969 443.734375 C 710.945312 443.734375 733.867188 420.808594 733.867188 392.535156 C 733.867188 364.257812 710.945312 341.332031 682.667969 341.332031 C 654.390625 341.332031 631.464844 364.257812 631.464844 392.535156 C 631.464844 420.808594 654.390625 443.734375 682.667969 443.734375 Z M 586.667969 597.332031 C 586.667969 620.886719 553.214844 661.332031 512 661.332031 C 470.785156 661.332031 437.332031 620.886719 437.332031 597.332031 C 437.332031 573.78125 470.785156 554.667969 512 554.667969 C 553.214844 554.667969 586.667969 573.78125 586.667969 597.332031 Z M 586.667969 597.332031 "/>
</svg>
