<?xml version="1.0" encoding="UTF-8"?>
<svg xmlns="http://www.w3.org/2000/svg" xmlns:xlink="http://www.w3.org/1999/xlink" width="1024" height="1024" viewBox="0 0 1024 1024">
<path fill-rule="evenodd" fill="rgb(0%, 0%, 0%)" fill-opacity="1" d="M 678.398438 192 C 678.398438 128 615.167969 85.332031 565.761719 85.332031 C 531.371094 85.332031 528.683594 111.445312 523.390625 162.988281 C 521.046875 185.601562 518.230469 213.078125 512 245.332031 C 495.53125 330.753906 438.613281 439.894531 384.171875 472.535156 L 384.171875 725.332031 C 384 821.332031 416 853.332031 554.667969 853.332031 L 715.648438 853.332031 C 808.492188 853.332031 830.976562 792.191406 839.339844 769.535156 L 839.894531 768 C 844.757812 754.945312 855.167969 744.660156 867.113281 733.011719 C 880.339844 719.957031 895.445312 705.152344 906.667969 682.667969 C 919.9375 656.085938 918.1875 632.449219 916.609375 611.414062 C 915.625 598.65625 914.730469 586.878906 917.332031 576 C 920.0625 564.480469 923.5625 555.734375 926.933594 547.371094 C 933.035156 532.179688 938.667969 518.101562 938.667969 490.667969 C 938.667969 426.667969 906.753906 384.085938 839.894531 384.085938 L 661.332031 384.085938 C 661.332031 384.085938 678.398438 256 678.398438 192 Z M 234.667969 426.667969 C 199.320312 426.667969 170.667969 455.320312 170.667969 490.667969 L 170.667969 789.332031 C 170.667969 824.679688 199.320312 853.332031 234.667969 853.332031 C 270.011719 853.332031 298.667969 824.679688 298.667969 789.332031 L 298.667969 490.667969 C 298.667969 455.320312 270.011719 426.667969 234.667969 426.667969 Z M 234.667969 426.667969 "/>
</svg>
