<?xml version="1.0" encoding="UTF-8"?>
<svg xmlns="http://www.w3.org/2000/svg" xmlns:xlink="http://www.w3.org/1999/xlink" width="1024" height="1024" viewBox="0 0 1024 1024">
<path fill-rule="evenodd" fill="rgb(0%, 0%, 0%)" fill-opacity="1" d="M 938.667969 490.667969 C 938.667969 401.195312 886.273438 341.417969 797.226562 341.417969 L 672.726562 341.417969 C 676.523438 302.207031 678.398438 266.667969 678.398438 234.667969 C 678.398438 150.910156 601.171875 85.332031 523.09375 85.332031 C 462.761719 85.332031 445.867188 119.894531 435.667969 199.808594 C 435.5 201.257812 431.660156 232.320312 430.335938 242.261719 C 427.988281 259.625 425.558594 275.113281 422.570312 290.601562 C 410.921875 350.933594 380.375 416.214844 348.886719 454.484375 C 342.96875 449.199219 336.4375 444.644531 329.429688 440.917969 C 312.0625 431.617188 291.753906 426.667969 262.527344 426.667969 L 249.472656 426.667969 C 220.246094 426.667969 199.980469 431.617188 182.570312 440.917969 C 165.390625 450.011719 151.34375 464.058594 142.25 481.238281 C 132.949219 498.601562 128 518.910156 128 548.136719 L 128 774.527344 C 128 803.753906 132.949219 824.019531 142.25 841.429688 C 151.550781 858.792969 165.207031 872.449219 182.570312 881.75 C 199.9375 891.050781 220.246094 896 249.472656 896 L 262.527344 896 C 291.753906 896 312.019531 891.050781 329.429688 881.75 C 339.457031 876.375 348.246094 869.546875 355.667969 861.398438 C 385.40625 883.796875 427.347656 896 483.03125 896 L 672.980469 896 C 736.382812 896 782.421875 872.40625 811.777344 832.554688 C 823.894531 816.171875 829.140625 804.734375 837.246094 782.804688 C 839.027344 779.398438 841.363281 776.308594 844.160156 773.675781 C 845.269531 772.480469 848.851562 768.894531 853.035156 764.714844 C 858.792969 758.996094 865.664062 752.128906 868.777344 748.800781 C 882.558594 734.039062 893.355469 719.359375 902.144531 701.738281 C 917.375 671.316406 919.464844 648.0625 916.523438 609.023438 C 915.414062 594.089844 915.371094 589.226562 916.179688 585.898438 C 917.632812 579.710938 919.382812 574.59375 922.453125 566.828125 L 925.269531 559.742188 C 934.65625 536.191406 938.667969 518.316406 938.667969 490.667969 Z M 514.902344 253.652344 C 516.351562 242.945312 520.40625 210.21875 520.320312 210.601562 C 522.964844 189.996094 525.183594 177.835938 527.488281 170.835938 C 559.914062 173.355469 593.066406 202.835938 593.066406 234.667969 C 593.066406 275.414062 589.652344 323.5 582.742188 378.792969 C 581.222656 390.9375 584.992188 403.144531 593.089844 412.316406 C 601.183594 421.492188 612.832031 426.75 625.066406 426.753906 L 797.226562 426.753906 C 836.480469 426.753906 853.332031 445.996094 853.332031 490.667969 C 853.332031 506.453125 851.625 514.003906 845.953125 528.257812 L 843.136719 535.382812 C 839.023438 545.347656 835.683594 555.621094 833.152344 566.101562 C 829.566406 581.289062 829.609375 591.105469 831.445312 615.425781 C 833.324219 640.257812 832.382812 650.496094 825.855469 663.59375 C 820.765625 673.472656 814.21875 682.535156 806.441406 690.476562 C 804.734375 692.351562 800.128906 696.960938 795.265625 701.824219 C 789.761719 707.285156 783.957031 713.089844 781.652344 715.5625 C 770.304688 727.765625 762.410156 739.199219 757.207031 753.195312 C 751.742188 767.914062 749.011719 773.929688 743.125 781.953125 C 729.726562 800.085938 709.078125 810.667969 672.980469 810.667969 L 482.988281 810.667969 C 404.777344 810.667969 384.128906 786.433594 384.128906 725.332031 L 384.128906 539.734375 C 440.019531 492.628906 489.003906 396.542969 506.324219 306.773438 C 509.609375 289.492188 512.296875 272.511719 514.859375 253.652344 Z M 222.804688 516.136719 C 227.753906 513.535156 234.667969 512 249.472656 512 L 262.527344 512 C 277.332031 512 284.246094 513.535156 289.195312 516.179688 C 291.488281 517.320312 293.347656 519.179688 294.484375 521.472656 C 297.128906 526.421875 298.667969 533.289062 298.667969 548.136719 L 298.667969 774.527344 C 298.667969 789.375 297.128906 796.246094 294.484375 801.195312 C 293.355469 803.503906 291.496094 805.378906 289.195312 806.527344 C 284.246094 809.128906 277.332031 810.667969 262.527344 810.667969 L 249.472656 810.667969 C 234.667969 810.667969 227.753906 809.128906 222.804688 806.484375 C 220.511719 805.347656 218.652344 803.488281 217.515625 801.195312 C 214.871094 796.246094 213.332031 789.332031 213.332031 774.527344 L 213.332031 548.136719 C 213.332031 533.289062 214.871094 526.421875 217.515625 521.472656 C 218.652344 519.179688 220.511719 517.320312 222.804688 516.179688 Z M 222.804688 516.136719 "/>
</svg>
