<?xml version="1.0" encoding="UTF-8"?>
<svg xmlns="http://www.w3.org/2000/svg" xmlns:xlink="http://www.w3.org/1999/xlink" width="1024" height="1024" viewBox="0 0 1024 1024">
<path fill-rule="evenodd" fill="rgb(0%, 0%, 0%)" fill-opacity="1" d="M 468.265625 619.09375 C 485.765625 601.597656 485.765625 573.230469 468.265625 555.734375 C 419.109375 506.578125 419.109375 426.882812 468.265625 377.726562 L 619.136719 226.902344 C 668.289062 177.746094 747.988281 177.746094 797.140625 226.902344 C 846.296875 276.054688 846.296875 355.75 797.140625 404.90625 L 750.507812 451.5 C 733.011719 468.996094 733.011719 497.363281 750.507812 514.859375 C 768.003906 532.355469 796.371094 532.355469 813.867188 514.859375 L 860.5 468.265625 C 944.648438 384.117188 944.648438 247.6875 860.5 163.542969 C 776.355469 79.394531 639.921875 79.394531 555.777344 163.542969 L 404.90625 314.367188 C 320.753906 398.515625 320.753906 534.949219 404.90625 619.09375 C 422.398438 636.585938 450.773438 636.585938 468.265625 619.09375 Z M 555.734375 404.90625 C 538.234375 422.402344 538.234375 450.769531 555.734375 468.265625 C 604.890625 517.421875 604.890625 597.117188 555.734375 646.273438 L 406.398438 795.605469 C 374.757812 828.160156 328.039062 841.152344 284.132812 829.609375 C 240.226562 818.0625 205.9375 783.769531 194.40625 739.859375 C 182.871094 695.953125 195.875 649.234375 228.4375 617.601562 L 272.171875 573.867188 C 289.667969 556.371094 289.667969 528.003906 272.171875 510.507812 C 254.675781 493.011719 226.308594 493.011719 208.8125 510.507812 L 165.121094 554.238281 C 80.972656 638.386719 80.972656 774.816406 165.121094 858.964844 C 249.269531 943.113281 385.699219 943.113281 469.84375 858.964844 L 619.179688 709.632812 C 703.328125 625.484375 703.328125 489.050781 619.179688 404.90625 C 601.683594 387.410156 573.316406 387.410156 555.820312 404.90625 Z M 555.734375 404.90625 "/>
</svg>
