<?xml version="1.0" encoding="UTF-8"?>
<svg xmlns="http://www.w3.org/2000/svg" xmlns:xlink="http://www.w3.org/1999/xlink" width="1024" height="1024" viewBox="0 0 1024 1024">
<path fill-rule="nonzero" fill="rgb(0%, 0%, 0%)" fill-opacity="1" d="M 853.332031 256 L 896 256 C 943.128906 256 981.332031 294.203125 981.332031 341.332031 L 981.332031 682.667969 C 981.332031 729.796875 943.128906 768 896 768 L 853.332031 768 Z M 682.667969 170.667969 L 725.332031 170.667969 C 772.460938 170.667969 810.667969 208.871094 810.667969 256 L 810.667969 768 C 810.667969 815.128906 772.460938 853.332031 725.332031 853.332031 L 682.667969 853.332031 Z M 640 170.667969 L 640 853.332031 C 640 900.460938 601.796875 938.667969 554.667969 938.667969 L 128 938.667969 C 80.871094 938.667969 42.667969 900.460938 42.667969 853.332031 L 42.667969 170.667969 C 42.667969 123.539062 80.871094 85.332031 128 85.332031 L 554.667969 85.332031 C 601.796875 85.332031 640 123.539062 640 170.667969 Z M 640 170.667969 "/>
</svg>
