<?xml version="1.0" encoding="UTF-8"?>
<svg xmlns="http://www.w3.org/2000/svg" xmlns:xlink="http://www.w3.org/1999/xlink" width="1024" height="1024" viewBox="0 0 1024 1024">
<path fill-rule="evenodd" fill="rgb(0%, 0%, 0%)" fill-opacity="1" d="M 138.667969 245.332031 C 109.210938 245.332031 85.332031 269.210938 85.332031 298.667969 C 85.332031 328.121094 109.210938 352 138.667969 352 C 168.121094 352 192 328.121094 192 298.667969 C 192 269.210938 168.121094 245.332031 138.667969 245.332031 Z M 298.667969 256 C 275.101562 256 256 275.101562 256 298.667969 C 256 322.230469 275.101562 341.332031 298.667969 341.332031 L 810.667969 341.332031 C 834.230469 341.332031 853.332031 322.230469 853.332031 298.667969 C 853.332031 275.101562 834.230469 256 810.667969 256 Z M 298.667969 469.332031 C 275.101562 469.332031 256 488.4375 256 512 C 256 535.5625 275.101562 554.667969 298.667969 554.667969 L 896 554.667969 C 919.5625 554.667969 938.667969 535.5625 938.667969 512 C 938.667969 488.4375 919.5625 469.332031 896 469.332031 Z M 256 725.332031 C 256 701.769531 275.101562 682.667969 298.667969 682.667969 L 725.332031 682.667969 C 748.898438 682.667969 768 701.769531 768 725.332031 C 768 748.898438 748.898438 768 725.332031 768 L 298.667969 768 C 275.101562 768 256 748.898438 256 725.332031 Z M 85.332031 512 C 85.332031 482.542969 109.210938 458.667969 138.667969 458.667969 C 168.121094 458.667969 192 482.542969 192 512 C 192 541.457031 168.121094 565.332031 138.667969 565.332031 C 109.210938 565.332031 85.332031 541.457031 85.332031 512 Z M 138.667969 672 C 109.210938 672 85.332031 695.878906 85.332031 725.332031 C 85.332031 754.789062 109.210938 778.667969 138.667969 778.667969 C 168.121094 778.667969 192 754.789062 192 725.332031 C 192 695.878906 168.121094 672 138.667969 672 Z M 138.667969 672 "/>
</svg>
