<?xml version="1.0" encoding="UTF-8"?>
<svg xmlns="http://www.w3.org/2000/svg" xmlns:xlink="http://www.w3.org/1999/xlink" width="1024" height="1024" viewBox="0 0 1024 1024">
<path fill-rule="nonzero" fill="rgb(0%, 0%, 0%)" fill-opacity="1" d="M 512 1002.667969 C 469.332031 1002.667969 519.808594 935.296875 309.460938 830.507812 C 297.9375 824.753906 286.753906 818.34375 275.96875 811.308594 C 171.308594 743.210938 106.667969 618.667969 106.667969 484.609375 C 106.667969 264.105469 288.128906 85.332031 512 85.332031 C 735.871094 85.332031 917.332031 264.105469 917.332031 484.566406 C 917.332031 632.277344 838.65625 768.597656 714.878906 830.335938 C 504.320312 935.253906 554.667969 1002.667969 512 1002.667969 Z M 512 644.691406 C 602.070312 644.691406 674.132812 573.355469 674.132812 486.613281 C 674.132812 399.871094 602.070312 328.535156 512 328.535156 C 421.929688 328.535156 349.867188 399.871094 349.867188 486.613281 C 349.867188 573.355469 421.929688 644.691406 512 644.691406 Z M 512 644.691406 "/>
</svg>
