<?xml version="1.0" encoding="UTF-8"?>
<svg xmlns="http://www.w3.org/2000/svg" xmlns:xlink="http://www.w3.org/1999/xlink" width="1024" height="1024" viewBox="0 0 1024 1024">
<path fill-rule="nonzero" fill="rgb(0%, 0%, 0%)" fill-opacity="1" d="M 676.777344 711.253906 C 770.21875 664.660156 832 558.761719 832 441.898438 C 832 268.84375 689.023438 128 512 128 C 334.976562 128 192 268.800781 192 441.898438 C 192 547.625 242.476562 644.992188 322.558594 697.171875 C 330.625 702.421875 338.945312 707.199219 347.519531 711.425781 C 422.398438 748.800781 475.476562 785.921875 512 824.617188 C 548.609375 785.878906 601.726562 748.671875 676.734375 711.296875 Z M 512 960 C 469.332031 960 519.808594 892.628906 309.460938 787.839844 C 297.9375 782.089844 286.753906 775.679688 275.96875 768.640625 C 171.308594 700.542969 106.667969 576 106.667969 441.941406 C 106.667969 221.441406 288.128906 42.667969 512 42.667969 C 735.871094 42.667969 917.332031 221.441406 917.332031 441.898438 C 917.332031 589.609375 838.65625 725.929688 714.878906 787.667969 C 504.320312 892.585938 554.667969 960 512 960 Z M 512 631.464844 C 613.324219 631.464844 695.464844 549.324219 695.464844 448 C 695.464844 346.675781 613.324219 264.535156 512 264.535156 C 410.675781 264.535156 328.535156 346.675781 328.535156 448 C 328.535156 549.324219 410.675781 631.464844 512 631.464844 Z M 512 546.132812 C 457.800781 546.132812 413.867188 502.199219 413.867188 448 C 413.867188 393.800781 457.800781 349.867188 512 349.867188 C 566.199219 349.867188 610.132812 393.800781 610.132812 448 C 610.132812 502.199219 566.199219 546.132812 512 546.132812 Z M 512 546.132812 "/>
</svg>
