<?xml version="1.0" encoding="UTF-8"?>
<svg xmlns="http://www.w3.org/2000/svg" xmlns:xlink="http://www.w3.org/1999/xlink" width="1024" height="1024" viewBox="0 0 1024 1024">
<path fill-rule="evenodd" fill="rgb(0%, 0%, 0%)" fill-opacity="1" d="M 512 128 C 629.820312 128 725.332031 223.511719 725.332031 341.332031 L 725.332031 426.710938 C 766.335938 427.308594 782.507812 432.214844 798.761719 440.917969 C 816.128906 450.21875 829.78125 463.828125 839.082031 481.238281 C 848.382812 498.601562 853.332031 515.882812 853.332031 563.414062 L 853.332031 759.253906 C 853.332031 806.785156 848.382812 824.0625 839.082031 841.429688 C 829.988281 858.609375 815.941406 872.65625 798.761719 881.75 C 781.398438 891.050781 764.160156 896 716.585938 896 L 307.414062 896 C 259.839844 896 242.601562 891.050781 225.238281 881.75 C 208.058594 872.65625 194.011719 858.609375 184.917969 841.429688 C 175.617188 824.0625 170.667969 806.828125 170.667969 759.253906 L 170.667969 563.414062 C 170.667969 515.882812 175.617188 498.601562 184.917969 481.238281 C 194.21875 463.828125 207.871094 450.21875 225.238281 440.917969 C 241.492188 432.214844 257.664062 427.308594 298.667969 426.710938 L 298.667969 341.332031 C 298.667969 223.511719 394.179688 128 512 128 Z M 271.1875 514.089844 C 277.800781 512.8125 289.195312 512 307.414062 512 L 716.585938 512 C 734.804688 512 746.199219 512.8125 752.8125 514.089844 C 755.371094 514.601562 755.96875 514.816406 758.527344 516.179688 C 760.835938 517.3125 762.710938 519.171875 763.863281 521.472656 C 765.183594 524.03125 765.398438 524.585938 765.910156 527.1875 C 767.1875 533.800781 768 545.195312 768 563.414062 L 768 759.253906 C 768 777.472656 767.1875 788.863281 765.910156 795.476562 C 765.609375 797.503906 764.898438 799.449219 763.820312 801.195312 C 762.6875 803.503906 760.828125 805.378906 758.527344 806.527344 C 756.78125 807.59375 754.835938 808.289062 752.8125 808.574219 C 746.199219 809.855469 734.804688 810.667969 716.585938 810.667969 L 307.414062 810.667969 C 289.195312 810.667969 277.800781 809.855469 271.1875 808.574219 C 269.160156 808.277344 267.214844 807.5625 265.472656 806.484375 C 263.179688 805.347656 261.320312 803.488281 260.179688 801.195312 C 259.101562 799.449219 258.390625 797.503906 258.089844 795.476562 C 256.8125 788.863281 256 777.472656 256 759.253906 L 256 563.414062 C 256 545.195312 256.8125 533.800781 258.089844 527.1875 C 258.390625 525.160156 259.101562 523.214844 260.179688 521.472656 C 261.320312 519.179688 263.179688 517.320312 265.472656 516.179688 C 267.214844 515.101562 269.160156 514.390625 271.1875 514.089844 Z M 640 341.332031 L 640 426.667969 L 384 426.667969 L 384 341.332031 C 384 270.640625 441.308594 213.332031 512 213.332031 C 582.691406 213.332031 640 270.640625 640 341.332031 Z M 640 341.332031 "/>
</svg>
