<?xml version="1.0" encoding="UTF-8"?>
<svg xmlns="http://www.w3.org/2000/svg" xmlns:xlink="http://www.w3.org/1999/xlink" width="1024" height="1024" viewBox="0 0 1024 1024">
<path fill-rule="evenodd" fill="rgb(0%, 0%, 0%)" fill-opacity="1" d="M 512 128 C 629.820312 128 725.332031 223.511719 725.332031 341.332031 L 725.332031 426.878906 C 758.1875 427.519531 778.496094 429.867188 795.09375 438.316406 C 815.152344 448.539062 831.460938 464.847656 841.683594 484.90625 C 853.332031 507.734375 853.332031 537.601562 853.332031 597.332031 L 853.332031 725.332031 C 853.332031 785.066406 853.332031 814.933594 841.683594 837.761719 C 831.460938 857.820312 815.152344 874.128906 795.09375 884.351562 C 772.265625 896 742.398438 896 682.667969 896 L 341.332031 896 C 281.601562 896 251.734375 896 228.90625 884.351562 C 208.832031 874.136719 192.507812 857.824219 182.273438 837.761719 C 170.667969 814.933594 170.667969 785.066406 170.667969 725.332031 L 170.667969 597.332031 C 170.667969 537.601562 170.667969 507.734375 182.273438 484.90625 C 192.507812 464.839844 208.832031 448.53125 228.90625 438.316406 C 245.503906 429.824219 265.8125 427.519531 298.667969 426.878906 L 298.667969 341.332031 C 298.667969 223.511719 394.179688 128 512 128 Z M 640 341.332031 L 640 426.667969 L 384 426.667969 L 384 341.332031 C 384 270.640625 441.308594 213.332031 512 213.332031 C 582.691406 213.332031 640 270.640625 640 341.332031 Z M 640 341.332031 "/>
</svg>
