<?xml version="1.0" encoding="UTF-8"?>
<svg xmlns="http://www.w3.org/2000/svg" xmlns:xlink="http://www.w3.org/1999/xlink" width="1024" height="1024" viewBox="0 0 1024 1024">
<path fill-rule="evenodd" fill="rgb(0%, 0%, 0%)" fill-opacity="1" d="M 96.9375 271.574219 C 85.332031 294.398438 85.332031 324.265625 85.332031 384 L 85.332031 640 C 85.332031 699.734375 85.332031 729.601562 96.9375 752.425781 C 107.175781 772.492188 123.5 788.800781 143.574219 799.019531 C 166.398438 810.667969 196.265625 810.667969 256 810.667969 L 768 810.667969 C 827.734375 810.667969 857.601562 810.667969 880.425781 799.019531 C 900.484375 788.792969 916.792969 772.484375 927.019531 752.425781 C 938.667969 729.601562 938.667969 699.734375 938.667969 640 L 938.667969 384 C 938.667969 324.265625 938.667969 294.398438 927.019531 271.574219 C 916.800781 251.5 900.492188 235.175781 880.425781 224.9375 C 857.601562 213.332031 827.734375 213.332031 768 213.332031 L 256 213.332031 C 196.265625 213.332031 166.398438 213.332031 143.574219 224.9375 C 123.492188 235.167969 107.167969 251.492188 96.9375 271.574219 Z M 198.273438 298.667969 L 825.726562 298.667969 C 835.132812 298.65625 843.4375 304.804688 846.167969 313.804688 C 848.898438 322.804688 845.414062 332.53125 837.589844 337.75 L 535.722656 539.648438 C 521.367188 549.25 502.632812 549.25 488.277344 539.648438 L 186.410156 337.75 C 178.585938 332.53125 175.101562 322.804688 177.832031 313.804688 C 180.5625 304.804688 188.867188 298.65625 198.273438 298.667969 Z M 198.273438 298.667969 "/>
</svg>
