<?xml version="1.0" encoding="UTF-8"?>
<svg xmlns="http://www.w3.org/2000/svg" xmlns:xlink="http://www.w3.org/1999/xlink" width="1024" height="1024" viewBox="0 0 1024 1024">
<path fill-rule="evenodd" fill="rgb(0%, 0%, 0%)" fill-opacity="1" d="M 222.078125 213.332031 L 801.921875 213.332031 C 849.449219 213.332031 866.730469 218.28125 884.097656 227.585938 C 901.460938 236.886719 915.113281 250.539062 924.414062 267.902344 C 933.71875 285.269531 938.667969 302.507812 938.667969 350.078125 L 938.667969 673.921875 C 938.667969 721.492188 933.71875 738.730469 924.414062 756.097656 C 915.320312 773.273438 901.273438 787.320312 884.097656 796.414062 C 866.730469 805.71875 849.492188 810.667969 801.921875 810.667969 L 222.078125 810.667969 C 174.507812 810.667969 157.269531 805.71875 139.902344 796.414062 C 122.726562 787.320312 108.679688 773.273438 99.585938 756.097656 C 90.28125 738.730469 85.332031 721.492188 85.332031 673.921875 L 85.332031 350.078125 C 85.332031 302.507812 90.28125 285.269531 99.585938 267.902344 C 108.886719 250.539062 122.539062 236.886719 139.902344 227.585938 C 157.269531 218.28125 174.507812 213.332031 222.078125 213.332031 Z M 170.667969 405.332031 L 164.480469 331.222656 L 168.0625 328.832031 L 213.246094 368.214844 L 450.558594 535.425781 C 487.40625 561.386719 536.59375 561.386719 573.441406 535.425781 L 810.582031 368.382812 L 855.894531 328.832031 L 859.519531 331.222656 L 853.332031 405.332031 L 853.332031 673.921875 C 853.332031 692.136719 852.523438 703.53125 851.242188 710.144531 C 850.941406 712.171875 850.230469 714.117188 849.152344 715.863281 C 848.019531 718.171875 846.160156 720.042969 843.863281 721.195312 C 842.113281 722.257812 840.167969 722.957031 838.144531 723.242188 C 831.53125 724.523438 820.136719 725.332031 801.921875 725.332031 L 222.078125 725.332031 C 203.863281 725.332031 192.46875 724.523438 185.855469 723.242188 C 183.828125 722.941406 181.882812 722.230469 180.136719 721.152344 C 177.84375 720.011719 175.988281 718.15625 174.847656 715.863281 C 173.769531 714.117188 173.058594 712.171875 172.757812 710.144531 C 171.476562 703.53125 170.667969 692.136719 170.667969 673.921875 Z M 791.464844 285.867188 L 682.667969 298.667969 L 341.332031 298.667969 L 232.535156 285.867188 L 228.136719 288.8125 C 259.339844 301.195312 288.972656 317.222656 316.414062 336.554688 L 499.710938 465.664062 C 507.082031 470.855469 516.917969 470.855469 524.289062 465.664062 L 707.414062 336.640625 C 734.910156 317.28125 764.597656 301.242188 795.863281 288.851562 L 791.425781 285.867188 Z M 791.464844 285.867188 "/>
</svg>
