<?xml version="1.0" encoding="UTF-8"?>
<svg xmlns="http://www.w3.org/2000/svg" xmlns:xlink="http://www.w3.org/1999/xlink" width="1024" height="1024" viewBox="0 0 1024 1024">
<path fill-rule="evenodd" fill="rgb(0%, 0%, 0%)" fill-opacity="1" d="M 981.332031 170.667969 C 981.332031 241.359375 924.027344 298.667969 853.332031 298.667969 C 782.640625 298.667969 725.332031 241.359375 725.332031 170.667969 C 725.332031 99.972656 782.640625 42.667969 853.332031 42.667969 C 924.027344 42.667969 981.332031 99.972656 981.332031 170.667969 Z M 853.332031 384 C 787.203125 384.019531 724.800781 353.367188 684.394531 301.015625 C 643.984375 248.664062 630.140625 180.535156 646.910156 116.566406 C 597.417969 95.886719 544.304688 85.269531 490.667969 85.332031 C 266.808594 85.332031 85.332031 266.808594 85.332031 490.667969 C 85.332031 714.527344 266.808594 896 490.667969 896 C 543.898438 896.078125 596.617188 885.640625 645.800781 865.28125 C 676.902344 852.828125 710.949219 849.667969 743.808594 856.191406 L 744.535156 856.363281 L 745.214844 856.574219 L 856.832031 885.761719 C 864.976562 887.902344 873.648438 885.558594 879.605469 879.605469 C 885.558594 873.648438 887.902344 864.976562 885.761719 856.832031 L 856.832031 746.238281 C 856.515625 745.109375 856.230469 743.972656 855.980469 742.828125 C 854.1875 733.78125 846.847656 690.21875 865.238281 645.800781 C 885.609375 596.621094 896.066406 543.898438 896 490.667969 C 896 453.121094 890.878906 416.726562 881.324219 382.164062 C 872.042969 383.382812 862.691406 383.996094 853.332031 384 Z M 661.332031 490.667969 C 661.332031 584.921875 584.921875 661.332031 490.667969 661.332031 C 396.410156 661.332031 320 584.921875 320 490.667969 C 320 396.410156 396.410156 320 490.667969 320 C 584.921875 320 661.332031 396.410156 661.332031 490.667969 Z M 661.332031 490.667969 "/>
</svg>
