<?xml version="1.0" encoding="UTF-8"?>
<svg xmlns="http://www.w3.org/2000/svg" xmlns:xlink="http://www.w3.org/1999/xlink" width="1024" height="1024" viewBox="0 0 1024 1024">
<path fill-rule="evenodd" fill="rgb(0%, 0%, 0%)" fill-opacity="1" d="M 645.800781 865.28125 C 596.617188 885.640625 543.898438 896.078125 490.667969 896 C 266.808594 896 85.332031 714.527344 85.332031 490.667969 C 85.332031 266.808594 266.808594 85.332031 490.667969 85.332031 C 714.527344 85.332031 896 266.808594 896 490.667969 C 896.078125 543.898438 885.640625 596.617188 865.28125 645.800781 C 852.480469 676.566406 849.023438 707.03125 854.785156 737.238281 C 855.59375 741.289062 856.660156 745.34375 858.027344 749.226562 L 886.316406 830.378906 C 891.832031 846.28125 887.78125 863.941406 875.882812 875.847656 C 863.984375 887.757812 846.328125 891.820312 830.421875 886.316406 L 748.757812 857.855469 C 745.132812 856.597656 741.425781 855.585938 737.664062 854.828125 C 707.839844 848.726562 677.207031 852.222656 645.800781 865.238281 Z M 613.121094 786.433594 C 637.746094 776.027344 663.902344 769.703125 690.558594 767.703125 C 742.785156 764.074219 810.667969 810.667969 810.667969 810.667969 C 810.667969 810.667969 764.289062 742.742188 767.871094 690.476562 C 769.621094 664.492188 775.851562 638.59375 786.433594 613.121094 C 802.347656 574.71875 810.667969 533.332031 810.667969 490.667969 C 810.613281 349.726562 718.355469 225.417969 583.472656 184.542969 C 448.589844 143.667969 302.84375 195.851562 224.5625 313.054688 C 146.285156 430.253906 153.898438 584.875 243.320312 693.8125 C 332.738281 802.753906 482.90625 840.363281 613.121094 786.433594 Z M 490.667969 682.667969 C 384.628906 682.667969 298.667969 596.707031 298.667969 490.667969 C 298.667969 384.628906 384.628906 298.667969 490.667969 298.667969 C 596.707031 298.667969 682.667969 384.628906 682.667969 490.667969 C 682.667969 596.707031 596.707031 682.667969 490.667969 682.667969 Z M 597.332031 490.667969 C 597.332031 549.578125 549.578125 597.332031 490.667969 597.332031 C 431.757812 597.332031 384 549.578125 384 490.667969 C 384 431.757812 431.757812 384 490.667969 384 C 549.578125 384 597.332031 431.757812 597.332031 490.667969 Z M 597.332031 490.667969 "/>
</svg>
