<?xml version="1.0" encoding="UTF-8"?>
<svg xmlns="http://www.w3.org/2000/svg" xmlns:xlink="http://www.w3.org/1999/xlink" width="1024" height="1024" viewBox="0 0 1024 1024">
<path fill-rule="evenodd" fill="rgb(0%, 0%, 0%)" fill-opacity="1" d="M 645.800781 865.28125 C 596.617188 885.640625 543.898438 896.078125 490.667969 896 C 266.808594 896 85.332031 714.527344 85.332031 490.667969 C 85.332031 266.808594 266.808594 85.332031 490.667969 85.332031 C 714.527344 85.332031 896 266.808594 896 490.667969 C 896.078125 543.898438 885.640625 596.617188 865.28125 645.800781 C 846.847656 690.175781 854.1875 733.78125 856.019531 742.828125 C 856.234375 743.980469 856.535156 745.089844 856.832031 746.238281 L 885.761719 856.832031 C 887.902344 864.976562 885.558594 873.648438 879.605469 879.605469 C 873.648438 885.558594 864.976562 887.902344 856.832031 885.761719 L 745.214844 856.574219 L 744.789062 856.449219 L 743.808594 856.191406 C 710.953125 849.65625 676.90625 852.796875 645.800781 865.238281 Z M 661.332031 490.667969 C 661.332031 584.921875 584.921875 661.332031 490.667969 661.332031 C 396.410156 661.332031 320 584.921875 320 490.667969 C 320 396.410156 396.410156 320 490.667969 320 C 584.921875 320 661.332031 396.410156 661.332031 490.667969 Z M 661.332031 490.667969 "/>
</svg>
