<?xml version="1.0" encoding="UTF-8"?>
<svg xmlns="http://www.w3.org/2000/svg" xmlns:xlink="http://www.w3.org/1999/xlink" width="1024" height="1024" viewBox="0 0 1024 1024">
<path fill-rule="evenodd" fill="rgb(0%, 0%, 0%)" fill-opacity="1" d="M 810.667969 426.667969 C 808.535156 426.667969 806.398438 426.667969 804.265625 426.582031 C 816.984375 489.152344 810.777344 554.09375 786.433594 613.121094 C 776.070312 637.722656 769.800781 663.851562 767.871094 690.476562 C 764.289062 742.742188 810.667969 810.667969 810.667969 810.667969 C 810.667969 810.667969 742.785156 764.074219 690.515625 767.703125 C 663.875 769.707031 637.734375 776.03125 613.121094 786.433594 C 574.296875 802.503906 532.683594 810.738281 490.667969 810.667969 C 363.175781 810.574219 247.90625 734.8125 197.25 617.820312 C 146.589844 500.824219 170.210938 364.925781 257.375 271.886719 C 344.539062 178.847656 478.613281 146.425781 598.65625 189.355469 C 601.941406 160.085938 611.15625 132.609375 625.023438 108.117188 C 581.847656 92.984375 536.417969 85.277344 490.667969 85.332031 C 266.808594 85.332031 85.332031 266.808594 85.332031 490.667969 C 85.332031 714.527344 266.808594 896 490.667969 896 C 543.898438 896.078125 596.617188 885.640625 645.800781 865.28125 C 677.207031 852.222656 707.839844 848.726562 737.707031 854.828125 C 741.46875 855.585938 745.175781 856.597656 748.800781 857.855469 L 830.378906 886.316406 C 846.28125 891.832031 863.941406 887.78125 875.847656 875.882812 C 887.757812 863.984375 891.820312 846.328125 886.316406 830.421875 L 858.027344 749.226562 C 856.65625 745.3125 855.574219 741.308594 854.785156 737.238281 C 849.023438 707.03125 852.480469 676.566406 865.238281 645.800781 C 895.726562 571.855469 903.769531 490.566406 888.363281 412.074219 C 863.601562 421.75 837.25 426.699219 810.667969 426.667969 Z M 490.667969 682.667969 C 384.628906 682.667969 298.667969 596.707031 298.667969 490.667969 C 298.667969 384.628906 384.628906 298.667969 490.667969 298.667969 C 596.707031 298.667969 682.667969 384.628906 682.667969 490.667969 C 682.667969 596.707031 596.707031 682.667969 490.667969 682.667969 Z M 597.332031 490.667969 C 597.332031 549.578125 549.578125 597.332031 490.667969 597.332031 C 431.757812 597.332031 384 549.578125 384 490.667969 C 384 431.757812 431.757812 384 490.667969 384 C 549.578125 384 597.332031 431.757812 597.332031 490.667969 Z M 938.667969 213.332031 C 938.667969 284.027344 881.359375 341.332031 810.667969 341.332031 C 739.972656 341.332031 682.667969 284.027344 682.667969 213.332031 C 682.667969 142.640625 739.972656 85.332031 810.667969 85.332031 C 881.359375 85.332031 938.667969 142.640625 938.667969 213.332031 Z M 938.667969 213.332031 "/>
</svg>
