<?xml version="1.0" encoding="UTF-8"?>
<svg xmlns="http://www.w3.org/2000/svg" xmlns:xlink="http://www.w3.org/1999/xlink" width="1024" height="1024" viewBox="0 0 1024 1024">
<path fill-rule="evenodd" fill="rgb(0%, 0%, 0%)" fill-opacity="1" d="M 512 85.332031 C 441.308594 85.332031 384 142.640625 384 213.332031 L 384 512 C 384 582.691406 441.308594 640 512 640 C 582.691406 640 640 582.691406 640 512 L 640 213.332031 C 640 142.640625 582.691406 85.332031 512 85.332031 Z M 213.332031 512 C 213.332031 488.4375 232.4375 469.332031 256 469.332031 C 279.5625 469.332031 298.667969 488.4375 298.667969 512 C 298.667969 629.820312 394.179688 725.332031 512 725.332031 C 629.820312 725.332031 725.332031 629.820312 725.332031 512 C 725.332031 488.4375 744.4375 469.332031 768 469.332031 C 791.5625 469.332031 810.667969 488.4375 810.667969 512 C 810.6875 660.488281 701.628906 786.449219 554.667969 807.679688 L 554.667969 896 C 554.667969 919.5625 535.5625 938.667969 512 938.667969 C 488.4375 938.667969 469.332031 919.5625 469.332031 896 L 469.332031 807.679688 C 322.371094 786.449219 213.3125 660.488281 213.332031 512 Z M 213.332031 512 "/>
</svg>
