<?xml version="1.0" encoding="UTF-8"?>
<svg xmlns="http://www.w3.org/2000/svg" xmlns:xlink="http://www.w3.org/1999/xlink" width="1024" height="1024" viewBox="0 0 1024 1024">
<path fill-rule="evenodd" fill="rgb(0%, 0%, 0%)" fill-opacity="1" d="M 938.667969 512 C 938.667969 747.648438 747.648438 938.667969 512 938.667969 C 276.351562 938.667969 85.332031 747.648438 85.332031 512 C 85.332031 276.351562 276.351562 85.332031 512 85.332031 C 747.648438 85.332031 938.667969 276.351562 938.667969 512 Z M 234.667969 512 C 234.667969 535.5625 253.769531 554.667969 277.332031 554.667969 L 746.667969 554.667969 C 770.230469 554.667969 789.332031 535.5625 789.332031 512 C 789.332031 488.4375 770.230469 469.332031 746.667969 469.332031 L 277.332031 469.332031 C 253.769531 469.332031 234.667969 488.4375 234.667969 512 Z M 234.667969 512 "/>
</svg>
