<?xml version="1.0" encoding="UTF-8"?>
<svg xmlns="http://www.w3.org/2000/svg" xmlns:xlink="http://www.w3.org/1999/xlink" width="1024" height="1024" viewBox="0 0 1024 1024">
<path fill-rule="evenodd" fill="rgb(0%, 0%, 0%)" fill-opacity="1" d="M 512 938.667969 C 747.648438 938.667969 938.667969 747.648438 938.667969 512 C 938.667969 276.351562 747.648438 85.332031 512 85.332031 C 276.351562 85.332031 85.332031 276.351562 85.332031 512 C 85.332031 747.648438 276.351562 938.667969 512 938.667969 Z M 512 853.332031 C 700.511719 853.332031 853.332031 700.511719 853.332031 512 C 853.332031 323.488281 700.511719 170.667969 512 170.667969 C 323.488281 170.667969 170.667969 323.488281 170.667969 512 C 170.667969 700.511719 323.488281 853.332031 512 853.332031 Z M 256 512 C 256 535.5625 275.101562 554.667969 298.667969 554.667969 L 725.332031 554.753906 C 748.898438 554.753906 768 535.648438 768 512.085938 C 768 488.519531 748.898438 469.417969 725.332031 469.417969 L 298.667969 469.332031 C 275.101562 469.332031 256 488.4375 256 512 Z M 256 512 "/>
</svg>
