<?xml version="1.0" encoding="UTF-8"?>
<svg xmlns="http://www.w3.org/2000/svg" xmlns:xlink="http://www.w3.org/1999/xlink" width="1024" height="1024" viewBox="0 0 1024 1024">
<path fill-rule="evenodd" fill="rgb(0%, 0%, 0%)" fill-opacity="1" d="M 512 288 C 553.238281 288 586.667969 254.570312 586.667969 213.332031 C 586.667969 172.097656 553.238281 138.667969 512 138.667969 C 470.761719 138.667969 437.332031 172.097656 437.332031 213.332031 C 437.332031 254.570312 470.761719 288 512 288 Z M 512 885.332031 C 553.238281 885.332031 586.667969 851.902344 586.667969 810.667969 C 586.667969 769.429688 553.238281 736 512 736 C 470.761719 736 437.332031 769.429688 437.332031 810.667969 C 437.332031 851.902344 470.761719 885.332031 512 885.332031 Z M 586.667969 512 C 586.667969 553.238281 553.238281 586.667969 512 586.667969 C 470.761719 586.667969 437.332031 553.238281 437.332031 512 C 437.332031 470.761719 470.761719 437.332031 512 437.332031 C 553.238281 437.332031 586.667969 470.761719 586.667969 512 Z M 586.667969 512 "/>
</svg>
