<?xml version="1.0" encoding="UTF-8"?>
<svg xmlns="http://www.w3.org/2000/svg" xmlns:xlink="http://www.w3.org/1999/xlink" width="1024" height="1024" viewBox="0 0 1024 1024">
<path fill-rule="evenodd" fill="rgb(0%, 0%, 0%)" fill-opacity="1" d="M 213.332031 586.667969 C 254.570312 586.667969 288 553.238281 288 512 C 288 470.761719 254.570312 437.332031 213.332031 437.332031 C 172.097656 437.332031 138.667969 470.761719 138.667969 512 C 138.667969 553.238281 172.097656 586.667969 213.332031 586.667969 Z M 810.667969 586.667969 C 851.902344 586.667969 885.332031 553.238281 885.332031 512 C 885.332031 470.761719 851.902344 437.332031 810.667969 437.332031 C 769.429688 437.332031 736 470.761719 736 512 C 736 553.238281 769.429688 586.667969 810.667969 586.667969 Z M 586.667969 512 C 586.667969 553.238281 553.238281 586.667969 512 586.667969 C 470.761719 586.667969 437.332031 553.238281 437.332031 512 C 437.332031 470.761719 470.761719 437.332031 512 437.332031 C 553.238281 437.332031 586.667969 470.761719 586.667969 512 Z M 586.667969 512 "/>
</svg>
