<?xml version="1.0" encoding="UTF-8"?>
<svg xmlns="http://www.w3.org/2000/svg" xmlns:xlink="http://www.w3.org/1999/xlink" width="1024" height="1024" viewBox="0 0 1024 1024">
<defs>
<filter id="filter-remove-color" x="0%" y="0%" width="100%" height="100%">
<feColorMatrix color-interpolation-filters="sRGB" values="0 0 0 0 1 0 0 0 0 1 0 0 0 0 1 0 0 0 1 0" />
</filter>
<mask id="mask-0">
<g filter="url(#filter-remove-color)">
<rect x="-102.4" y="-102.4" width="1228.8" height="1228.8" fill="rgb(0%, 0%, 0%)" fill-opacity="0.6"/>
</g>
</mask>
<clipPath id="clip-0">
<rect x="0" y="0" width="1024" height="1024"/>
</clipPath>
<g id="source-5" clip-path="url(#clip-0)">
<path fill-rule="evenodd" fill="rgb(0%, 0%, 0%)" fill-opacity="1" d="M 128 170.667969 L 896 170.667969 C 919.5625 170.667969 938.667969 189.769531 938.667969 213.332031 L 938.667969 256 L 85.332031 256 L 85.332031 213.332031 C 85.332031 189.769531 104.4375 170.667969 128 170.667969 Z M 128 170.667969 "/>
</g>
<mask id="mask-1">
<g filter="url(#filter-remove-color)">
<rect x="-102.4" y="-102.4" width="1228.8" height="1228.8" fill="rgb(0%, 0%, 0%)" fill-opacity="0.3"/>
</g>
</mask>
<clipPath id="clip-1">
<rect x="0" y="0" width="1024" height="1024"/>
</clipPath>
<g id="source-8" clip-path="url(#clip-1)">
<path fill-rule="evenodd" fill="rgb(0%, 0%, 0%)" fill-opacity="1" d="M 213.332031 85.332031 L 810.667969 85.332031 C 834.230469 85.332031 853.332031 104.4375 853.332031 128 L 853.332031 170.667969 L 170.667969 170.667969 L 170.667969 128 C 170.667969 104.4375 189.769531 85.332031 213.332031 85.332031 Z M 213.332031 85.332031 "/>
</g>
</defs>
<g mask="url(#mask-0)">
<use xlink:href="#source-5"/>
</g>
<g mask="url(#mask-1)">
<use xlink:href="#source-8"/>
</g>
<path fill-rule="evenodd" fill="rgb(0%, 0%, 0%)" fill-opacity="1" d="M 42.667969 256 L 981.332031 256 C 1004.898438 256 1024 275.101562 1024 298.667969 L 1024 938.667969 C 1024 962.230469 1004.898438 981.332031 981.332031 981.332031 L 42.667969 981.332031 C 19.101562 981.332031 0 962.230469 0 938.667969 L 0 298.667969 C 0 275.101562 19.101562 256 42.667969 256 Z M 42.667969 341.332031 L 42.667969 469.332031 L 170.667969 469.332031 L 170.667969 341.332031 Z M 42.667969 554.667969 L 42.667969 682.667969 L 170.667969 682.667969 L 170.667969 554.667969 Z M 42.667969 768 L 42.667969 896 L 170.667969 896 L 170.667969 768 Z M 853.332031 341.332031 L 853.332031 469.332031 L 981.332031 469.332031 L 981.332031 341.332031 Z M 853.332031 554.667969 L 853.332031 682.667969 L 981.332031 682.667969 L 981.332031 554.667969 Z M 853.332031 768 L 853.332031 896 L 981.332031 896 L 981.332031 768 Z M 853.332031 768 "/>
</svg>
