<?xml version="1.0" encoding="UTF-8"?>
<svg xmlns="http://www.w3.org/2000/svg" xmlns:xlink="http://www.w3.org/1999/xlink" width="1024" height="1024" viewBox="0 0 1024 1024">
<path fill-rule="nonzero" fill="rgb(0%, 0%, 0%)" fill-opacity="1" d="M 416.9375 182.613281 C 440.832031 176.46875 463.742188 193.109375 468.394531 217.34375 C 472.660156 239.402344 457.171875 260.179688 435.5 265.984375 C 285.179688 305.832031 190.59375 454.359375 218.058594 607.421875 C 245.523438 760.488281 385.84375 866.867188 540.636719 851.972656 C 695.433594 837.078125 812.894531 705.894531 810.667969 550.398438 C 811.050781 529.066406 827.734375 510.078125 848.851562 507.734375 C 874.582031 504.875 896.296875 523.5625 896.042969 549.417969 L 896 554.667969 C 896 559.230469 895.914062 563.753906 895.742188 568.320312 C 895.957031 570.648438 895.957031 572.988281 895.742188 575.316406 L 895.402344 580.523438 C 881.585938 785.269531 709.230469 942.96875 504.0625 938.582031 C 312.058594 934.617188 152.503906 789.414062 130.515625 598.628906 C 108.527344 407.84375 230.867188 230.152344 416.9375 182.613281 Z M 416.9375 182.613281 "/>
<path fill-rule="nonzero" fill="rgb(0%, 0%, 0%)" fill-opacity="1" d="M 679.679688 586.792969 C 665.925781 658.792969 607.742188 713.972656 535.117188 723.898438 C 462.496094 733.824219 391.640625 696.277344 359.070312 630.609375 C 326.503906 564.945312 339.488281 485.816406 391.339844 434.003906 C 423.335938 401.996094 466.738281 384.007812 512 384 C 544 384 567.464844 390.828125 597.332031 406.613281 C 597.332031 406.613281 603.734375 410.453125 608 413.867188 C 603.734375 398.933594 598.273438 358.570312 597.332031 341.332031 C 596.476562 312.398438 596.121094 283.453125 596.265625 254.507812 L 596.265625 126.292969 C 596.265625 104.105469 614.699219 86.1875 637.441406 86.1875 C 641.835938 86.1875 646.230469 86.871094 650.453125 88.234375 L 845.523438 160.296875 C 864.554688 166.484375 870.996094 170.113281 877.3125 175.359375 C 883.625 180.566406 888.320312 186.878906 891.390625 194.390625 C 894.507812 201.898438 896 208.980469 896 228.566406 L 896 278.058594 C 896 300.160156 877.097656 318.164062 854.398438 318.164062 C 849.980469 318.15625 845.585938 317.449219 841.386719 316.074219 L 782.550781 297.003906 L 776.105469 294.871094 C 757.460938 288.894531 749.738281 286.335938 742.484375 283.777344 C 735.035156 281.191406 727.71875 278.242188 720.554688 274.945312 C 717.476562 273.523438 714.445312 272.003906 711.464844 270.378906 C 707.285156 268.246094 701.355469 265.089844 689.238281 259.15625 L 682.667969 256 L 683.136719 554.667969 C 683.136719 565.546875 681.941406 576.296875 679.636719 586.792969 Z M 679.679688 586.792969 "/>
</svg>
