<?xml version="1.0" encoding="UTF-8"?>
<svg xmlns="http://www.w3.org/2000/svg" xmlns:xlink="http://www.w3.org/1999/xlink" width="1024" height="1024" viewBox="0 0 1024 1024">
<path fill-rule="evenodd" fill="rgb(0%, 0%, 0%)" fill-opacity="1" d="M 111.402344 769.960938 C 216.535156 901.632812 414.675781 969.171875 579.882812 924.886719 C 807.550781 863.871094 942.59375 629.929688 881.621094 402.347656 C 837.332031 237.097656 679.808594 99.242188 513.195312 74.070312 C 497.210938 71.652344 481.230469 78.472656 471.921875 91.695312 C 462.617188 104.914062 461.582031 122.257812 469.246094 136.492188 C 549.886719 286.25 556.5 414.335938 492.117188 525.824219 C 427.734375 637.3125 313.472656 695.636719 143.53125 700.671875 C 127.355469 701.125 112.828125 710.691406 106.023438 725.375 C 99.214844 740.054688 101.296875 757.324219 111.402344 769.960938 Z M 799.1875 424.40625 C 847.980469 606.496094 739.917969 793.664062 557.824219 842.453125 C 454.015625 870.273438 313.003906 842.539062 224.171875 777.941406 C 372.394531 754.261719 499.328125 683.988281 566.015625 568.492188 C 632.703125 452.992188 629.761719 308.222656 576.171875 168.019531 C 676.566406 212.609375 771.371094 320.597656 799.1875 424.449219 Z M 799.1875 424.40625 "/>
</svg>
