<?xml version="1.0" encoding="UTF-8"?>
<svg xmlns="http://www.w3.org/2000/svg" xmlns:xlink="http://www.w3.org/1999/xlink" width="1024" height="1024" viewBox="0 0 1024 1024">
<path fill-rule="nonzero" fill="rgb(0%, 0%, 0%)" fill-opacity="1" d="M 579.796875 924.117188 C 414.550781 968.40625 216.40625 900.863281 111.316406 769.152344 C 101.246094 756.523438 99.171875 739.292969 105.953125 724.632812 C 112.738281 709.972656 127.214844 700.402344 143.359375 699.902344 C 313.34375 694.871094 427.605469 636.542969 491.945312 525.054688 C 556.375 413.566406 549.71875 285.441406 469.121094 135.722656 C 461.453125 121.488281 462.488281 104.144531 471.796875 90.925781 C 481.101562 77.707031 497.082031 70.882812 513.066406 73.300781 C 679.636719 98.476562 837.207031 236.289062 881.492188 401.578125 C 942.507812 629.164062 807.382812 863.148438 579.796875 924.117188 Z M 579.796875 924.117188 "/>
</svg>
