<?xml version="1.0" encoding="UTF-8"?>
<svg xmlns="http://www.w3.org/2000/svg" xmlns:xlink="http://www.w3.org/1999/xlink" width="1024" height="1024" viewBox="0 0 1024 1024">
<path fill-rule="nonzero" fill="rgb(0%, 0%, 0%)" fill-opacity="1" d="M 766.804688 544.042969 L 748.886719 382.675781 C 739.621094 299.199219 687.105469 226.761719 610.644531 192 L 597.84375 185.003906 C 581.269531 175.917969 569.554688 159.972656 565.84375 141.441406 L 559.785156 111.0625 C 556.796875 96.109375 543.675781 85.34375 528.425781 85.332031 L 495.574219 85.332031 C 480.308594 85.320312 467.164062 96.09375 464.171875 111.0625 L 458.113281 141.441406 C 454.390625 159.957031 442.679688 175.886719 426.113281 184.960938 L 413.3125 192 C 404.265625 196.125 395.488281 200.8125 387.03125 206.039062 L 450.089844 269.054688 C 494.679688 249.328125 546 252.035156 588.269531 276.34375 C 630.535156 300.648438 658.6875 343.644531 664.0625 392.105469 L 675.414062 494.421875 L 756.992188 576 C 759.683594 578.691406 763.636719 579.675781 767.273438 578.558594 C 768.835938 578.078125 769.839844 576.558594 769.664062 574.933594 Z M 766.804688 544.042969 "/>
<path fill-rule="evenodd" fill="rgb(0%, 0%, 0%)" fill-opacity="1" d="M 140.5 200.832031 L 282.878906 343.210938 C 279.1875 356.125 276.589844 369.328125 275.113281 382.675781 L 252.074219 590.25 C 247.769531 628.886719 228.027344 664.140625 197.332031 688 L 182.230469 699.734375 C 162.226562 715.296875 153.292969 741.195312 159.445312 765.78125 L 160 768 C 166.273438 793.089844 188.800781 810.667969 214.613281 810.667969 L 384 810.667969 C 384 881.359375 441.308594 938.667969 512 938.667969 C 582.691406 938.667969 640 881.359375 640 810.667969 L 750.335938 810.667969 L 823.167969 883.5 C 839.910156 899.667969 866.519531 899.4375 882.980469 882.980469 C 899.4375 866.519531 899.667969 839.910156 883.5 823.167969 L 200.832031 140.5 C 184.089844 124.332031 157.480469 124.5625 141.019531 141.019531 C 124.5625 157.480469 124.332031 184.089844 140.5 200.832031 Z M 260.265625 725.332031 L 665.003906 725.332031 L 357.078125 417.449219 L 336.851562 599.636719 C 331.648438 646.570312 319.957031 689.066406 260.265625 725.332031 Z M 260.265625 725.332031 "/>
</svg>
