<?xml version="1.0" encoding="UTF-8"?>
<svg xmlns="http://www.w3.org/2000/svg" xmlns:xlink="http://www.w3.org/1999/xlink" width="1024" height="1024" viewBox="0 0 1024 1024">
<path fill-rule="nonzero" fill="rgb(0%, 0%, 0%)" fill-opacity="1" d="M 766.804688 544.042969 L 748.886719 382.675781 C 739.621094 299.199219 687.105469 226.761719 610.644531 192 L 597.84375 185.003906 C 581.269531 175.917969 569.554688 159.972656 565.84375 141.441406 L 559.785156 111.0625 C 556.796875 96.109375 543.675781 85.34375 528.425781 85.332031 L 495.574219 85.332031 C 480.308594 85.320312 467.164062 96.09375 464.171875 111.0625 L 458.113281 141.441406 C 454.390625 159.957031 442.679688 175.886719 426.113281 184.960938 L 413.3125 192 C 404.265625 196.125 395.488281 200.8125 387.03125 206.039062 L 756.992188 575.957031 C 759.683594 578.648438 763.636719 579.632812 767.273438 578.515625 C 768.800781 578.042969 769.796875 576.570312 769.664062 574.976562 Z M 275.113281 382.71875 C 276.589844 369.355469 279.1875 356.140625 282.878906 343.210938 L 140.5 200.832031 C 124.332031 184.089844 124.5625 157.480469 141.019531 141.019531 C 157.480469 124.5625 184.089844 124.332031 200.832031 140.5 L 883.5 823.167969 C 899.667969 839.910156 899.4375 866.519531 882.980469 882.980469 C 866.519531 899.4375 839.910156 899.667969 823.167969 883.5 L 750.335938 810.667969 L 640 810.667969 C 640 881.359375 582.691406 938.667969 512 938.667969 C 441.308594 938.667969 384 881.359375 384 810.667969 L 214.613281 810.667969 C 188.777344 810.65625 166.261719 793.066406 160 768 L 159.445312 765.78125 C 153.285156 741.203125 162.199219 715.308594 182.1875 699.734375 L 197.289062 688 C 227.96875 664.132812 247.695312 628.878906 251.988281 590.25 L 275.03125 382.675781 Z M 275.113281 382.71875 "/>
</svg>
