<?xml version="1.0" encoding="UTF-8"?>
<svg xmlns="http://www.w3.org/2000/svg" xmlns:xlink="http://www.w3.org/1999/xlink" width="1024" height="1024" viewBox="0 0 1024 1024">
<path fill-rule="nonzero" fill="rgb(0%, 0%, 0%)" fill-opacity="1" d="M 546.175781 86.613281 C 531.082031 84.492188 516.585938 93.308594 511.53125 107.691406 L 501.289062 136.917969 C 495.039062 154.761719 481.214844 168.925781 463.53125 175.617188 L 449.878906 180.777344 C 369.328125 204.570312 307.246094 269 286.464844 350.378906 L 234.753906 552.660156 C 225.113281 590.316406 200.664062 622.480469 166.953125 641.835938 L 150.398438 651.390625 C 128.410156 664.011719 115.941406 688.429688 118.613281 713.644531 L 118.871094 715.902344 C 121.597656 741.613281 141.476562 762.160156 167.082031 765.738281 L 384.8125 796.375 C 376.722656 865.441406 425.257812 928.335938 494.125 938.015625 C 562.988281 947.695312 626.984375 900.621094 638.25 832 L 755.96875 848.511719 C 781.566406 852.097656 806.316406 837.84375 816 813.867188 L 816.851562 811.734375 C 826.367188 788.25 821.128906 761.363281 803.5 743.167969 L 790.1875 729.472656 C 763.113281 701.5625 748.480469 663.890625 749.609375 625.023438 L 752.597656 522.625 C 723.269531 522.011719 694.390625 515.328125 667.777344 502.996094 L 664.320312 622.550781 C 662.953125 669.738281 668.757812 713.429688 722.644531 757.675781 L 224.085938 687.617188 C 288.257812 660.011719 305.75 619.519531 317.441406 573.78125 L 369.152344 371.5 C 389.527344 291.761719 469.324219 242.429688 549.761719 259.839844 C 559.125 220.542969 579.472656 184.71875 608.425781 156.542969 C 608.226562 155 608.085938 153.449219 608 151.894531 L 606.207031 121.003906 C 605.339844 105.769531 593.839844 93.269531 578.730469 91.136719 L 546.132812 86.613281 Z M 546.175781 86.613281 "/>
<path fill-rule="nonzero" fill="rgb(0%, 0%, 0%)" fill-opacity="1" d="M 757.332031 437.332031 C 828.027344 437.332031 885.332031 380.027344 885.332031 309.332031 C 885.332031 238.640625 828.027344 181.332031 757.332031 181.332031 C 686.640625 181.332031 629.332031 238.640625 629.332031 309.332031 C 629.332031 380.027344 686.640625 437.332031 757.332031 437.332031 Z M 757.332031 437.332031 "/>
</svg>
