<?xml version="1.0" encoding="UTF-8"?>
<svg xmlns="http://www.w3.org/2000/svg" xmlns:xlink="http://www.w3.org/1999/xlink" width="1024" height="1024" viewBox="0 0 1024 1024">
<path fill-rule="evenodd" fill="rgb(0%, 0%, 0%)" fill-opacity="1" d="M 511.53125 107.820312 C 516.585938 93.4375 531.082031 84.617188 546.175781 86.742188 L 578.730469 91.308594 C 593.839844 93.4375 605.339844 105.941406 606.207031 121.171875 L 608 152.0625 C 609.082031 170.9375 618.453125 188.367188 633.601562 199.679688 L 645.332031 208.382812 C 716.210938 253.457031 758.125 332.511719 755.667969 416.46875 L 749.609375 625.195312 C 748.5 664.019531 763.136719 701.695312 790.144531 729.601562 L 803.5 743.339844 C 821.144531 761.527344 826.398438 788.410156 816.894531 811.902344 L 816.042969 814.039062 C 806.34375 838.007812 781.570312 852.292969 755.96875 848.683594 L 638.207031 832.128906 C 626.941406 900.75 562.945312 947.824219 494.082031 938.144531 C 425.214844 928.460938 376.679688 865.570312 384.769531 796.5 L 167.039062 765.910156 C 141.4375 762.308594 121.574219 741.742188 118.871094 716.03125 L 118.613281 713.769531 C 115.960938 688.570312 128.421875 664.175781 150.398438 651.5625 L 166.953125 642.003906 C 200.679688 622.65625 225.148438 590.496094 234.792969 552.832031 L 286.464844 350.507812 C 307.246094 269.128906 369.328125 204.699219 449.878906 180.90625 L 463.53125 175.785156 C 481.226562 169.089844 495.050781 154.90625 501.289062 137.046875 Z M 664.277344 622.675781 C 662.910156 669.867188 668.757812 713.601562 722.644531 757.800781 L 224.085938 687.785156 C 288.257812 660.179688 305.75 619.734375 317.441406 573.996094 L 369.152344 371.625 C 388.363281 295.964844 461.457031 246.898438 538.757812 257.769531 C 616.0625 268.644531 672.78125 335.96875 670.378906 413.996094 L 664.320312 622.71875 Z M 664.277344 622.675781 "/>
</svg>
