<?xml version="1.0" encoding="UTF-8"?>
<svg xmlns="http://www.w3.org/2000/svg" xmlns:xlink="http://www.w3.org/1999/xlink" width="1024" height="1024" viewBox="0 0 1024 1024">
<path fill-rule="nonzero" fill="rgb(0%, 0%, 0%)" fill-opacity="1" d="M 525.140625 90.964844 C 531.453125 87.125 538.902344 85.585938 546.21875 86.613281 L 578.773438 91.136719 C 593.882812 93.269531 605.382812 105.769531 606.25 121.003906 L 608.042969 151.894531 C 609.117188 170.769531 618.492188 188.203125 633.644531 199.507812 L 645.417969 208.257812 C 695.335938 240.023438 731.65625 289.222656 747.308594 346.28125 L 691.328125 402.261719 L 680.191406 391.082031 C 630.355469 341.246094 549.550781 341.246094 499.710938 391.082031 C 449.875 440.921875 449.875 521.722656 499.710938 571.5625 L 593.835938 665.683594 C 618.160156 694.246094 653.8125 710.675781 691.328125 710.613281 C 716.707031 710.710938 741.53125 703.222656 762.625 689.109375 C 769.449219 704.042969 778.792969 717.695312 790.230469 729.472656 L 803.542969 743.167969 C 821.171875 761.363281 826.410156 788.25 816.894531 811.734375 L 816.042969 813.867188 C 806.347656 837.820312 781.601562 852.101562 756.011719 848.511719 L 638.25 831.957031 C 626.984375 900.578125 562.988281 947.652344 494.125 937.972656 C 425.257812 928.292969 376.722656 865.398438 384.8125 796.332031 L 167.082031 765.738281 C 141.476562 762.160156 121.597656 741.613281 118.871094 715.902344 L 118.65625 713.644531 C 115.984375 688.429688 128.449219 664.011719 150.441406 651.390625 L 166.996094 641.835938 C 200.707031 622.480469 225.15625 590.316406 234.792969 552.660156 L 286.507812 350.378906 C 307.277344 268.984375 369.359375 204.535156 449.921875 180.734375 L 463.574219 175.617188 C 481.257812 168.925781 495.082031 154.761719 501.332031 136.917969 L 511.574219 107.691406 C 514.027344 100.714844 518.820312 94.804688 525.140625 90.964844 Z M 525.140625 90.964844 "/>
<path fill-rule="nonzero" fill="rgb(0%, 0%, 0%)" fill-opacity="1" d="M 925.867188 405.332031 C 925.996094 418.601562 920.746094 431.445312 911.359375 441.003906 L 730.238281 618.710938 C 720.449219 628.257812 707.308594 633.585938 693.632812 633.558594 C 679.9375 633.558594 666.753906 628.222656 657.066406 618.710938 L 553.558594 517.164062 C 544.171875 507.65625 538.953125 494.808594 539.050781 481.449219 C 539.179688 468.136719 544.597656 455.425781 554.199219 446.039062 C 574.28125 426.363281 606.328125 426.097656 626.730469 445.441406 L 693.632812 511.019531 L 838.1875 369.238281 C 858.589844 349.898438 890.636719 350.160156 910.71875 369.835938 C 920.320312 379.222656 925.738281 392.019531 925.867188 405.289062 Z M 925.867188 405.332031 "/>
</svg>
