<?xml version="1.0" encoding="UTF-8"?>
<svg xmlns="http://www.w3.org/2000/svg" xmlns:xlink="http://www.w3.org/1999/xlink" width="1024" height="1024" viewBox="0 0 1024 1024">
<path fill-rule="nonzero" fill="rgb(0%, 0%, 0%)" fill-opacity="1" d="M 714.753906 437.332031 C 785.445312 437.332031 842.753906 380.027344 842.753906 309.332031 C 842.753906 238.640625 785.445312 181.332031 714.753906 181.332031 C 644.058594 181.332031 586.753906 238.640625 586.753906 309.332031 C 586.753906 380.027344 644.058594 437.332031 714.753906 437.332031 Z M 714.753906 437.332031 "/>
<path fill-rule="nonzero" fill="rgb(0%, 0%, 0%)" fill-opacity="1" d="M 503.550781 86.613281 C 488.441406 84.46875 473.921875 93.292969 468.863281 107.691406 L 458.625 136.917969 C 452.382812 154.753906 438.574219 168.917969 420.90625 175.617188 L 407.253906 180.734375 C 326.691406 204.535156 264.609375 268.984375 243.839844 350.378906 L 192.128906 552.660156 C 182.480469 590.324219 158.011719 622.488281 124.289062 641.835938 L 107.734375 651.390625 C 85.757812 664.023438 73.308594 688.4375 75.988281 713.644531 L 76.203125 715.902344 C 78.929688 741.613281 98.8125 762.160156 124.414062 765.738281 L 342.1875 796.375 C 334.097656 865.441406 382.636719 928.335938 451.5 938.015625 C 520.363281 947.695312 584.359375 900.621094 595.625 832 L 713.300781 848.511719 C 738.902344 852.097656 763.648438 837.84375 773.375 813.867188 L 774.230469 811.734375 C 783.730469 788.242188 778.476562 761.355469 760.832031 743.167969 L 747.519531 729.472656 C 720.464844 701.554688 705.84375 663.882812 706.988281 625.023438 L 709.929688 522.625 C 624.035156 520.710938 547.671875 467.460938 516.1875 387.523438 C 484.699219 307.585938 504.242188 216.558594 565.761719 156.585938 C 565.558594 155.027344 565.417969 153.460938 565.332031 151.894531 L 563.542969 121.003906 C 562.671875 105.769531 551.171875 93.269531 536.0625 91.136719 L 503.507812 86.570312 Z M 503.550781 86.613281 "/>
</svg>
