<?xml version="1.0" encoding="UTF-8"?>
<svg xmlns="http://www.w3.org/2000/svg" xmlns:xlink="http://www.w3.org/1999/xlink" width="1024" height="1024" viewBox="0 0 1024 1024">
<path fill-rule="nonzero" fill="rgb(0%, 0%, 0%)" fill-opacity="1" d="M 464.214844 111.0625 C 467.199219 96.125 480.296875 85.363281 495.53125 85.332031 L 528.382812 85.332031 C 543.632812 85.34375 556.753906 96.109375 559.742188 111.0625 L 565.84375 141.441406 C 569.566406 159.957031 581.277344 175.886719 597.84375 184.960938 L 610.644531 192 C 687.097656 226.78125 739.601562 299.238281 748.84375 382.71875 L 771.882812 590.25 C 776.191406 628.863281 795.945312 664.148438 826.625 688 L 841.726562 699.734375 C 861.730469 715.296875 870.664062 741.195312 864.511719 765.78125 L 864 768 C 857.734375 793.082031 835.195312 810.675781 809.34375 810.667969 L 640 810.667969 C 640 881.359375 582.691406 938.667969 512 938.667969 C 441.308594 938.667969 384 881.359375 384 810.667969 L 214.613281 810.667969 C 188.777344 810.65625 166.261719 793.066406 160 768 L 159.445312 765.78125 C 153.285156 741.203125 162.199219 715.308594 182.1875 699.734375 L 197.289062 688 C 227.96875 664.132812 247.695312 628.878906 251.988281 590.25 L 275.03125 382.675781 C 284.308594 299.179688 336.863281 226.738281 413.355469 192 L 426.15625 185.003906 C 442.730469 175.917969 454.445312 159.972656 458.15625 141.441406 Z M 464.214844 111.0625 "/>
</svg>
