<?xml version="1.0" encoding="UTF-8"?>
<svg xmlns="http://www.w3.org/2000/svg" xmlns:xlink="http://www.w3.org/1999/xlink" width="1024" height="1024" viewBox="0 0 1024 1024">
<path fill-rule="nonzero" fill="rgb(0%, 0%, 0%)" fill-opacity="1" d="M 511.574219 107.691406 C 516.613281 93.292969 531.113281 84.453125 546.21875 86.570312 L 578.773438 91.136719 C 593.882812 93.269531 605.382812 105.769531 606.25 121.003906 L 608.042969 151.894531 C 609.125 170.765625 618.496094 188.199219 633.644531 199.507812 L 645.417969 208.257812 C 716.265625 253.332031 758.164062 332.363281 755.710938 416.296875 L 749.652344 625.023438 C 748.5 663.851562 763.136719 701.566406 790.1875 729.472656 L 803.542969 743.167969 C 821.207031 761.363281 826.460938 788.273438 816.9375 811.777344 L 816.085938 813.910156 C 806.371094 837.863281 781.601562 852.128906 756.011719 848.511719 L 638.25 831.957031 C 626.933594 900.523438 562.980469 947.535156 494.160156 937.871094 C 425.34375 928.210938 376.808594 865.402344 384.8125 796.375 L 167.082031 765.738281 C 141.476562 762.160156 121.597656 741.613281 118.871094 715.902344 L 118.65625 713.644531 C 115.984375 688.429688 128.449219 664.011719 150.441406 651.390625 L 166.996094 641.878906 C 200.722656 622.53125 225.191406 590.367188 234.835938 552.703125 L 286.507812 350.378906 C 307.289062 269 369.371094 204.570312 449.921875 180.777344 L 463.574219 175.617188 C 481.257812 168.925781 495.082031 154.761719 501.332031 136.917969 Z M 511.574219 107.691406 "/>
</svg>
