<?xml version="1.0" encoding="UTF-8"?>
<svg xmlns="http://www.w3.org/2000/svg" xmlns:xlink="http://www.w3.org/1999/xlink" width="1024" height="1024" viewBox="0 0 1024 1024">
<path fill-rule="evenodd" fill="rgb(0%, 0%, 0%)" fill-opacity="1" d="M 220.289062 162.945312 C 213.332031 176.597656 213.332031 194.515625 213.332031 230.398438 L 213.332031 793.601562 C 213.332031 829.441406 213.332031 847.359375 220.289062 861.054688 C 226.433594 873.09375 236.230469 882.875 248.277344 889.003906 C 261.929688 896 279.851562 896 315.734375 896 L 324.265625 896 C 360.105469 896 378.027344 896 391.722656 889.046875 C 403.777344 882.90625 413.574219 873.109375 419.710938 861.054688 C 426.667969 847.402344 426.667969 829.484375 426.667969 793.601562 L 426.667969 230.398438 C 426.667969 194.558594 426.667969 176.640625 419.710938 162.945312 C 413.574219 150.890625 403.777344 141.09375 391.722656 134.953125 C 378.070312 128 360.148438 128 324.265625 128 L 315.734375 128 C 279.894531 128 261.972656 128 248.277344 134.953125 C 236.222656 141.09375 226.425781 150.890625 220.289062 162.945312 Z M 604.289062 162.945312 C 597.332031 176.597656 597.332031 194.515625 597.332031 230.398438 L 597.332031 793.601562 C 597.332031 829.441406 597.332031 847.359375 604.332031 861.054688 C 610.464844 873.085938 620.246094 882.867188 632.277344 889.003906 C 645.929688 896 663.851562 896 699.734375 896 L 708.265625 896 C 744.105469 896 762.027344 896 775.722656 889.046875 C 787.761719 882.898438 797.542969 873.101562 803.667969 861.054688 C 810.667969 847.402344 810.667969 829.484375 810.667969 793.601562 L 810.667969 230.398438 C 810.667969 194.558594 810.667969 176.640625 803.710938 162.945312 C 797.574219 150.890625 787.777344 141.09375 775.722656 134.953125 C 762.070312 128 744.148438 128 708.265625 128 L 699.734375 128 C 663.894531 128 645.972656 128 632.277344 134.953125 C 620.238281 141.101562 610.457031 150.898438 604.332031 162.945312 Z M 604.289062 162.945312 "/>
</svg>
