<?xml version="1.0" encoding="UTF-8"?>
<svg xmlns="http://www.w3.org/2000/svg" xmlns:xlink="http://www.w3.org/1999/xlink" width="1024" height="1024" viewBox="0 0 1024 1024">
<path fill-rule="evenodd" fill="rgb(0%, 0%, 0%)" fill-opacity="1" d="M 387.285156 128 L 295.382812 128 C 266.835938 128 256.511719 130.988281 246.058594 136.535156 C 235.648438 142.121094 227.457031 150.316406 221.867188 160.726562 C 216.320312 171.179688 213.332031 181.503906 213.332031 210.046875 L 213.332031 813.953125 C 213.332031 842.496094 216.320312 852.820312 221.867188 863.273438 C 227.457031 873.683594 235.648438 881.878906 246.058594 887.464844 C 256.511719 893.011719 266.835938 896 295.382812 896 L 387.285156 896 C 415.828125 896 426.15625 893.011719 436.609375 887.464844 C 447.019531 881.878906 455.210938 873.683594 460.800781 863.273438 C 466.347656 852.820312 469.332031 842.496094 469.332031 813.953125 L 469.332031 210.046875 C 469.332031 181.503906 466.347656 171.179688 460.800781 160.726562 C 455.34375 150.417969 446.914062 141.988281 436.609375 136.535156 C 426.15625 130.988281 415.828125 128 387.285156 128 Z M 728.617188 128 L 636.714844 128 C 608.171875 128 597.84375 130.988281 587.390625 136.535156 C 576.980469 142.121094 568.789062 150.316406 563.199219 160.726562 C 557.652344 171.179688 554.667969 181.503906 554.667969 210.046875 L 554.667969 813.953125 C 554.667969 842.496094 557.652344 852.820312 563.199219 863.273438 C 568.789062 873.683594 576.980469 881.878906 587.390625 887.464844 C 597.84375 893.011719 608.171875 896 636.714844 896 L 728.617188 896 C 757.164062 896 767.488281 893.011719 777.941406 887.464844 C 788.351562 881.878906 796.542969 873.683594 802.132812 863.273438 C 807.679688 852.820312 810.667969 842.496094 810.667969 813.953125 L 810.667969 210.046875 C 810.667969 181.503906 807.679688 171.179688 802.132812 160.726562 C 796.675781 150.417969 788.25 141.988281 777.941406 136.535156 C 767.488281 130.988281 757.164062 128 728.617188 128 Z M 298.667969 213.332031 L 298.667969 810.667969 L 384 810.667969 L 384 213.332031 Z M 725.332031 810.667969 L 640 810.667969 L 640 213.332031 L 725.332031 213.332031 Z M 725.332031 810.667969 "/>
</svg>
