<?xml version="1.0" encoding="UTF-8"?>
<svg xmlns="http://www.w3.org/2000/svg" xmlns:xlink="http://www.w3.org/1999/xlink" width="1024" height="1024" viewBox="0 0 1024 1024">
<path fill-rule="evenodd" fill="rgb(0%, 0%, 0%)" fill-opacity="1" d="M 309.332031 448 C 220.96875 448 149.332031 376.367188 149.332031 288 C 149.332031 199.632812 220.96875 128 309.332031 128 C 397.699219 128 469.332031 199.632812 469.332031 288 C 469.332031 376.367188 397.699219 448 309.332031 448 Z M 243.5 840.832031 C 226.757812 857 200.144531 856.769531 183.6875 840.3125 C 167.230469 823.855469 167 797.242188 183.167969 780.5 L 780.5 183.167969 C 791.214844 172.078125 807.078125 167.628906 821.996094 171.53125 C 836.914062 175.4375 848.5625 187.085938 852.46875 202.003906 C 856.371094 216.921875 851.921875 232.785156 840.832031 243.5 Z M 554.667969 736 C 554.667969 824.367188 626.300781 896 714.667969 896 C 803.03125 896 874.667969 824.367188 874.667969 736 C 874.667969 647.632812 803.03125 576 714.667969 576 C 626.300781 576 554.667969 647.632812 554.667969 736 Z M 309.332031 362.667969 C 350.570312 362.667969 384 329.238281 384 288 C 384 246.761719 350.570312 213.332031 309.332031 213.332031 C 268.097656 213.332031 234.667969 246.761719 234.667969 288 C 234.667969 329.238281 268.097656 362.667969 309.332031 362.667969 Z M 789.332031 736 C 789.332031 777.238281 755.902344 810.667969 714.667969 810.667969 C 673.429688 810.667969 640 777.238281 640 736 C 640 694.761719 673.429688 661.332031 714.667969 661.332031 C 755.902344 661.332031 789.332031 694.761719 789.332031 736 Z M 789.332031 736 "/>
</svg>
