<?xml version="1.0" encoding="UTF-8"?>
<svg xmlns="http://www.w3.org/2000/svg" xmlns:xlink="http://www.w3.org/1999/xlink" width="1024" height="1024" viewBox="0 0 1024 1024">
<path fill-rule="evenodd" fill="rgb(0%, 0%, 0%)" fill-opacity="1" d="M 631.253906 85.332031 L 392.746094 85.332031 C 345.171875 85.332031 327.9375 90.28125 310.570312 99.585938 C 293.390625 108.679688 279.34375 122.726562 270.25 139.902344 C 260.949219 157.269531 256 174.507812 256 222.078125 L 256 801.921875 C 256 849.449219 260.949219 866.730469 270.25 884.097656 C 279.550781 901.460938 293.207031 915.113281 310.570312 924.414062 C 327.9375 933.71875 345.171875 938.667969 392.746094 938.667969 L 631.253906 938.667969 C 678.785156 938.667969 696.0625 933.71875 713.429688 924.414062 C 730.792969 915.113281 744.449219 901.460938 753.75 884.097656 C 763.050781 866.730469 768 849.492188 768 801.921875 L 768 222.078125 C 768 174.507812 763.050781 157.269531 753.75 139.902344 C 744.65625 122.726562 730.609375 108.679688 713.429688 99.585938 C 696.0625 90.28125 678.828125 85.332031 631.253906 85.332031 Z M 341.332031 767.785156 L 341.332031 256.214844 L 682.667969 256.214844 L 682.667969 767.785156 Z M 341.332031 767.785156 "/>
</svg>
