<?xml version="1.0" encoding="UTF-8"?>
<svg xmlns="http://www.w3.org/2000/svg" xmlns:xlink="http://www.w3.org/1999/xlink" width="1024" height="1024" viewBox="0 0 1024 1024">
<path fill-rule="nonzero" fill="rgb(0%, 0%, 0%)" fill-opacity="1" d="M 128 320 C 128 346.878906 153.601562 422.398438 153.601562 422.398438 C 166.398438 454.398438 217.601562 588.800781 332.800781 691.199219 C 435.199219 800 569.601562 864 608 883.199219 L 704 896 C 723.199219 896 793.601562 896 832 857.601562 C 864 832 876.800781 812.800781 876.800781 806.398438 C 876.800781 806.398438 902.398438 729.601562 896 723.199219 C 883.199219 710.398438 723.199219 614.398438 704 620.800781 C 704 620.800781 608 710.398438 601.601562 710.398438 C 595.199219 710.398438 492.800781 699.519531 428.800781 640 C 352 568.320312 320 448 320 448 C 320 448 320 422.398438 332.800781 416 C 345.601562 403.199219 396.800781 352 396.800781 332.800781 C 416 288 313.601562 128 300.800781 128 C 300.800781 128 254.078125 123.5625 217.601562 140.800781 C 185.601562 155.5625 169.601562 171.519531 153.601562 202.921875 C 124.800781 260.523438 128 292.523438 128 320.042969 Z M 128 320 "/>
</svg>
