<?xml version="1.0" encoding="UTF-8"?>
<svg xmlns="http://www.w3.org/2000/svg" xmlns:xlink="http://www.w3.org/1999/xlink" width="1024" height="1024" viewBox="0 0 1024 1024">
<path fill-rule="evenodd" fill="rgb(0%, 0%, 0%)" fill-opacity="1" d="M 840.832031 883.5 C 857.488281 866.835938 857.488281 839.828125 840.832031 823.167969 L 158.164062 140.5 C 141.425781 124.332031 114.8125 124.5625 98.355469 141.019531 C 81.894531 157.480469 81.664062 184.089844 97.835938 200.832031 L 256 358.996094 L 256 824.148438 C 256.007812 847.328125 268.550781 868.691406 288.789062 879.996094 C 309.023438 891.300781 333.792969 890.78125 353.535156 878.632812 L 614.828125 717.824219 L 780.5 883.5 C 797.164062 900.15625 824.171875 900.15625 840.832031 883.5 Z M 860.757812 566.484375 L 764.246094 625.878906 L 284.757812 146.433594 C 305.488281 132.613281 332.386719 132.195312 353.535156 145.367188 L 860.757812 457.472656 C 879.6875 469.121094 891.214844 489.753906 891.214844 511.980469 C 891.214844 534.203125 879.6875 554.835938 860.757812 566.484375 Z M 860.757812 566.484375 "/>
</svg>
