<?xml version="1.0" encoding="UTF-8"?>
<svg xmlns="http://www.w3.org/2000/svg" xmlns:xlink="http://www.w3.org/1999/xlink" width="1024" height="1024" viewBox="0 0 1024 1024">
<path fill-rule="evenodd" fill="rgb(0%, 0%, 0%)" fill-opacity="1" d="M 512 128 C 488.4375 128 469.332031 147.101562 469.332031 170.667969 L 469.332031 469.332031 L 170.667969 469.332031 C 147.101562 469.332031 128 488.4375 128 512 C 128 535.5625 147.101562 554.667969 170.667969 554.667969 L 469.332031 554.667969 L 469.332031 853.332031 C 469.332031 876.898438 488.4375 896 512 896 C 535.5625 896 554.667969 876.898438 554.667969 853.332031 L 554.667969 554.667969 L 853.332031 554.667969 C 876.898438 554.667969 896 535.5625 896 512 C 896 488.4375 876.898438 469.332031 853.332031 469.332031 L 554.667969 469.332031 L 554.667969 170.667969 C 554.667969 147.101562 535.5625 128 512 128 Z M 512 128 "/>
</svg>
