<?xml version="1.0" encoding="UTF-8"?>
<svg xmlns="http://www.w3.org/2000/svg" xmlns:xlink="http://www.w3.org/1999/xlink" width="1024" height="1024" viewBox="0 0 1024 1024">
<path fill-rule="evenodd" fill="rgb(0%, 0%, 0%)" fill-opacity="1" d="M 938.667969 512 C 938.667969 747.648438 747.648438 938.667969 512 938.667969 C 276.351562 938.667969 85.332031 747.648438 85.332031 512 C 85.332031 276.351562 276.351562 85.332031 512 85.332031 C 747.648438 85.332031 938.667969 276.351562 938.667969 512 Z M 853.332031 512 C 853.332031 700.511719 700.511719 853.332031 512 853.332031 C 323.488281 853.332031 170.667969 700.511719 170.667969 512 C 170.667969 323.488281 323.488281 170.667969 512 170.667969 C 700.511719 170.667969 853.332031 323.488281 853.332031 512 Z M 298.667969 554.667969 C 275.101562 554.667969 256 535.5625 256 512 C 256 488.4375 275.101562 469.332031 298.667969 469.332031 L 469.332031 469.332031 L 469.332031 298.667969 C 469.332031 275.101562 488.4375 256 512 256 C 535.5625 256 554.667969 275.101562 554.667969 298.667969 L 554.667969 469.332031 L 725.332031 469.417969 C 748.898438 469.417969 768 488.519531 768 512.085938 C 768 535.648438 748.898438 554.753906 725.332031 554.753906 L 554.667969 554.667969 L 554.667969 725.332031 C 554.667969 748.898438 535.5625 768 512 768 C 488.4375 768 469.332031 748.898438 469.332031 725.332031 L 469.332031 554.667969 Z M 298.667969 554.667969 "/>
</svg>
