<?xml version="1.0" encoding="UTF-8"?>
<svg xmlns="http://www.w3.org/2000/svg" xmlns:xlink="http://www.w3.org/1999/xlink" width="1024" height="1024" viewBox="0 0 1024 1024">
<path fill-rule="evenodd" fill="rgb(0%, 0%, 0%)" fill-opacity="1" d="M 512 612.265625 C 373.332031 612.265625 298.667969 476.800781 298.667969 325.332031 C 298.667969 177.066406 384 85.332031 512 85.332031 C 640 85.332031 725.332031 177.066406 725.332031 325.332031 C 725.332031 476.800781 650.667969 612.265625 512 612.265625 Z M 512 526.933594 C 586.238281 526.933594 640 448.042969 640 325.332031 C 640 223.828125 592.128906 170.667969 512 170.667969 C 431.871094 170.667969 384 223.828125 384 325.332031 C 384 448.042969 437.761719 526.933594 512 526.933594 Z M 210.773438 938.582031 C 234.289062 939.992188 254.496094 922.074219 255.914062 898.558594 C 260.863281 816.554688 343.082031 768 512.171875 768 C 681.128906 768 763.179688 816.46875 768.171875 898.558594 C 770.027344 921.71875 790.070312 939.136719 813.261719 937.742188 C 836.453125 936.347656 854.265625 916.65625 853.332031 893.441406 C 845.011719 756.136719 720.640625 682.667969 512.171875 682.667969 C 303.53125 682.667969 178.945312 756.222656 170.753906 893.441406 C 169.34375 916.957031 187.257812 937.164062 210.773438 938.582031 Z M 210.773438 938.582031 "/>
</svg>
