<?xml version="1.0" encoding="UTF-8"?>
<svg xmlns="http://www.w3.org/2000/svg" xmlns:xlink="http://www.w3.org/1999/xlink" width="1024" height="1024" viewBox="0 0 1024 1024">
<path fill-rule="evenodd" fill="rgb(0%, 0%, 0%)" fill-opacity="1" d="M 704 301.355469 C 704 437.675781 621.652344 554.667969 512 554.667969 C 402.261719 554.667969 320 437.675781 320 301.3125 C 320 165.035156 390.828125 85.332031 512 85.332031 C 633.171875 85.332031 704 164.992188 704 301.355469 Z M 175.019531 859.390625 C 191.445312 878.933594 262.1875 938.667969 512 938.667969 C 761.8125 938.667969 832.511719 878.933594 848.980469 859.433594 C 852.070312 855.648438 853.457031 850.753906 852.820312 845.910156 C 849.066406 808.277344 815.1875 640 512 640 C 208.8125 640 174.933594 808.277344 171.136719 845.910156 C 170.511719 850.761719 171.917969 855.652344 175.019531 859.433594 Z M 175.019531 859.390625 "/>
</svg>
