<?xml version="1.0" encoding="UTF-8"?>
<svg xmlns="http://www.w3.org/2000/svg" xmlns:xlink="http://www.w3.org/1999/xlink" width="1024" height="1024" viewBox="0 0 1024 1024">
<path fill-rule="evenodd" fill="rgb(0%, 0%, 0%)" fill-opacity="1" d="M 938.667969 234.667969 C 938.667969 317.140625 871.808594 384 789.332031 384 C 706.859375 384 640 317.140625 640 234.667969 C 640 152.191406 706.859375 85.332031 789.332031 85.332031 C 871.808594 85.332031 938.667969 152.191406 938.667969 234.667969 Z M 213.289062 234.667969 C 213.273438 223.351562 222.089844 213.988281 233.386719 213.332031 L 512 213.546875 C 535.5625 213.546875 554.667969 194.445312 554.667969 170.878906 C 554.667969 147.316406 535.5625 128.214844 512 128.214844 L 234.667969 128 C 175.757812 128 128 175.757812 128 234.667969 L 128 771.285156 C 128 803.710938 131.542969 821.84375 141.652344 840.703125 C 151.167969 858.582031 165.460938 872.832031 183.339844 882.390625 C 202.199219 892.5 220.289062 896 252.757812 896 L 771.328125 896 C 803.753906 896 821.886719 892.5 840.746094 882.390625 C 858.625 872.832031 872.875 858.582031 882.433594 840.703125 C 892.542969 821.84375 896.042969 803.753906 896.042969 771.285156 L 896.042969 512 C 896.042969 488.4375 876.941406 469.332031 853.375 469.332031 C 829.8125 469.332031 810.710938 488.4375 810.710938 512 L 810.710938 771.285156 C 810.710938 790.871094 809.769531 795.605469 807.210938 800.46875 C 805.730469 803.347656 803.390625 805.691406 800.511719 807.167969 C 795.691406 809.726562 790.910156 810.667969 771.328125 810.667969 L 252.714844 810.667969 C 233.128906 810.667969 228.351562 809.726562 223.53125 807.167969 C 220.652344 805.691406 218.308594 803.347656 216.832031 800.46875 C 214.273438 795.648438 213.332031 790.871094 213.332031 771.285156 Z M 213.289062 234.667969 "/>
</svg>
