<?xml version="1.0" encoding="UTF-8"?>
<svg xmlns="http://www.w3.org/2000/svg" xmlns:xlink="http://www.w3.org/1999/xlink" width="1024" height="1024" viewBox="0 0 1024 1024">
<path fill-rule="evenodd" fill="rgb(0%, 0%, 0%)" fill-opacity="1" d="M 896 320.214844 C 896 355.558594 867.347656 384.214844 832 384.214844 L 704 384.214844 C 668.652344 384.214844 640 355.558594 640 320.214844 L 640 192 C 640 156.652344 668.652344 128 704 128 L 832 128 C 867.347656 128 896 156.652344 896 192 Z M 384 320 L 384 192.171875 C 384 156.859375 355.398438 128.21875 320.085938 128.171875 L 192.085938 128.042969 C 156.722656 127.996094 128.023438 156.636719 128 192 L 128 320 C 128 355.347656 156.652344 384 192 384 L 320 384 C 355.347656 384 384 355.347656 384 320 Z M 213.332031 298.667969 L 213.332031 213.375 L 298.667969 213.460938 L 298.667969 298.667969 Z M 191.914062 640.171875 L 319.914062 640.042969 C 355.277344 639.996094 383.976562 668.636719 384 704 L 384 832 C 384 867.347656 355.347656 896 320 896 L 192 896 C 156.652344 896 128 867.347656 128 832 L 128 704.171875 C 128 668.859375 156.601562 640.21875 191.914062 640.171875 Z M 298.667969 810.667969 L 213.332031 810.667969 L 213.332031 725.460938 L 298.667969 725.375 Z M 810.667969 213.332031 L 810.667969 298.878906 L 725.332031 298.878906 L 725.332031 213.332031 Z M 810.667969 682.667969 C 810.667969 659.101562 829.769531 640 853.332031 640 C 876.898438 640 896 659.101562 896 682.667969 L 896 832 C 896 867.3125 867.398438 895.953125 832.085938 896 L 682.753906 896.214844 C 659.1875 896.25 640.058594 877.175781 640.019531 853.609375 C 639.984375 830.046875 659.058594 810.914062 682.625 810.878906 L 810.667969 810.667969 Z M 469.332031 170.667969 L 469.332031 469.332031 L 170.667969 469.332031 C 147.101562 469.332031 128 488.4375 128 512 C 128 535.5625 147.101562 554.667969 170.667969 554.667969 L 512 554.667969 C 535.5625 554.667969 554.667969 535.5625 554.667969 512 L 554.667969 170.667969 C 554.667969 147.101562 535.5625 128 512 128 C 488.4375 128 469.332031 147.101562 469.332031 170.667969 Z M 554.667969 853.332031 C 554.667969 876.898438 535.5625 896 512 896 C 488.4375 896 469.332031 876.898438 469.332031 853.332031 L 469.332031 682.667969 C 469.332031 659.101562 488.4375 640 512 640 C 535.5625 640 554.667969 659.101562 554.667969 682.667969 Z M 682.667969 725.332031 C 706.230469 725.332031 725.332031 706.230469 725.332031 682.667969 L 725.332031 554.667969 L 853.332031 554.667969 C 876.898438 554.667969 896 535.5625 896 512 C 896 488.4375 876.898438 469.332031 853.332031 469.332031 L 682.667969 469.332031 C 659.101562 469.332031 640 488.4375 640 512 L 640 682.667969 C 640 706.230469 659.101562 725.332031 682.667969 725.332031 Z M 682.667969 725.332031 "/>
</svg>
