<?xml version="1.0" encoding="UTF-8"?>
<svg xmlns="http://www.w3.org/2000/svg" xmlns:xlink="http://www.w3.org/1999/xlink" width="1024" height="1024" viewBox="0 0 1024 1024">
<path fill-rule="evenodd" fill="rgb(0%, 0%, 0%)" fill-opacity="1" d="M 512 938.667969 C 747.648438 938.667969 938.667969 747.648438 938.667969 512 C 938.667969 276.351562 747.648438 85.332031 512 85.332031 C 276.351562 85.332031 85.332031 276.351562 85.332031 512 C 85.332031 747.648438 276.351562 938.667969 512 938.667969 Z M 512 853.332031 C 700.523438 853.332031 853.355469 700.503906 853.355469 511.980469 C 853.355469 323.453125 700.523438 170.625 512 170.625 C 323.476562 170.625 170.644531 323.453125 170.644531 511.980469 C 170.644531 700.503906 323.476562 853.332031 512 853.332031 Z M 700.585938 635.476562 C 705.054688 625.074219 705.195312 613.320312 700.988281 602.8125 C 696.777344 592.300781 688.558594 583.898438 678.144531 579.457031 L 554.667969 526.507812 L 554.667969 298.667969 C 554.667969 275.101562 535.5625 256 512 256 C 488.4375 256 469.332031 275.101562 469.332031 298.667969 L 469.332031 540.585938 C 469.332031 566.1875 484.609375 589.355469 508.160156 599.425781 L 644.523438 657.878906 C 666.179688 667.160156 691.257812 657.132812 700.542969 635.476562 Z M 700.585938 635.476562 "/>
</svg>
