<?xml version="1.0" encoding="UTF-8"?>
<svg xmlns="http://www.w3.org/2000/svg" xmlns:xlink="http://www.w3.org/1999/xlink" width="1024" height="1024" viewBox="0 0 1024 1024">
<path fill-rule="evenodd" fill="rgb(0%, 0%, 0%)" fill-opacity="1" d="M 938.667969 512 C 938.667969 747.648438 747.648438 938.667969 512 938.667969 C 276.351562 938.667969 85.332031 747.648438 85.332031 512 C 85.332031 276.351562 276.351562 85.332031 512 85.332031 C 747.648438 85.332031 938.667969 276.351562 938.667969 512 Z M 743.210938 653.824219 C 752.492188 632.167969 742.464844 607.089844 720.8125 597.800781 L 554.667969 526.550781 L 554.667969 277.332031 C 554.667969 253.769531 535.5625 234.667969 512 234.667969 C 488.4375 234.667969 469.332031 253.769531 469.332031 277.332031 L 469.332031 540.585938 C 469.332031 566.1875 484.566406 589.355469 508.117188 599.425781 L 687.1875 676.222656 C 708.84375 685.503906 733.925781 675.476562 743.210938 653.824219 Z M 743.210938 653.824219 "/>
</svg>
