<?xml version="1.0" encoding="UTF-8"?>
<svg xmlns="http://www.w3.org/2000/svg" xmlns:xlink="http://www.w3.org/1999/xlink" width="1024" height="1024" viewBox="0 0 1024 1024">
<path fill-rule="evenodd" fill="rgb(0%, 0%, 0%)" fill-opacity="1" d="M 512 93.054688 C 512.007812 81.15625 518.621094 70.246094 529.160156 64.730469 C 539.703125 59.210938 552.4375 60 562.21875 66.773438 L 751.316406 197.675781 C 759.964844 203.648438 765.125 213.488281 765.125 224 C 765.125 234.511719 759.964844 244.351562 751.316406 250.324219 L 562.21875 381.226562 C 552.441406 387.996094 539.71875 388.789062 529.179688 383.28125 C 518.640625 377.773438 512.023438 366.878906 512 354.988281 L 512 256 C 347.050781 256 213.332031 389.71875 213.332031 554.667969 C 213.332031 719.617188 347.050781 853.332031 512 853.332031 C 676.949219 853.332031 810.667969 719.617188 810.667969 554.667969 C 810.667969 531.101562 829.769531 512 853.332031 512 C 876.898438 512 896 531.101562 896 554.667969 C 896 766.742188 724.078125 938.667969 512 938.667969 C 299.921875 938.667969 128 766.742188 128 554.667969 C 128 342.589844 299.921875 170.667969 512 170.667969 Z M 512 93.054688 "/>
</svg>
