<?xml version="1.0" encoding="UTF-8"?>
<svg xmlns="http://www.w3.org/2000/svg" xmlns:xlink="http://www.w3.org/1999/xlink" width="1024" height="1024" viewBox="0 0 1024 1024">
<path fill-rule="evenodd" fill="rgb(0%, 0%, 0%)" fill-opacity="1" d="M 139.777344 221.140625 C 132.117188 231.957031 128 244.878906 128 258.132812 L 128 765.867188 C 128 789.792969 141.347656 811.722656 162.601562 822.714844 C 183.855469 833.703125 209.464844 831.921875 228.992188 818.089844 L 512 617.726562 L 512 762.878906 C 512.007812 787.023438 525.597656 809.105469 547.148438 819.988281 C 568.699219 830.871094 594.539062 828.703125 613.972656 814.378906 L 954.15625 563.5 C 970.523438 551.433594 980.183594 532.3125 980.183594 511.980469 C 980.183594 491.644531 970.523438 472.523438 954.15625 460.457031 L 613.972656 209.578125 C 594.535156 195.25 568.683594 193.082031 547.128906 203.976562 C 525.578125 214.871094 511.992188 236.96875 512 261.121094 L 512 406.273438 L 228.992188 205.910156 C 200.148438 185.480469 160.207031 192.300781 139.777344 221.140625 Z M 213.332031 299.347656 L 213.332031 724.609375 L 513.664062 512 Z M 880.214844 512 L 597.332031 720.640625 L 597.332031 303.359375 Z M 880.214844 512 "/>
</svg>
