<?xml version="1.0" encoding="UTF-8"?>
<svg xmlns="http://www.w3.org/2000/svg" xmlns:xlink="http://www.w3.org/1999/xlink" width="1024" height="1024" viewBox="0 0 1024 1024">
<path fill-rule="evenodd" fill="rgb(0%, 0%, 0%)" fill-opacity="1" d="M 170.667969 199.851562 C 170.675781 176.671875 183.21875 155.308594 203.453125 144.003906 C 223.691406 132.699219 248.460938 133.21875 268.203125 145.367188 L 725.332031 426.667969 L 725.332031 213.332031 C 725.332031 189.769531 744.4375 170.667969 768 170.667969 C 791.5625 170.667969 810.667969 189.769531 810.667969 213.332031 L 810.667969 810.667969 C 810.667969 834.230469 791.5625 853.332031 768 853.332031 C 744.4375 853.332031 725.332031 834.230469 725.332031 810.667969 L 725.332031 597.332031 L 268.203125 878.632812 C 248.460938 890.78125 223.691406 891.300781 203.453125 879.996094 C 183.21875 868.691406 170.675781 847.328125 170.667969 824.148438 Z M 256 785.960938 L 701.183594 512 L 256 238.078125 Z M 256 785.960938 "/>
</svg>
