<?xml version="1.0" encoding="UTF-8"?>
<svg xmlns="http://www.w3.org/2000/svg" xmlns:xlink="http://www.w3.org/1999/xlink" width="1024" height="1024" viewBox="0 0 1024 1024">
<path fill-rule="evenodd" fill="rgb(0%, 0%, 0%)" fill-opacity="1" d="M 170.667969 199.851562 C 170.675781 176.671875 183.21875 155.308594 203.453125 144.003906 C 223.691406 132.699219 248.460938 133.21875 268.203125 145.367188 L 768 452.90625 L 768 213.332031 C 768 189.769531 787.101562 170.667969 810.667969 170.667969 C 834.230469 170.667969 853.332031 189.769531 853.332031 213.332031 L 853.332031 810.667969 C 853.332031 834.230469 834.230469 853.332031 810.667969 853.332031 C 787.101562 853.332031 768 834.230469 768 810.667969 L 768 571.050781 L 268.203125 878.675781 C 248.445312 890.832031 223.660156 891.34375 203.417969 880.019531 C 183.175781 868.695312 170.644531 847.300781 170.667969 824.105469 Z M 170.667969 199.851562 "/>
</svg>
