<?xml version="1.0" encoding="UTF-8"?>
<svg xmlns="http://www.w3.org/2000/svg" xmlns:xlink="http://www.w3.org/1999/xlink" width="1024" height="1024" viewBox="0 0 1024 1024">
<path fill-rule="evenodd" fill="rgb(0%, 0%, 0%)" fill-opacity="1" d="M 296.960938 176.214844 C 288.664062 167.949219 285.546875 155.816406 288.828125 144.574219 C 292.109375 133.335938 301.265625 124.785156 312.703125 122.28125 L 516.097656 77.695312 C 526.75 75.363281 537.855469 78.617188 545.566406 86.328125 C 553.273438 94.039062 556.527344 105.144531 554.199219 115.796875 L 509.566406 319.1875 C 507.058594 330.597656 498.527344 339.734375 487.316406 343.019531 C 476.109375 346.308594 463.996094 343.222656 455.722656 334.976562 L 296.917969 176.171875 Z M 584.40625 964.054688 C 657.453125 964.054688 716.671875 904.835938 716.671875 831.785156 C 716.671875 758.738281 657.453125 699.519531 584.40625 699.519531 C 511.355469 699.519531 452.136719 758.738281 452.136719 831.785156 C 452.136719 904.835938 511.355469 964.054688 584.40625 964.054688 Z M 316.03125 315.863281 C 299.371094 299.203125 272.363281 299.203125 255.703125 315.863281 L 157.441406 414.078125 C 86.683594 484.828125 86.683594 599.542969 157.441406 670.292969 L 157.609375 670.421875 C 228.488281 741.117188 343.230469 741.0625 414.039062 670.292969 L 670.25 414.078125 C 707.796875 376.535156 768.597656 376.535156 806.144531 413.996094 C 843.605469 451.371094 843.648438 512.042969 806.273438 549.503906 L 806.1875 549.546875 L 730.667969 625.066406 C 713.996094 641.726562 713.984375 668.746094 730.644531 685.417969 C 747.304688 702.089844 774.324219 702.101562 790.996094 685.441406 L 866.6875 609.75 C 937.332031 538.921875 937.199219 424.242188 866.390625 353.578125 C 795.511719 282.882812 680.769531 282.9375 609.960938 353.707031 L 353.707031 609.921875 C 316.203125 647.464844 255.402344 647.464844 217.8125 609.921875 C 180.425781 572.503906 180.425781 511.871094 217.8125 474.453125 L 316.03125 376.191406 C 332.6875 359.53125 332.6875 332.523438 316.03125 315.863281 Z M 316.03125 315.863281 "/>
</svg>
