<?xml version="1.0" encoding="UTF-8"?>
<svg xmlns="http://www.w3.org/2000/svg" xmlns:xlink="http://www.w3.org/1999/xlink" width="1024" height="1024" viewBox="0 0 1024 1024">
<path fill-rule="evenodd" fill="rgb(0%, 0%, 0%)" fill-opacity="1" d="M 213.332031 341.332031 C 213.332031 364.898438 194.230469 384 170.667969 384 C 147.101562 384 128 364.898438 128 341.332031 L 128 252.714844 C 128 220.289062 131.5 202.15625 141.609375 183.296875 C 151.125 165.417969 165.417969 151.125 183.296875 141.609375 C 202.15625 131.5 220.246094 128 252.714844 128 L 341.332031 128 C 364.898438 128 384 147.101562 384 170.667969 C 384 194.230469 364.898438 213.332031 341.332031 213.332031 L 252.714844 213.332031 C 233.128906 213.332031 228.394531 214.273438 223.53125 216.832031 C 220.65625 218.3125 218.3125 220.65625 216.832031 223.53125 C 214.273438 228.351562 213.332031 233.128906 213.332031 252.714844 Z M 341.332031 810.667969 C 364.898438 810.667969 384 829.769531 384 853.332031 C 384 876.898438 364.898438 896 341.332031 896 L 252.714844 896 C 220.289062 896 202.15625 892.5 183.296875 882.390625 C 165.558594 872.957031 151.042969 858.441406 141.609375 840.703125 C 131.5 821.84375 128 803.753906 128 771.285156 L 128 682.667969 C 128 659.101562 147.101562 640 170.667969 640 C 194.230469 640 213.332031 659.101562 213.332031 682.667969 L 213.332031 771.285156 C 213.332031 790.871094 214.273438 795.605469 216.832031 800.46875 C 218.453125 803.457031 220.542969 805.589844 223.53125 807.167969 C 228.351562 809.726562 233.128906 810.667969 252.714844 810.667969 Z M 640 170.667969 C 640 194.230469 659.101562 213.332031 682.667969 213.332031 L 771.285156 213.332031 C 790.871094 213.332031 795.605469 214.273438 800.46875 216.832031 C 803.457031 218.453125 805.589844 220.542969 807.167969 223.53125 C 809.726562 228.351562 810.667969 233.128906 810.667969 252.714844 L 810.667969 341.332031 C 810.667969 364.898438 829.769531 384 853.332031 384 C 876.898438 384 896 364.898438 896 341.332031 L 896 252.714844 C 896 220.289062 892.5 202.15625 882.390625 183.296875 C 872.957031 165.558594 858.441406 151.042969 840.703125 141.609375 C 821.84375 131.5 803.753906 128 771.285156 128 L 682.667969 128 C 659.101562 128 640 147.101562 640 170.667969 Z M 810.667969 682.667969 C 810.667969 659.101562 829.769531 640 853.332031 640 C 876.898438 640 896 659.101562 896 682.667969 L 896 771.285156 C 896 803.710938 892.5 821.84375 882.390625 840.703125 C 872.957031 858.441406 858.441406 872.957031 840.703125 882.390625 C 821.84375 892.5 803.753906 896 771.285156 896 L 682.667969 896 C 659.101562 896 640 876.898438 640 853.332031 C 640 829.769531 659.101562 810.667969 682.667969 810.667969 L 771.285156 810.667969 C 790.871094 810.667969 795.605469 809.726562 800.46875 807.167969 C 803.347656 805.691406 805.691406 803.347656 807.167969 800.46875 C 809.726562 795.648438 810.667969 790.871094 810.667969 771.285156 Z M 128 469.332031 C 104.4375 469.332031 85.332031 488.4375 85.332031 512 C 85.332031 535.5625 104.4375 554.667969 128 554.667969 L 896 554.667969 C 919.5625 554.667969 938.667969 535.5625 938.667969 512 C 938.667969 488.4375 919.5625 469.332031 896 469.332031 Z M 128 469.332031 "/>
</svg>
