<?xml version="1.0" encoding="UTF-8"?>
<svg xmlns="http://www.w3.org/2000/svg" xmlns:xlink="http://www.w3.org/1999/xlink" width="1024" height="1024" viewBox="0 0 1024 1024">
<path fill-rule="evenodd" fill="rgb(0%, 0%, 0%)" fill-opacity="1" d="M 352.8125 155.179688 C 340.265625 166.398438 331.265625 181.800781 313.257812 212.691406 L 288 256 L 256 256 C 196.265625 256 166.398438 256 143.574219 267.605469 C 123.492188 277.832031 107.167969 294.160156 96.9375 314.238281 C 85.332031 337.066406 85.332031 366.933594 85.332031 426.667969 L 85.332031 682.667969 C 85.332031 742.398438 85.332031 772.265625 96.9375 795.09375 C 107.175781 815.160156 123.5 831.46875 143.574219 841.683594 C 166.398438 853.332031 196.265625 853.332031 256 853.332031 L 768 853.332031 C 824.574219 853.332031 854.355469 853.332031 876.757812 843.433594 L 655.488281 682.667969 C 574.394531 756.277344 450.738281 756.523438 369.351562 683.238281 C 287.964844 609.953125 275.289062 486.949219 340.027344 398.609375 C 404.761719 310.269531 525.871094 285.296875 620.269531 340.828125 C 714.667969 396.355469 751.683594 514.34375 705.921875 613.84375 L 933.121094 778.921875 C 938.667969 757.84375 938.667969 729.386719 938.667969 682.667969 L 938.667969 426.667969 C 938.667969 366.933594 938.667969 337.066406 927.019531 314.238281 C 916.800781 294.164062 900.492188 277.839844 880.425781 267.605469 C 857.601562 256 827.734375 256 768 256 L 736 256 L 710.742188 212.691406 C 692.734375 181.800781 683.734375 166.398438 671.1875 155.179688 C 660.09375 145.246094 647.042969 137.746094 632.875 133.164062 C 616.875 128 599.039062 128 563.328125 128 L 460.714844 128 C 424.960938 128 407.125 128 391.125 133.164062 C 376.957031 137.746094 363.90625 145.246094 352.8125 155.179688 Z M 640 524.800781 C 640 595.492188 582.691406 652.800781 512 652.800781 C 441.308594 652.800781 384 595.492188 384 524.800781 C 384 454.109375 441.308594 396.800781 512 396.800781 C 582.691406 396.800781 640 454.109375 640 524.800781 Z M 640 524.800781 "/>
</svg>
