<?xml version="1.0" encoding="UTF-8"?>
<svg xmlns="http://www.w3.org/2000/svg" xmlns:xlink="http://www.w3.org/1999/xlink" width="1024" height="1024" viewBox="0 0 1024 1024">
<path fill-rule="evenodd" fill="rgb(0%, 0%, 0%)" fill-opacity="1" d="M 405.332031 725.332031 C 478.292969 725.332031 545.578125 700.886719 599.464844 659.753906 L 801.835938 862.164062 C 818.574219 878.335938 845.1875 878.105469 861.644531 861.644531 C 878.105469 845.1875 878.335938 818.574219 862.164062 801.835938 L 659.753906 599.425781 C 749.917969 481.234375 746.816406 316.519531 652.273438 201.808594 C 557.726562 87.097656 396.632812 52.597656 263.402344 118.53125 C 130.171875 184.464844 59.890625 333.46875 93.746094 478.214844 C 127.601562 622.960938 256.679688 725.332031 405.332031 725.332031 Z M 640 405.332031 C 640 534.9375 534.9375 640 405.332031 640 C 275.730469 640 170.667969 534.9375 170.667969 405.332031 C 170.667969 275.730469 275.730469 170.667969 405.332031 170.667969 C 534.9375 170.667969 640 275.730469 640 405.332031 Z M 640 405.332031 "/>
</svg>
