<?xml version="1.0" encoding="UTF-8"?>
<svg xmlns="http://www.w3.org/2000/svg" xmlns:xlink="http://www.w3.org/1999/xlink" width="1024" height="1024" viewBox="0 0 1024 1024">
<path fill-rule="evenodd" fill="rgb(0%, 0%, 0%)" fill-opacity="1" d="M 448.425781 128 L 575.574219 128 C 609.449219 128 621.523438 129.921875 634.667969 134.144531 C 647.808594 138.410156 659.15625 144.9375 669.441406 154.15625 C 679.679688 163.328125 687.488281 172.84375 704.554688 202.070312 L 736 256 L 801.921875 256 C 849.449219 256 866.730469 260.949219 884.097656 270.25 C 901.460938 279.550781 915.113281 293.207031 924.414062 310.570312 C 933.71875 327.9375 938.667969 345.171875 938.667969 392.746094 L 938.667969 724.351562 C 938.667969 842.539062 792.148438 897.578125 714.324219 808.660156 L 588.375 664.660156 C 511.519531 703.128906 418.054688 678.445312 370.210938 607.054688 C 322.367188 535.660156 335.074219 439.832031 399.867188 383.371094 C 464.660156 326.914062 561.328125 327.441406 625.503906 384.605469 C 689.675781 441.769531 701.335938 537.730469 652.714844 608.597656 L 778.582031 752.46875 C 804.480469 782.121094 853.332031 763.777344 853.332031 724.351562 L 853.332031 392.746094 C 853.332031 374.527344 852.523438 363.136719 851.242188 356.523438 C 850.941406 354.496094 850.230469 352.550781 849.152344 350.804688 C 848.011719 348.511719 846.15625 346.652344 843.863281 345.515625 C 842.117188 344.4375 840.171875 343.722656 838.144531 343.425781 C 831.53125 342.144531 820.136719 341.332031 801.921875 341.332031 L 736 341.332031 C 705.644531 341.34375 677.570312 325.226562 662.273438 299.007812 L 630.828125 245.078125 C 619.09375 224.9375 616.0625 220.886719 612.480469 217.683594 C 611.355469 216.597656 609.976562 215.804688 608.46875 215.382812 C 603.902344 213.886719 598.871094 213.332031 575.617188 213.332031 L 448.425781 213.332031 C 425.128906 213.332031 420.097656 213.886719 415.53125 215.382812 C 414.023438 215.804688 412.644531 216.597656 411.519531 217.683594 C 407.9375 220.886719 404.90625 224.9375 393.171875 245.078125 L 361.726562 299.007812 C 346.429688 325.226562 318.355469 341.34375 288 341.332031 L 222.078125 341.332031 C 203.863281 341.332031 192.46875 342.144531 185.855469 343.425781 C 183.828125 343.722656 181.882812 344.4375 180.136719 345.515625 C 177.84375 346.652344 175.988281 348.511719 174.847656 350.804688 C 173.769531 352.550781 173.058594 354.496094 172.757812 356.523438 C 171.476562 363.136719 170.667969 374.527344 170.667969 392.746094 L 170.667969 716.585938 C 170.667969 734.804688 171.476562 746.199219 172.757812 752.8125 C 173.269531 755.371094 173.484375 755.96875 174.847656 758.527344 C 175.980469 760.835938 177.839844 762.710938 180.136719 763.863281 C 182.699219 765.183594 183.253906 765.398438 185.855469 765.910156 C 192.46875 767.1875 203.863281 768 222.078125 768 L 512 768 C 535.5625 768 554.667969 787.101562 554.667969 810.667969 C 554.667969 834.230469 535.5625 853.332031 512 853.332031 L 222.078125 853.332031 C 174.507812 853.332031 157.269531 848.382812 139.902344 839.082031 C 122.726562 829.988281 108.679688 815.941406 99.585938 798.761719 C 90.28125 781.398438 85.332031 764.160156 85.332031 716.585938 L 85.332031 392.746094 C 85.332031 345.171875 90.28125 327.9375 99.585938 310.570312 C 108.886719 293.207031 122.539062 279.550781 139.902344 270.25 C 157.269531 260.949219 174.507812 256 222.078125 256 L 288 256 L 319.445312 202.070312 C 336.511719 172.84375 344.277344 163.328125 354.558594 154.15625 C 364.800781 144.9375 376.191406 138.367188 389.332031 134.144531 C 402.476562 129.921875 414.550781 128 448.425781 128 Z M 597.332031 512 C 597.332031 559.128906 559.128906 597.332031 512 597.332031 C 464.871094 597.332031 426.667969 559.128906 426.667969 512 C 426.667969 464.871094 464.871094 426.667969 512 426.667969 C 559.128906 426.667969 597.332031 464.871094 597.332031 512 Z M 597.332031 512 "/>
</svg>
