<?xml version="1.0" encoding="UTF-8"?>
<svg xmlns="http://www.w3.org/2000/svg" xmlns:xlink="http://www.w3.org/1999/xlink" width="1024" height="1024" viewBox="0 0 1024 1024">
<path fill-rule="evenodd" fill="rgb(0%, 0%, 0%)" fill-opacity="1" d="M 210.304688 210.347656 L 210.347656 210.261719 L 210.433594 210.304688 L 232.917969 187.777344 C 242.066406 178.636719 256.742188 178.171875 266.453125 186.710938 L 318.078125 231.980469 C 332.246094 244.992188 351.105469 252.96875 371.839844 252.96875 C 393.769531 252.96875 413.652344 244.011719 427.988281 229.589844 C 441.558594 215.9375 450.175781 197.417969 450.988281 176.894531 L 451.15625 176.894531 L 455.636719 108.332031 C 456.492188 95.433594 467.203125 85.414062 480.128906 85.417969 L 511.957031 85.417969 L 511.957031 85.332031 L 511.957031 85.417969 L 543.828125 85.417969 C 556.757812 85.417969 567.464844 95.445312 568.320312 108.332031 L 572.800781 176.894531 L 573.011719 176.894531 C 573.824219 197.546875 582.527344 216.148438 596.222656 229.800781 C 610.558594 244.097656 630.355469 252.96875 652.203125 252.96875 C 673.195312 252.96875 692.308594 244.777344 706.476562 231.464844 L 757.503906 186.667969 C 767.226562 178.140625 781.902344 178.625 791.039062 187.777344 L 813.566406 210.304688 L 813.652344 210.21875 L 813.652344 210.304688 L 813.609375 210.390625 L 836.136719 232.875 C 845.289062 242.011719 845.777344 256.6875 837.246094 266.410156 L 792.019531 318.121094 C 778.507812 332.730469 771.011719 351.898438 771.03125 371.796875 C 771.03125 393.769531 779.988281 413.609375 794.410156 427.988281 C 808.0625 441.558594 826.539062 450.175781 847.105469 450.988281 L 847.105469 451.15625 L 915.625 455.636719 C 928.554688 456.492188 938.582031 467.199219 938.582031 480.128906 L 938.582031 512 L 938.667969 512 L 938.667969 512.085938 L 938.582031 512.085938 L 938.582031 543.914062 C 938.585938 556.839844 928.566406 567.550781 915.667969 568.40625 L 847.105469 572.96875 L 847.105469 573.011719 C 826.453125 573.867188 807.851562 582.527344 794.199219 596.222656 C 779.902344 610.558594 771.03125 630.355469 771.03125 652.203125 C 771.03125 672.9375 779.007812 691.796875 792.0625 705.960938 L 791.980469 705.960938 L 837.289062 757.632812 C 845.824219 767.359375 845.3125 782.039062 836.179688 791.167969 L 813.652344 813.695312 L 813.652344 813.78125 L 813.609375 813.78125 L 791.082031 836.265625 C 781.949219 845.390625 767.304688 845.875 757.589844 837.375 L 707.753906 793.8125 C 692.960938 779.203125 672.996094 771.015625 652.203125 771.03125 C 630.230469 771.03125 610.390625 779.988281 596.011719 794.410156 C 582.441406 808.0625 573.824219 826.625 572.96875 847.230469 L 572.800781 847.230469 L 568.320312 915.796875 C 567.503906 928.136719 557.625 937.941406 545.28125 938.667969 L 478.71875 938.667969 C 466.375 937.941406 456.496094 928.136719 455.679688 915.796875 L 451.199219 847.230469 L 451.03125 847.230469 C 450.285156 827.230469 441.972656 808.261719 427.777344 794.15625 C 412.953125 779.335938 392.84375 771.015625 371.882812 771.03125 C 350.378906 771.03125 330.921875 779.5625 316.628906 793.472656 L 266.410156 837.417969 C 256.683594 845.90625 242.039062 845.40625 232.917969 836.265625 L 187.820312 791.167969 C 178.667969 782.027344 178.183594 767.355469 186.710938 757.632812 L 232.019531 706.003906 L 231.980469 705.960938 C 245.527344 691.339844 253.042969 672.136719 253.011719 652.203125 C 253.011719 630.230469 244.054688 610.390625 229.632812 596.011719 C 215.574219 581.984375 196.742188 573.773438 176.894531 573.011719 L 176.894531 572.96875 L 108.332031 568.40625 C 95.433594 567.550781 85.414062 556.839844 85.417969 543.914062 L 85.417969 512.085938 L 85.332031 512.085938 L 85.332031 512 L 85.375 512 L 85.375 480.128906 C 85.375 467.199219 95.402344 456.492188 108.332031 455.636719 L 176.851562 451.15625 L 176.851562 450.988281 C 196.824219 450.21875 215.757812 441.910156 229.84375 427.734375 C 244.136719 413.398438 252.96875 393.601562 252.96875 371.839844 C 252.96875 350.933594 244.863281 331.945312 231.679688 317.78125 L 186.710938 266.410156 C 178.183594 256.6875 178.667969 242.011719 187.820312 232.875 L 210.347656 210.390625 L 210.304688 210.304688 Z M 694.871094 512 C 694.871094 612.996094 612.996094 694.871094 512 694.871094 C 411.003906 694.871094 329.128906 612.996094 329.128906 512 C 329.128906 411.003906 411.003906 329.128906 512 329.128906 C 612.996094 329.128906 694.871094 411.003906 694.871094 512 Z M 694.871094 512 "/>
</svg>
