<?xml version="1.0" encoding="UTF-8"?>
<svg xmlns="http://www.w3.org/2000/svg" xmlns:xlink="http://www.w3.org/1999/xlink" width="1024" height="1024" viewBox="0 0 1024 1024">
<path fill-rule="evenodd" fill="rgb(0%, 0%, 0%)" fill-opacity="1" d="M 853.332031 245.332031 C 853.332031 301.242188 819.753906 351.679688 768.175781 373.253906 C 716.597656 394.832031 657.109375 383.320312 617.300781 344.0625 L 397.226562 465.324219 C 408.0625 495.558594 408.046875 528.621094 397.183594 558.847656 L 617.171875 680.019531 C 665.742188 632.078125 741.972656 626.601562 796.894531 667.109375 C 851.820312 707.617188 869.101562 782.0625 837.644531 842.625 C 806.1875 903.1875 735.339844 931.855469 670.617188 910.214844 C 605.894531 888.574219 566.539062 823.058594 577.835938 755.753906 L 344.105469 627.03125 C 286.257812 665.980469 208.484375 655.90625 162.464844 603.507812 C 116.449219 551.105469 116.507812 472.683594 162.601562 420.351562 C 208.699219 368.019531 286.488281 358.0625 344.277344 397.097656 L 577.835938 268.332031 C 569.378906 216.84375 590.539062 164.96875 632.59375 134.085938 C 674.648438 103.203125 730.480469 98.542969 777.074219 122.023438 C 823.667969 145.507812 853.136719 193.15625 853.332031 245.332031 Z M 853.332031 245.332031 "/>
</svg>
