<?xml version="1.0" encoding="UTF-8"?>
<svg xmlns="http://www.w3.org/2000/svg" xmlns:xlink="http://www.w3.org/1999/xlink" width="1024" height="1024" viewBox="0 0 1024 1024">
<path fill-rule="evenodd" fill="rgb(0%, 0%, 0%)" fill-opacity="1" d="M 736 394.667969 C 694.890625 394.710938 655.589844 377.753906 627.414062 347.820312 L 408.875 466.261719 C 418.457031 496.0625 418.429688 528.125 408.789062 557.910156 L 627.371094 676.222656 C 678.257812 622.300781 761.003906 613.878906 821.710938 656.441406 C 882.417969 699.007812 902.703125 779.667969 869.351562 845.886719 C 836.003906 912.105469 759.117188 943.828125 688.773438 920.390625 C 618.433594 896.957031 575.9375 825.457031 588.96875 752.46875 L 360.0625 628.566406 C 298.988281 677.492188 210.5 670.96875 157.253906 613.617188 C 104.011719 556.261719 104.078125 467.53125 157.40625 410.257812 C 210.730469 352.980469 299.230469 346.589844 360.234375 395.605469 L 588.96875 271.617188 C 577.917969 209.785156 606.730469 147.648438 661.070312 116.144531 C 715.40625 84.640625 783.648438 90.503906 831.816406 130.8125 C 879.980469 171.125 897.777344 237.269531 876.335938 296.304688 C 854.898438 355.34375 798.808594 394.65625 736 394.667969 Z M 800 245.332031 C 800 280.679688 771.347656 309.332031 736 309.332031 C 700.652344 309.332031 672 280.679688 672 245.332031 C 672 209.988281 700.652344 181.332031 736 181.332031 C 771.347656 181.332031 800 209.988281 800 245.332031 Z M 736 842.667969 C 771.347656 842.667969 800 814.011719 800 778.667969 C 800 743.320312 771.347656 714.667969 736 714.667969 C 700.652344 714.667969 672 743.320312 672 778.667969 C 672 814.011719 700.652344 842.667969 736 842.667969 Z M 330.667969 512 C 330.667969 547.347656 302.011719 576 266.667969 576 C 231.320312 576 202.667969 547.347656 202.667969 512 C 202.667969 476.652344 231.320312 448 266.667969 448 C 302.011719 448 330.667969 476.652344 330.667969 512 Z M 330.667969 512 "/>
</svg>
