<?xml version="1.0" encoding="UTF-8"?>
<svg xmlns="http://www.w3.org/2000/svg" xmlns:xlink="http://www.w3.org/1999/xlink" width="1024" height="1024" viewBox="0 0 1024 1024">
<path fill-rule="nonzero" fill="rgb(0%, 0%, 0%)" fill-opacity="1" d="M 512 938.667969 C 463.019531 938.667969 366.164062 880.554688 293.121094 796.160156 C 189.441406 676.4375 128 510.59375 128 298.667969 C 127.992188 281.207031 138.625 265.507812 154.835938 259.03125 C 294.527344 203.136719 405.71875 147.542969 488.320312 92.5 C 502.65625 82.933594 521.34375 82.933594 535.679688 92.5 C 618.238281 147.542969 729.515625 203.179688 869.164062 259.03125 C 885.375 265.507812 896.007812 281.207031 896 298.667969 C 896 510.632812 834.558594 676.480469 730.878906 796.160156 C 657.878906 880.511719 561.023438 938.667969 512 938.667969 Z M 512 938.667969 "/>
</svg>
