<?xml version="1.0" encoding="UTF-8"?>
<svg xmlns="http://www.w3.org/2000/svg" xmlns:xlink="http://www.w3.org/1999/xlink" width="1024" height="1024" viewBox="0 0 1024 1024">
<path fill-rule="evenodd" fill="rgb(0%, 0%, 0%)" fill-opacity="1" d="M 293.121094 796.160156 C 366.121094 880.511719 462.976562 938.667969 512 938.667969 C 560.980469 938.667969 657.835938 880.554688 730.878906 796.160156 C 834.558594 676.4375 896 510.59375 896 298.667969 C 896.007812 281.207031 885.375 265.507812 869.164062 259.03125 C 729.515625 203.136719 618.28125 147.542969 535.679688 92.5 C 521.34375 82.933594 502.65625 82.933594 488.320312 92.5 C 405.761719 147.542969 294.527344 203.179688 154.878906 258.988281 C 138.636719 265.457031 127.984375 281.183594 128 298.667969 C 128 510.632812 189.441406 676.480469 293.121094 796.160156 Z M 512 853.332031 C 491.988281 853.332031 416 807.765625 357.546875 740.265625 C 271.957031 641.40625 218.878906 504.746094 213.761719 327.253906 C 333.652344 278.015625 433.023438 228.652344 512 178.773438 C 590.976562 228.609375 690.347656 277.972656 810.238281 327.210938 C 805.121094 504.703125 752.042969 641.367188 666.453125 740.222656 C 608 807.765625 531.96875 853.332031 512 853.332031 Z M 512 853.332031 "/>
</svg>
