<?xml version="1.0" encoding="UTF-8"?>
<svg xmlns="http://www.w3.org/2000/svg" xmlns:xlink="http://www.w3.org/1999/xlink" width="1024" height="1024" viewBox="0 0 1024 1024">
<path fill-rule="evenodd" fill="rgb(0%, 0%, 0%)" fill-opacity="1" d="M 896 298.667969 C 896 432.9375 871.339844 548.691406 826.921875 645.929688 L 761.898438 580.863281 C 790.484375 508.074219 807.464844 423.679688 810.238281 327.253906 C 690.347656 278.015625 590.976562 228.652344 512 178.773438 C 482.558594 197.332031 450.390625 215.808594 415.316406 234.238281 L 351.957031 170.964844 C 398.921875 147.523438 444.453125 121.324219 488.320312 92.5 C 502.65625 82.933594 521.34375 82.933594 535.679688 92.5 C 618.238281 147.542969 729.515625 203.179688 869.164062 259.03125 C 885.375 265.507812 896.007812 281.207031 896 298.667969 Z M 672.640625 732.96875 L 251.222656 311.550781 C 238.976562 316.800781 226.476562 322.003906 213.761719 327.253906 C 218.878906 504.746094 271.957031 641.40625 357.546875 740.265625 C 416 807.765625 492.03125 853.332031 512 853.332031 C 532.011719 853.332031 608 807.765625 666.453125 740.265625 Z M 186.027344 246.355469 C 175.785156 250.625 165.375 254.804688 154.835938 259.03125 C 138.625 265.507812 127.992188 281.207031 128 298.667969 C 128 510.632812 189.441406 676.480469 293.121094 796.160156 C 366.121094 880.511719 462.976562 938.667969 512 938.667969 C 560.980469 938.667969 657.835938 880.554688 730.878906 796.160156 L 733.183594 793.515625 L 823.167969 883.542969 C 839.839844 900.203125 866.859375 900.191406 883.519531 883.519531 C 900.179688 866.847656 900.171875 839.828125 883.5 823.167969 L 200.832031 140.5 C 184.089844 124.332031 157.480469 124.5625 141.019531 141.019531 C 124.5625 157.480469 124.332031 184.089844 140.5 200.832031 Z M 186.027344 246.355469 "/>
</svg>
