<?xml version="1.0" encoding="UTF-8"?>
<svg xmlns="http://www.w3.org/2000/svg" xmlns:xlink="http://www.w3.org/1999/xlink" width="1024" height="1024" viewBox="0 0 1024 1024">
<path fill-rule="evenodd" fill="rgb(0%, 0%, 0%)" fill-opacity="1" d="M 896 298.667969 C 896 432.9375 871.339844 548.691406 826.921875 645.929688 L 352 170.964844 C 398.960938 147.523438 444.496094 121.324219 488.363281 92.5 C 502.699219 82.933594 521.386719 82.933594 535.722656 92.5 C 618.28125 147.542969 729.558594 203.179688 869.207031 259.03125 C 885.402344 265.519531 896.011719 281.21875 896 298.667969 Z M 186.027344 246.355469 C 175.785156 250.625 165.375 254.804688 154.835938 259.03125 C 138.625 265.507812 127.992188 281.207031 128 298.667969 C 128 510.632812 189.441406 676.480469 293.121094 796.160156 C 366.121094 880.511719 462.976562 938.667969 512 938.667969 C 560.980469 938.667969 657.835938 880.554688 730.878906 796.160156 L 733.183594 793.515625 L 823.167969 883.542969 C 839.839844 900.203125 866.859375 900.191406 883.519531 883.519531 C 900.179688 866.847656 900.171875 839.828125 883.5 823.167969 L 200.832031 140.5 C 184.089844 124.332031 157.480469 124.5625 141.019531 141.019531 C 124.5625 157.480469 124.332031 184.089844 140.5 200.832031 Z M 186.027344 246.355469 "/>
</svg>
