<?xml version="1.0" encoding="UTF-8"?>
<svg xmlns="http://www.w3.org/2000/svg" xmlns:xlink="http://www.w3.org/1999/xlink" width="1024" height="1024" viewBox="0 0 1024 1024">
<path fill-rule="evenodd" fill="rgb(0%, 0%, 0%)" fill-opacity="1" d="M 256 256 C 256 196.265625 256 166.398438 267.605469 143.574219 C 277.832031 123.492188 294.160156 107.167969 314.238281 96.9375 C 337.066406 85.332031 366.933594 85.332031 426.667969 85.332031 L 597.332031 85.332031 C 657.066406 85.332031 686.933594 85.332031 709.761719 96.9375 C 729.824219 107.175781 746.136719 123.5 756.351562 143.574219 C 768 166.398438 768 196.265625 768 256 L 768 768 C 768 827.734375 768 857.601562 756.351562 880.425781 C 746.128906 900.484375 729.820312 916.792969 709.761719 927.019531 C 686.933594 938.667969 657.066406 938.667969 597.332031 938.667969 L 426.667969 938.667969 C 366.933594 938.667969 337.066406 938.667969 314.238281 927.019531 C 294.164062 916.800781 277.839844 900.492188 267.605469 880.425781 C 256 857.601562 256 827.734375 256 768 Z M 853.332031 256 C 853.332031 232.4375 872.4375 213.332031 896 213.332031 C 919.5625 213.332031 938.667969 232.4375 938.667969 256 L 938.667969 768 C 938.667969 791.5625 919.5625 810.667969 896 810.667969 C 872.4375 810.667969 853.332031 791.5625 853.332031 768 Z M 128 213.332031 C 104.4375 213.332031 85.332031 232.4375 85.332031 256 L 85.332031 768 C 85.332031 791.5625 104.4375 810.667969 128 810.667969 C 151.5625 810.667969 170.667969 791.5625 170.667969 768 L 170.667969 256 C 170.667969 232.4375 151.5625 213.332031 128 213.332031 Z M 128 213.332031 "/>
</svg>
