<?xml version="1.0" encoding="UTF-8"?>
<svg xmlns="http://www.w3.org/2000/svg" xmlns:xlink="http://www.w3.org/1999/xlink" width="1024" height="1024" viewBox="0 0 1024 1024">
<path fill-rule="evenodd" fill="rgb(0%, 0%, 0%)" fill-opacity="1" d="M 631.253906 85.332031 L 392.746094 85.332031 C 345.171875 85.332031 327.9375 90.28125 310.570312 99.585938 C 293.390625 108.679688 279.34375 122.726562 270.25 139.902344 C 260.949219 157.269531 256 174.507812 256 222.078125 L 256 801.921875 C 256 849.449219 260.949219 866.730469 270.25 884.097656 C 279.550781 901.460938 293.207031 915.113281 310.570312 924.414062 C 327.9375 933.71875 345.171875 938.667969 392.746094 938.667969 L 631.253906 938.667969 C 678.785156 938.667969 696.0625 933.71875 713.429688 924.414062 C 730.792969 915.113281 744.449219 901.460938 753.75 884.097656 C 763.050781 866.730469 768 849.492188 768 801.921875 L 768 222.078125 C 768 174.507812 763.050781 157.269531 753.75 139.902344 C 744.65625 122.726562 730.609375 108.679688 713.429688 99.585938 C 696.0625 90.28125 678.828125 85.332031 631.253906 85.332031 Z M 356.523438 172.757812 C 363.136719 171.476562 374.527344 170.667969 392.746094 170.667969 L 631.253906 170.667969 C 649.472656 170.667969 660.863281 171.476562 667.476562 172.757812 C 670.039062 173.269531 670.632812 173.484375 673.195312 174.847656 C 675.488281 175.988281 677.347656 177.84375 678.484375 180.136719 C 679.851562 182.699219 680.0625 183.253906 680.574219 185.855469 C 681.855469 192.46875 682.667969 203.863281 682.667969 222.078125 L 682.667969 801.921875 C 682.667969 820.136719 681.855469 831.53125 680.574219 838.144531 C 680.277344 840.171875 679.5625 842.117188 678.484375 843.863281 C 677.355469 846.171875 675.496094 848.042969 673.195312 849.195312 C 671.449219 850.257812 669.503906 850.957031 667.476562 851.242188 C 660.863281 852.523438 649.472656 853.332031 631.253906 853.332031 L 392.746094 853.332031 C 374.527344 853.332031 363.136719 852.523438 356.523438 851.242188 C 354.496094 850.941406 352.550781 850.230469 350.804688 849.152344 C 348.511719 848.011719 346.652344 846.15625 345.515625 843.863281 C 344.4375 842.117188 343.722656 840.171875 343.425781 838.144531 C 342.144531 831.53125 341.332031 820.136719 341.332031 801.921875 L 341.332031 222.078125 C 341.332031 203.863281 342.144531 192.46875 343.425781 185.855469 C 343.722656 183.828125 344.4375 181.882812 345.515625 180.136719 C 346.652344 177.84375 348.511719 175.988281 350.804688 174.847656 C 352.550781 173.769531 354.496094 173.058594 356.523438 172.757812 Z M 853.332031 256 C 853.332031 232.4375 872.4375 213.332031 896 213.332031 C 919.5625 213.332031 938.667969 232.4375 938.667969 256 L 938.667969 768 C 938.667969 791.5625 919.5625 810.667969 896 810.667969 C 872.4375 810.667969 853.332031 791.5625 853.332031 768 Z M 128 213.332031 C 104.4375 213.332031 85.332031 232.4375 85.332031 256 L 85.332031 768 C 85.332031 791.5625 104.4375 810.667969 128 810.667969 C 151.5625 810.667969 170.667969 791.5625 170.667969 768 L 170.667969 256 C 170.667969 232.4375 151.5625 213.332031 128 213.332031 Z M 128 213.332031 "/>
</svg>
