<?xml version="1.0" encoding="UTF-8"?>
<svg xmlns="http://www.w3.org/2000/svg" xmlns:xlink="http://www.w3.org/1999/xlink" width="1024" height="1024" viewBox="0 0 1024 1024">
<path fill-rule="evenodd" fill="rgb(0%, 0%, 0%)" fill-opacity="1" d="M 128 235.390625 C 128 176.53125 175.679688 128.796875 234.539062 128.726562 L 789.207031 128.128906 C 817.515625 128.09375 844.679688 139.316406 864.710938 159.324219 C 884.746094 179.332031 896 206.484375 896 234.792969 L 896 789.332031 C 896 848.242188 848.242188 896 789.332031 896 L 234.667969 896 C 175.757812 896 128 848.242188 128 789.332031 Z M 213.332031 235.390625 L 213.332031 789.332031 C 213.332031 801.117188 222.882812 810.667969 234.667969 810.667969 L 597.332031 810.667969 L 597.332031 213.675781 L 234.667969 214.101562 C 222.882812 214.101562 213.332031 223.652344 213.332031 235.433594 Z M 682.667969 213.589844 L 682.667969 810.667969 L 789.332031 810.667969 C 801.117188 810.667969 810.667969 801.117188 810.667969 789.332031 L 810.667969 234.792969 C 810.667969 223.011719 801.117188 213.460938 789.332031 213.460938 Z M 682.667969 213.589844 "/>
</svg>
