<?xml version="1.0" encoding="UTF-8"?>
<svg xmlns="http://www.w3.org/2000/svg" xmlns:xlink="http://www.w3.org/1999/xlink" width="1024" height="1024" viewBox="0 0 1024 1024">
<path fill-rule="evenodd" fill="rgb(0%, 0%, 0%)" fill-opacity="1" d="M 921.300781 466.902344 C 946.21875 491.863281 946.21875 532.179688 921.300781 557.183594 L 798.292969 680.535156 C 781.652344 697.171875 754.347656 697.171875 737.707031 680.535156 C 729.71875 672.5625 725.230469 661.738281 725.230469 650.453125 C 725.230469 639.167969 729.71875 628.34375 737.707031 620.375 C 759.480469 598.582031 783.65625 579.332031 809.769531 562.988281 L 826.28125 552.660156 L 817.449219 543.871094 C 786.101562 551.074219 754.042969 554.710938 721.878906 554.710938 L 383.914062 554.710938 C 360.351562 554.710938 341.246094 535.605469 341.246094 512.042969 C 341.246094 488.480469 360.351562 469.375 383.914062 469.375 L 721.878906 469.375 C 754.042969 469.375 786.101562 473.011719 817.449219 480.214844 L 826.28125 471.425781 L 809.8125 461.140625 C 783.679688 444.757812 759.492188 425.460938 737.707031 403.625 C 729.71875 395.65625 725.230469 384.832031 725.230469 373.546875 C 725.230469 362.261719 729.71875 351.4375 737.707031 343.464844 C 754.347656 326.828125 781.652344 326.828125 798.292969 343.464844 Z M 597.332031 682.667969 C 573.769531 682.667969 554.667969 701.769531 554.667969 725.332031 L 554.667969 789.332031 C 554.667969 801.117188 545.117188 810.667969 533.332031 810.667969 L 234.667969 810.667969 C 222.882812 810.667969 213.332031 801.117188 213.332031 789.332031 L 213.332031 234.667969 C 213.332031 222.882812 222.882812 213.332031 234.667969 213.332031 L 533.332031 213.332031 C 545.117188 213.332031 554.667969 222.882812 554.667969 234.667969 L 554.667969 298.878906 C 554.667969 322.445312 573.769531 341.546875 597.332031 341.546875 C 620.898438 341.546875 640 322.445312 640 298.878906 L 640 234.667969 C 640 175.757812 592.242188 128 533.332031 128 L 234.667969 128 C 175.757812 128 128 175.757812 128 234.667969 L 128 789.332031 C 128 848.242188 175.757812 896 234.667969 896 L 533.332031 896 C 592.242188 896 640 848.242188 640 789.332031 L 640 725.332031 C 640 701.769531 620.898438 682.667969 597.332031 682.667969 Z M 597.332031 682.667969 "/>
</svg>
