<?xml version="1.0" encoding="UTF-8"?>
<svg xmlns="http://www.w3.org/2000/svg" xmlns:xlink="http://www.w3.org/1999/xlink" width="1024" height="1024" viewBox="0 0 1024 1024">
<path fill-rule="evenodd" fill="rgb(0%, 0%, 0%)" fill-opacity="1" d="M 256 341.332031 C 279.5625 341.332031 298.667969 322.230469 298.667969 298.667969 L 298.667969 252.714844 C 298.667969 233.128906 299.605469 228.394531 302.164062 223.53125 C 303.644531 220.65625 305.988281 218.3125 308.863281 216.832031 C 313.683594 214.273438 318.464844 213.332031 338.046875 213.332031 L 771.285156 213.332031 C 790.871094 213.332031 795.605469 214.273438 800.46875 216.832031 C 803.457031 218.453125 805.589844 220.542969 807.167969 223.53125 C 809.726562 228.351562 810.667969 233.128906 810.667969 252.714844 L 810.667969 771.285156 C 810.667969 790.871094 809.726562 795.605469 807.167969 800.46875 C 805.691406 803.347656 803.347656 805.691406 800.46875 807.167969 C 795.648438 809.726562 790.871094 810.667969 771.285156 810.667969 L 338.046875 810.667969 C 318.464844 810.667969 313.726562 809.726562 308.863281 807.167969 C 305.984375 805.691406 303.644531 803.347656 302.164062 800.46875 C 299.605469 795.648438 298.667969 790.871094 298.667969 771.285156 L 298.667969 725.332031 C 298.667969 701.769531 279.5625 682.667969 256 682.667969 C 232.4375 682.667969 213.332031 701.769531 213.332031 725.332031 L 213.332031 771.285156 C 213.332031 803.710938 216.832031 821.84375 226.945312 840.703125 C 236.457031 858.582031 250.753906 872.832031 268.628906 882.390625 C 287.488281 892.5 305.578125 896 338.046875 896 L 771.285156 896 C 803.710938 896 821.84375 892.5 840.703125 882.390625 C 858.582031 872.832031 872.832031 858.582031 882.390625 840.703125 C 892.5 821.84375 896 803.753906 896 771.285156 L 896 252.714844 C 896 220.289062 892.5 202.15625 882.390625 183.296875 C 872.957031 165.558594 858.441406 151.042969 840.703125 141.609375 C 821.84375 131.5 803.753906 128 771.285156 128 L 338.046875 128 C 305.621094 128 287.488281 131.5 268.628906 141.609375 C 250.875 151.035156 236.34375 165.550781 226.902344 183.296875 C 216.875 202.15625 213.332031 220.246094 213.332031 252.714844 L 213.332031 298.667969 C 213.332031 322.230469 232.4375 341.332031 256 341.332031 Z M 665.300781 466.902344 C 690.21875 491.863281 690.21875 532.179688 665.300781 557.183594 L 542.292969 680.535156 C 525.652344 697.171875 498.347656 697.171875 481.707031 680.535156 C 473.71875 672.5625 469.230469 661.738281 469.230469 650.453125 C 469.230469 639.167969 473.71875 628.34375 481.707031 620.375 C 503.480469 598.582031 527.65625 579.332031 553.769531 562.988281 L 570.28125 552.660156 L 561.449219 543.871094 C 530.101562 551.074219 498.042969 554.710938 465.878906 554.710938 L 127.914062 554.710938 C 104.351562 554.710938 85.246094 535.605469 85.246094 512.042969 C 85.246094 488.480469 104.351562 469.375 127.914062 469.375 L 465.878906 469.375 C 498.042969 469.375 530.101562 473.011719 561.449219 480.214844 L 570.28125 471.425781 L 553.8125 461.140625 C 527.679688 444.757812 503.492188 425.460938 481.707031 403.625 C 473.71875 395.65625 469.230469 384.832031 469.230469 373.546875 C 469.230469 362.261719 473.71875 351.4375 481.707031 343.464844 C 498.347656 326.828125 525.652344 326.828125 542.292969 343.464844 Z M 665.300781 466.902344 "/>
</svg>
