<?xml version="1.0" encoding="UTF-8"?>
<svg xmlns="http://www.w3.org/2000/svg" xmlns:xlink="http://www.w3.org/1999/xlink" width="1024" height="1024" viewBox="0 0 1024 1024">
<path fill-rule="evenodd" fill="rgb(0%, 0%, 0%)" fill-opacity="1" d="M 639.230469 836.691406 C 658.601562 806.828125 678.015625 768.425781 691.96875 719.148438 C 724.179688 731.519531 746.28125 746.28125 759.851562 757.929688 C 725.09375 792.453125 683.457031 819.277344 637.652344 836.652344 L 639.230469 836.652344 Z M 263.765625 757.546875 C 278.101562 745.898438 299.820312 731.519531 332.03125 718.71875 C 346.367188 768.382812 365.011719 806.785156 384.769531 836.652344 C 339.640625 818.898438 298.695312 791.960938 264.535156 757.546875 Z M 717.566406 473.214844 C 716.375 438.65625 712.875 404.136719 707.113281 370.046875 C 749.78125 354.515625 780.800781 335.914062 802.515625 318.847656 C 832.800781 365.203125 851.554688 418.132812 857.214844 473.214844 Z M 334.71875 294.015625 C 312.140625 285.699219 290.867188 274.203125 271.53125 259.882812 C 304.230469 228.609375 342.6875 203.976562 384.769531 187.347656 C 366.550781 214.484375 348.714844 249.386719 334.335938 294.015625 L 334.761719 294.015625 Z M 639.230469 187.347656 C 681.339844 203.921875 719.804688 228.5625 752.46875 259.882812 C 733.113281 274.167969 711.839844 285.660156 689.28125 294.015625 C 677.714844 256.207031 660.730469 220.277344 638.847656 187.347656 Z M 631.464844 389.035156 C 635.308594 414.632812 639.230469 442.199219 640 473.214844 L 384 473.214844 C 385.152344 442.199219 387.839844 414.25 391.765625 389.035156 C 470.910156 403.285156 551.9375 403.285156 631.082031 389.035156 Z M 512 321.921875 C 473.171875 321.921875 439.039062 318.847656 410.027344 314.199219 C 441.003906 218.753906 489.128906 180.351562 512 166.785156 C 534.101562 180.351562 582.613281 219.136719 613.632812 314.199219 C 580.011719 319.460938 546.027344 322.042969 512 321.921875 Z M 221.097656 318.847656 C 250.101562 340.898438 282.4375 358.183594 316.886719 370.046875 C 311.128906 404.167969 307.636719 438.632812 306.433594 473.214844 L 165.207031 473.214844 C 171.332031 417.996094 190.632812 365.054688 221.484375 318.847656 L 221.054688 318.847656 Z M 165.632812 550.785156 L 306.433594 550.785156 C 307.96875 584.148438 310.273438 614.785156 314.964844 642.730469 C 279.230469 655.003906 245.886719 673.367188 216.40625 697.003906 C 188.507812 652.757812 171 602.765625 165.207031 550.785156 Z M 512 612.863281 C 465.492188 612.863281 425.515625 616.703125 390.613281 622.933594 C 387.203125 599.023438 384.996094 574.957031 384 550.828125 L 640 550.828125 C 638.847656 576.769531 636.886719 601.171875 633.8125 622.933594 C 593.621094 615.667969 552.839844 612.167969 512 612.480469 Z M 512 857.214844 C 488.746094 843.265625 437.546875 801.75 406.484375 698.199219 C 441.359375 692.515625 476.667969 689.914062 512 690.433594 C 552.746094 690.433594 587.648438 693.121094 617.898438 698.199219 C 586.878906 802.902344 535.679688 843.265625 512.382812 857.214844 Z M 807.550781 696.617188 C 778.109375 672.953125 744.773438 654.585938 709.035156 642.347656 C 713.710938 612.023438 716.558594 581.449219 717.566406 550.785156 L 858.792969 550.785156 C 852.941406 602.632812 835.4375 652.488281 807.59375 696.617188 Z M 512 85.332031 C 276.351562 85.332031 85.332031 276.351562 85.332031 512 C 85.332031 747.648438 276.351562 938.667969 512 938.667969 C 747.648438 938.667969 938.667969 747.648438 938.667969 512 C 938.667969 276.351562 747.648438 85.332031 512 85.332031 Z M 512 85.332031 "/>
</svg>
