<?xml version="1.0" encoding="UTF-8"?>
<svg xmlns="http://www.w3.org/2000/svg" xmlns:xlink="http://www.w3.org/1999/xlink" width="1024" height="1024" viewBox="0 0 1024 1024">
<path fill-rule="evenodd" fill="rgb(0%, 0%, 0%)" fill-opacity="1" d="M 512 938.667969 C 747.648438 938.667969 938.667969 747.648438 938.667969 512 C 938.667969 276.351562 747.648438 85.332031 512 85.332031 C 276.351562 85.332031 85.332031 276.351562 85.332031 512 C 85.332031 747.648438 276.351562 938.667969 512 938.667969 Z M 847.574219 448.382812 C 845.363281 448.683594 843.183594 449.15625 841.046875 449.792969 C 799.273438 462.378906 753.367188 472.0625 703.316406 478.804688 C 698.199219 355.882812 665.128906 254.761719 625.109375 185.8125 C 738.859375 226.261719 825.089844 325.972656 847.574219 448.382812 Z M 852.566406 535.339844 C 843.308594 675.839844 751.105469 793.386719 625.109375 838.1875 C 662.953125 772.992188 694.570312 679.039062 702.25 565.035156 C 753.03125 558.933594 803.28125 549.007812 852.566406 535.339844 Z M 618.324219 487.296875 C 612.992188 305.75 550.570312 170.667969 512 170.667969 C 473.429688 170.667969 411.007812 305.75 405.675781 487.253906 C 439.550781 489.515625 474.964844 490.667969 512 490.667969 C 549.035156 490.667969 584.449219 489.558594 618.324219 487.253906 Z M 321.792969 564.992188 C 271 558.90625 220.734375 548.992188 171.433594 535.339844 C 180.691406 675.839844 272.894531 793.386719 398.890625 838.1875 C 361.046875 772.992188 329.429688 679.039062 321.75 564.992188 Z M 320.683594 478.804688 C 325.800781 355.882812 358.871094 254.761719 398.890625 185.8125 C 285.140625 226.261719 198.910156 325.972656 176.425781 448.382812 C 178.601562 448.683594 180.777344 449.152344 182.953125 449.792969 C 228.035156 463.054688 274.085938 472.753906 320.683594 478.804688 Z M 616.449219 572.929688 C 581.671875 575.023438 546.839844 576.046875 512 576 C 475.863281 576 441.046875 574.976562 407.507812 572.929688 C 419.328125 735.871094 476.03125 853.332031 512 853.332031 C 547.96875 853.332031 604.671875 735.914062 616.449219 572.929688 Z M 616.449219 572.929688 "/>
</svg>
