<?xml version="1.0" encoding="UTF-8"?>
<svg xmlns="http://www.w3.org/2000/svg" xmlns:xlink="http://www.w3.org/1999/xlink" width="1024" height="1024" viewBox="0 0 1024 1024">
<path fill-rule="evenodd" fill="rgb(0%, 0%, 0%)" fill-opacity="1" d="M 638.378906 572.160156 C 598.828125 574.71875 556.671875 576 512 576 C 467.328125 576 425.171875 574.71875 385.621094 572.160156 C 397.011719 783.53125 466.003906 945.066406 512 945.066406 C 557.996094 945.066406 626.945312 783.574219 638.378906 572.160156 Z M 299.777344 564.136719 C 306.261719 716.5 340.777344 842.878906 387.667969 924.332031 C 212.609375 870.570312 85.332031 706.304688 85.332031 512 L 85.332031 508.160156 C 142.039062 534.65625 213.460938 553.214844 299.777344 564.136719 Z M 95.660156 417.367188 C 143.742188 445.609375 211.667969 466.003906 299.136719 477.953125 C 303.53125 317.523438 338.945312 184.320312 387.625 99.667969 C 241.921875 144.46875 129.28125 265.8125 95.660156 417.367188 Z M 384.296875 486.570312 C 389.503906 258.433594 463.53125 78.933594 512 78.933594 C 560.46875 78.933594 634.496094 258.433594 639.703125 486.570312 C 600.234375 489.300781 557.652344 490.667969 512 490.667969 C 469.398438 490.761719 426.804688 489.394531 384.296875 486.570312 Z M 724.222656 564.136719 C 810.539062 553.214844 881.960938 534.699219 938.667969 508.203125 L 938.667969 512 C 938.667969 706.304688 811.347656 870.570312 636.375 924.332031 C 683.222656 842.835938 717.738281 716.5 724.265625 564.136719 Z M 928.339844 417.367188 C 880.257812 445.609375 812.332031 466.003906 724.863281 477.953125 C 720.46875 317.523438 685.054688 184.320312 636.375 99.667969 C 782.078125 144.46875 894.71875 265.8125 928.339844 417.367188 Z M 928.339844 417.367188 "/>
</svg>
