<?xml version="1.0" encoding="UTF-8"?>
<svg xmlns="http://www.w3.org/2000/svg" xmlns:xlink="http://www.w3.org/1999/xlink" width="1024" height="1024" viewBox="0 0 1024 1024">
<path fill-rule="nonzero" fill="rgb(0%, 0%, 0%)" fill-opacity="1" d="M 512 739.328125 L 281.472656 879.53125 C 270.449219 886.242188 256.472656 885.675781 246.03125 878.097656 C 235.585938 870.515625 230.71875 857.402344 233.683594 844.84375 L 295.808594 582.230469 L 91.179688 406.316406 C 81.398438 397.898438 77.628906 384.433594 81.621094 372.160156 C 85.609375 359.890625 96.578125 351.21875 109.441406 350.164062 L 378.367188 328.105469 L 482.476562 79.148438 C 487.453125 67.238281 499.09375 59.484375 512 59.484375 C 524.90625 59.484375 536.546875 67.238281 541.523438 79.148438 L 645.632812 328.105469 L 914.558594 350.164062 C 927.414062 351.234375 938.367188 359.914062 942.347656 372.179688 C 946.328125 384.445312 942.554688 397.902344 932.777344 406.316406 L 728.191406 582.230469 L 790.316406 844.84375 C 793.28125 857.402344 788.414062 870.515625 777.96875 878.097656 C 767.527344 885.675781 753.550781 886.242188 742.527344 879.53125 Z M 512 739.328125 "/>
</svg>
