<?xml version="1.0" encoding="UTF-8"?>
<svg xmlns="http://www.w3.org/2000/svg" xmlns:xlink="http://www.w3.org/1999/xlink" width="1024" height="1024" viewBox="0 0 1024 1024">
<path fill-rule="evenodd" fill="rgb(0%, 0%, 0%)" fill-opacity="1" d="M 512 938.667969 C 276.351562 938.667969 85.332031 747.648438 85.332031 512 C 85.332031 276.351562 276.351562 85.332031 512 85.332031 C 747.648438 85.332031 938.667969 276.351562 938.667969 512 C 938.667969 747.648438 747.648438 938.667969 512 938.667969 Z M 512 853.332031 C 700.511719 853.332031 853.332031 700.511719 853.332031 512 C 853.332031 323.488281 700.511719 170.667969 512 170.667969 C 323.488281 170.667969 170.667969 323.488281 170.667969 512 C 170.667969 700.511719 323.488281 853.332031 512 853.332031 Z M 256 512 C 256 653.386719 370.613281 768 512 768 C 653.386719 768 768 653.386719 768 512 C 768 370.613281 653.386719 256 512 256 C 370.613281 256 256 370.613281 256 512 Z M 512 682.667969 C 606.257812 682.667969 682.667969 606.257812 682.667969 512 C 682.667969 417.742188 606.257812 341.332031 512 341.332031 C 417.742188 341.332031 341.332031 417.742188 341.332031 512 C 341.332031 606.257812 417.742188 682.667969 512 682.667969 Z M 597.332031 512 C 597.332031 559.128906 559.128906 597.332031 512 597.332031 C 464.871094 597.332031 426.667969 559.128906 426.667969 512 C 426.667969 464.871094 464.871094 426.667969 512 426.667969 C 559.128906 426.667969 597.332031 464.871094 597.332031 512 Z M 597.332031 512 "/>
</svg>
