<?xml version="1.0" encoding="UTF-8"?>
<svg xmlns="http://www.w3.org/2000/svg" xmlns:xlink="http://www.w3.org/1999/xlink" width="1024" height="1024" viewBox="0 0 1024 1024">
<path fill-rule="evenodd" fill="rgb(0%, 0%, 0%)" fill-opacity="1" d="M 157.484375 362.964844 C 157.484375 484.4375 224.980469 588.671875 319.871094 588.671875 C 414.71875 588.671875 482.132812 484.4375 482.132812 362.964844 C 482.132812 241.535156 424.617188 170.539062 319.871094 170.539062 C 215.082031 170.539062 157.484375 241.535156 157.484375 362.964844 Z M 56.574219 818.859375 C 91.5625 841.769531 179.414062 853.207031 320 853.207031 C 460.585938 853.207031 548.394531 841.769531 583.425781 818.902344 C 589.886719 814.671875 593.558594 807.277344 593.023438 799.574219 C 586.539062 704.511719 495.445312 656.9375 319.828125 656.9375 C 144.171875 656.9375 53.207031 704.511719 46.976562 799.617188 C 46.472656 807.292969 50.140625 814.644531 56.574219 818.859375 Z M 768 725.332031 C 744.4375 725.332031 725.332031 706.230469 725.332031 682.667969 L 725.332031 554.667969 L 597.332031 554.667969 C 573.769531 554.667969 554.667969 535.5625 554.667969 512 C 554.667969 488.4375 573.769531 469.332031 597.332031 469.332031 L 725.332031 469.332031 L 725.332031 341.332031 C 725.332031 317.769531 744.4375 298.667969 768 298.667969 C 791.5625 298.667969 810.667969 317.769531 810.667969 341.332031 L 810.667969 469.332031 L 938.667969 469.332031 C 962.230469 469.332031 981.332031 488.4375 981.332031 512 C 981.332031 535.5625 962.230469 554.667969 938.667969 554.667969 L 810.667969 554.667969 L 810.667969 682.667969 C 810.667969 706.230469 791.5625 725.332031 768 725.332031 Z M 768 725.332031 "/>
</svg>
