<?xml version="1.0" encoding="UTF-8"?>
<svg xmlns="http://www.w3.org/2000/svg" xmlns:xlink="http://www.w3.org/1999/xlink" width="1024" height="1024" viewBox="0 0 1024 1024">
<path fill-rule="evenodd" fill="rgb(0%, 0%, 0%)" fill-opacity="1" d="M 157.484375 362.964844 C 157.484375 484.4375 224.980469 588.671875 319.871094 588.671875 C 414.71875 588.671875 482.132812 484.4375 482.132812 362.964844 C 482.132812 241.535156 424.617188 170.539062 319.871094 170.539062 C 215.082031 170.539062 157.484375 241.535156 157.484375 362.964844 Z M 56.574219 818.859375 C 91.5625 841.769531 179.414062 853.207031 320 853.207031 C 460.585938 853.207031 548.394531 841.769531 583.425781 818.902344 C 589.886719 814.671875 593.558594 807.277344 593.023438 799.574219 C 586.539062 704.511719 495.445312 656.9375 319.828125 656.9375 C 144.171875 656.9375 53.207031 704.511719 46.976562 799.617188 C 46.472656 807.292969 50.140625 814.644531 56.574219 818.859375 Z M 968.832031 456.832031 C 979.921875 446.121094 984.371094 430.257812 980.46875 415.339844 C 976.5625 400.421875 964.914062 388.769531 949.996094 384.867188 C 935.078125 380.960938 919.214844 385.410156 908.5 396.5 L 725.332031 579.667969 L 627.5 481.835938 C 610.757812 465.664062 584.144531 465.894531 567.6875 482.355469 C 551.230469 498.8125 551 525.425781 567.167969 542.164062 L 695.167969 670.164062 C 711.828125 686.820312 738.835938 686.820312 755.5 670.164062 Z M 968.832031 456.832031 "/>
</svg>
