<?xml version="1.0" encoding="UTF-8"?>
<svg xmlns="http://www.w3.org/2000/svg" xmlns:xlink="http://www.w3.org/1999/xlink" width="1024" height="1024" viewBox="0 0 1024 1024">
<path fill-rule="evenodd" fill="rgb(0%, 0%, 0%)" fill-opacity="1" d="M 682.667969 167.679688 C 682.660156 155.773438 689.265625 144.847656 699.808594 139.320312 C 710.355469 133.792969 723.097656 134.574219 732.886719 141.355469 L 921.984375 272.296875 C 930.613281 278.277344 935.761719 288.105469 935.761719 298.601562 C 935.761719 309.097656 930.613281 318.929688 921.984375 324.90625 L 732.886719 455.851562 C 723.097656 462.628906 710.355469 463.414062 699.808594 457.886719 C 689.265625 452.355469 682.660156 441.433594 682.667969 429.523438 L 682.667969 341.332031 L 170.667969 341.332031 C 147.101562 341.332031 128 322.230469 128 298.667969 C 128 275.101562 147.101562 256 170.667969 256 L 682.667969 256 Z M 291.113281 568.019531 C 300.902344 561.242188 313.644531 560.457031 324.191406 565.988281 C 334.734375 571.515625 341.339844 582.441406 341.332031 594.347656 L 341.332031 682.667969 L 853.332031 682.667969 C 876.898438 682.667969 896 701.769531 896 725.332031 C 896 748.898438 876.898438 768 853.332031 768 L 341.332031 768 L 341.332031 856.191406 C 341.339844 868.097656 334.734375 879.023438 324.191406 884.550781 C 313.644531 890.078125 300.902344 889.296875 291.113281 882.515625 L 102.015625 751.574219 C 93.386719 745.59375 88.238281 735.765625 88.238281 725.269531 C 88.238281 714.773438 93.386719 704.941406 102.015625 698.964844 Z M 291.113281 568.019531 "/>
</svg>
