<?xml version="1.0" encoding="UTF-8"?>
<svg xmlns="http://www.w3.org/2000/svg" xmlns:xlink="http://www.w3.org/1999/xlink" width="1024" height="1024" viewBox="0 0 1024 1024">
<path fill-rule="evenodd" fill="rgb(0%, 0%, 0%)" fill-opacity="1" d="M 114.261719 487.339844 C 72.59375 528.996094 72.59375 596.550781 114.261719 638.207031 L 385.792969 909.738281 C 427.449219 951.40625 495.003906 951.40625 536.660156 909.738281 L 864.769531 581.632812 C 884.769531 561.625 896.003906 534.488281 896 506.199219 L 896 192 C 896 156.652344 867.347656 128 832 128 L 517.761719 128 C 489.46875 127.996094 462.332031 139.230469 442.324219 159.230469 L 114.21875 487.339844 Z M 639.488281 298.667969 C 592.128906 298.667969 554.667969 334.164062 554.667969 383.488281 C 554.667969 432.851562 592.128906 469.332031 639.488281 469.332031 C 687.828125 469.332031 725.332031 432.851562 725.332031 383.488281 C 725.332031 334.164062 687.785156 298.667969 639.488281 298.667969 Z M 639.488281 298.667969 "/>
</svg>
