<?xml version="1.0" encoding="UTF-8"?>
<svg xmlns="http://www.w3.org/2000/svg" xmlns:xlink="http://www.w3.org/1999/xlink" width="1024" height="1024" viewBox="0 0 1024 1024">
<path fill-rule="evenodd" fill="rgb(0%, 0%, 0%)" fill-opacity="1" d="M 442.324219 159.230469 C 462.34375 139.21875 489.496094 127.984375 517.800781 128 L 832 128 C 867.347656 128 896 156.652344 896 192 L 896 506.199219 C 895.992188 534.496094 884.742188 561.632812 864.726562 581.632812 L 536.617188 909.738281 C 494.964844 951.378906 427.445312 951.378906 385.792969 909.738281 L 114.261719 638.207031 C 72.59375 596.550781 72.59375 528.996094 114.261719 487.339844 L 442.367188 159.230469 Z M 517.800781 213.332031 C 512.15625 213.335938 506.738281 215.574219 502.742188 219.5625 L 174.632812 547.667969 C 170.621094 551.671875 168.367188 557.105469 168.367188 562.773438 C 168.367188 568.441406 170.621094 573.875 174.632812 577.878906 L 446.164062 849.40625 C 454.496094 857.734375 468 857.734375 476.332031 849.40625 L 804.4375 521.300781 C 808.453125 517.300781 810.707031 511.867188 810.710938 506.199219 L 810.710938 213.332031 Z M 639.53125 298.667969 C 592.128906 298.667969 554.667969 334.164062 554.667969 383.488281 C 554.667969 432.851562 592.128906 469.332031 639.488281 469.332031 C 687.828125 469.332031 725.332031 432.851562 725.332031 383.488281 C 725.332031 334.164062 687.785156 298.667969 639.488281 298.667969 Z M 639.53125 298.667969 "/>
</svg>
