<?xml version="1.0" encoding="UTF-8"?>
<svg xmlns="http://www.w3.org/2000/svg" xmlns:xlink="http://www.w3.org/1999/xlink" width="1024" height="1024" viewBox="0 0 1024 1024">
<path fill-rule="evenodd" fill="rgb(0%, 0%, 0%)" fill-opacity="1" d="M 469.332031 85.332031 C 469.332031 61.769531 488.4375 42.667969 512 42.667969 C 535.5625 42.667969 554.667969 61.769531 554.667969 85.332031 L 554.667969 173.3125 C 709.34375 192.847656 831.152344 314.65625 850.6875 469.332031 L 938.667969 469.332031 C 962.230469 469.332031 981.332031 488.4375 981.332031 512 C 981.332031 535.5625 962.230469 554.667969 938.667969 554.667969 L 850.6875 554.667969 C 831.152344 709.34375 709.34375 831.152344 554.667969 850.6875 L 554.667969 938.667969 C 554.667969 962.230469 535.5625 981.332031 512 981.332031 C 488.4375 981.332031 469.332031 962.230469 469.332031 938.667969 L 469.332031 850.6875 C 314.65625 831.152344 192.847656 709.34375 173.3125 554.667969 L 85.332031 554.667969 C 61.769531 554.667969 42.667969 535.5625 42.667969 512 C 42.667969 488.4375 61.769531 469.332031 85.332031 469.332031 L 173.3125 469.332031 C 192.847656 314.65625 314.65625 192.847656 469.332031 173.3125 Z M 768 512 C 768 370.613281 653.386719 256 512 256 C 370.613281 256 256 370.613281 256 512 C 256 653.386719 370.613281 768 512 768 C 653.386719 768 768 653.386719 768 512 Z M 640 512 C 640 582.691406 582.691406 640 512 640 C 441.308594 640 384 582.691406 384 512 C 384 441.308594 441.308594 384 512 384 C 582.691406 384 640 441.308594 640 512 Z M 640 512 "/>
</svg>
