<?xml version="1.0" encoding="UTF-8"?>
<svg xmlns="http://www.w3.org/2000/svg" xmlns:xlink="http://www.w3.org/1999/xlink" width="1024" height="1024" viewBox="0 0 1024 1024">
<path fill-rule="evenodd" fill="rgb(0%, 0%, 0%)" fill-opacity="1" d="M 298.667969 341.332031 C 298.667969 317.769531 317.769531 298.667969 341.332031 298.667969 L 682.667969 298.667969 C 706.230469 298.667969 725.332031 317.769531 725.332031 341.332031 C 725.332031 364.898438 706.230469 384 682.667969 384 L 341.332031 384 C 317.769531 384 298.667969 364.898438 298.667969 341.332031 Z M 298.667969 512 C 298.667969 488.4375 317.769531 469.332031 341.332031 469.332031 L 682.667969 469.332031 C 706.230469 469.332031 725.332031 488.4375 725.332031 512 C 725.332031 535.5625 706.230469 554.667969 682.667969 554.667969 L 341.332031 554.667969 C 317.769531 554.667969 298.667969 535.5625 298.667969 512 Z M 341.332031 640 C 317.769531 640 298.667969 659.101562 298.667969 682.667969 C 298.667969 706.230469 317.769531 725.332031 341.332031 725.332031 L 469.332031 725.332031 C 492.898438 725.332031 512 706.230469 512 682.667969 C 512 659.101562 492.898438 640 469.332031 640 Z M 341.332031 640 "/>
<path fill="none" stroke-width="2" stroke-linecap="butt" stroke-linejoin="miter" stroke="rgb(0%, 0%, 0%)" stroke-opacity="1" stroke-miterlimit="4" d="M 4.000031 16.800018 L 4.000031 7.199982 C 4.000031 6.080017 4.000031 5.519989 4.220032 5.100037 C 4.409637 4.722107 4.714233 4.41394 5.089966 4.220032 C 5.519989 4.000031 6.080017 4.000031 7.199982 4.000031 L 16.800018 4.000031 C 17.919983 4.000031 18.480011 4.000031 18.899963 4.220032 C 19.277893 4.409637 19.58606 4.714233 19.779968 5.089966 C 19.999969 5.519989 19.999969 6.080017 19.999969 7.199982 L 19.999969 16.800018 C 19.999969 17.919983 19.999969 18.480011 19.779968 18.899963 C 19.590363 19.277893 19.285767 19.58606 18.910034 19.779968 C 18.480011 19.999969 17.919983 19.999969 16.800018 19.999969 L 7.199982 19.999969 C 6.080017 19.999969 5.519989 19.999969 5.100037 19.779968 C 4.722107 19.590363 4.41394 19.285767 4.220032 18.910034 C 4.000031 18.480011 4.000031 17.919983 4.000031 16.800018 Z M 4.000031 16.800018 " transform="matrix(42.666667, 0, 0, 42.666667, 0, 0)"/>
</svg>
