<?xml version="1.0" encoding="UTF-8"?>
<svg xmlns="http://www.w3.org/2000/svg" xmlns:xlink="http://www.w3.org/1999/xlink" width="1024" height="1024" viewBox="0 0 1024 1024">
<path fill-rule="evenodd" fill="rgb(0%, 0%, 0%)" fill-opacity="1" d="M 862.507812 101.84375 L 510.164062 551.851562 L 394.792969 419.925781 C 384.789062 408.355469 369.355469 403.027344 354.34375 405.957031 C 339.332031 408.890625 327.035156 419.632812 322.117188 434.117188 C 317.203125 448.601562 320.414062 464.609375 330.539062 476.074219 L 462.933594 627.457031 C 475.488281 641.804688 493.785156 649.808594 512.84375 649.289062 C 531.90625 648.769531 549.738281 639.78125 561.492188 624.769531 L 929.707031 154.453125 C 944.234375 135.898438 940.96875 109.078125 922.410156 94.550781 C 903.855469 80.023438 877.035156 83.289062 862.507812 101.84375 Z M 853.332031 469.332031 C 829.769531 469.332031 810.667969 488.4375 810.667969 512 L 810.667969 771.285156 C 810.667969 790.871094 809.769531 795.605469 807.167969 800.46875 C 805.6875 803.34375 803.34375 805.6875 800.46875 807.167969 C 795.648438 809.726562 790.871094 810.667969 771.285156 810.667969 L 252.714844 810.667969 C 233.128906 810.667969 228.394531 809.726562 223.53125 807.167969 C 220.652344 805.691406 218.308594 803.347656 216.832031 800.46875 C 214.273438 795.648438 213.332031 790.871094 213.332031 771.285156 L 213.332031 234.667969 C 213.332031 222.882812 222.882812 213.332031 234.667969 213.332031 L 597.332031 213.503906 C 620.898438 213.503906 640 194.402344 640 170.835938 C 640 147.273438 620.898438 128.171875 597.332031 128.171875 L 234.667969 128 C 175.757812 128 128 175.757812 128 234.667969 L 128 771.285156 C 128 803.710938 131.5 821.84375 141.609375 840.703125 C 151.167969 858.582031 165.417969 872.832031 183.296875 882.390625 C 202.15625 892.5 220.246094 896 252.714844 896 L 771.285156 896 C 803.710938 896 821.84375 892.5 840.703125 882.390625 C 858.625 872.832031 872.875 858.582031 882.433594 840.703125 C 892.5 821.84375 896 803.753906 896 771.285156 L 896 512 C 896 488.4375 876.898438 469.332031 853.332031 469.332031 Z M 853.332031 469.332031 "/>
</svg>
