<?xml version="1.0" encoding="UTF-8"?>
<svg xmlns="http://www.w3.org/2000/svg" xmlns:xlink="http://www.w3.org/1999/xlink" width="1024" height="1024" viewBox="0 0 1024 1024">
<path fill-rule="nonzero" fill="rgb(0%, 0%, 0%)" fill-opacity="1" d="M 810.667969 397.140625 L 426.667969 456.191406 L 426.667969 768 C 426.667969 853.332031 338.476562 896 256 896 C 173.523438 896 85.332031 853.332031 85.332031 768 C 85.332031 682.667969 173.523438 640 256 640 C 285.097656 640 314.921875 645.332031 341.332031 655.957031 L 341.332031 268.246094 C 341.332031 236.671875 364.375 209.792969 395.605469 204.96875 L 846.847656 135.550781 C 859.15625 133.660156 871.675781 137.238281 881.125 145.351562 C 890.574219 153.460938 896.007812 165.296875 896 177.75 L 896 682.667969 C 896 768 807.808594 810.667969 725.332031 810.667969 C 642.859375 810.667969 554.667969 768 554.667969 682.667969 C 554.667969 597.332031 642.859375 554.667969 725.332031 554.667969 C 754.433594 554.667969 784.257812 560 810.667969 570.625 Z M 810.667969 311.808594 L 810.667969 226.476562 L 426.667969 285.523438 L 426.667969 370.859375 Z M 341.332031 768 C 341.332031 725.332031 256 725.332031 256 725.332031 C 256 725.332031 170.667969 725.332031 170.667969 768 C 170.667969 810.667969 256 810.667969 256 810.667969 C 256 810.667969 341.332031 810.667969 341.332031 768 Z M 810.667969 682.667969 C 810.667969 640 725.332031 640 725.332031 640 C 725.332031 640 640 640 640 682.667969 C 640 725.332031 725.332031 725.332031 725.332031 725.332031 C 725.332031 725.332031 810.667969 725.332031 810.667969 682.667969 Z M 810.667969 682.667969 "/>
</svg>
