<?xml version="1.0" encoding="UTF-8"?>
<svg xmlns="http://www.w3.org/2000/svg" xmlns:xlink="http://www.w3.org/1999/xlink" width="1024" height="1024" viewBox="0 0 1024 1024">
<path fill-rule="evenodd" fill="rgb(0%, 0%, 0%)" fill-opacity="1" d="M 540.289062 64 L 483.710938 64 C 438.101562 64 420.136719 67.839844 401.75 75.519531 C 383.316406 83.242188 367.957031 94.847656 355.5 110.507812 C 343.039062 126.078125 334.464844 142.335938 322.046875 186.199219 L 314.367188 213.332031 L 213.332031 213.332031 C 189.769531 213.332031 170.667969 232.4375 170.667969 256 C 170.667969 279.5625 189.769531 298.667969 213.332031 298.667969 L 234.667969 298.667969 L 270.675781 839.082031 C 274.40625 895.144531 320.988281 938.699219 377.171875 938.667969 L 646.910156 938.667969 C 703.082031 938.679688 749.636719 895.128906 753.367188 839.082031 L 789.332031 298.710938 L 789.332031 298.667969 L 810.667969 298.667969 C 834.230469 298.667969 853.332031 279.5625 853.332031 256 C 853.332031 232.4375 834.230469 213.332031 810.667969 213.332031 L 709.675781 213.332031 L 701.996094 186.199219 C 689.535156 142.335938 680.960938 126.078125 668.5 110.464844 C 656.324219 95.054688 640.398438 83.027344 622.25 75.519531 C 603.863281 67.839844 585.898438 64 540.332031 64 Z M 620.929688 213.332031 L 619.863281 209.492188 C 611.199219 178.902344 607.488281 170.878906 601.769531 163.667969 C 598.535156 159.46875 594.230469 156.214844 589.3125 154.238281 C 580.777344 150.65625 572.074219 149.332031 540.289062 149.332031 L 483.710938 149.332031 C 451.925781 149.332031 443.179688 150.65625 434.6875 154.238281 C 429.769531 156.214844 425.464844 159.46875 422.230469 163.667969 C 416.46875 170.878906 412.800781 178.902344 404.136719 209.492188 L 403.03125 213.332031 L 620.96875 213.332031 Z M 703.828125 298.667969 L 320.214844 298.667969 L 355.839844 833.40625 C 356.582031 844.621094 365.894531 853.335938 377.128906 853.332031 L 646.871094 853.332031 C 658.105469 853.335938 667.417969 844.621094 668.160156 833.40625 Z M 401.066406 410.878906 C 400.371094 390.863281 416.035156 374.070312 436.054688 373.375 C 456.070312 372.679688 472.863281 388.34375 473.558594 408.363281 L 485.164062 740.949219 C 485.871094 760.980469 470.207031 777.789062 450.175781 778.496094 C 430.144531 779.203125 413.335938 763.539062 412.628906 743.507812 Z M 587.988281 373.375 C 578.371094 373.03125 569.007812 376.523438 561.964844 383.085938 C 554.921875 389.648438 550.777344 398.742188 550.441406 408.363281 L 538.878906 740.949219 C 538.171875 760.96875 553.828125 777.769531 573.84375 778.476562 C 593.863281 779.179688 610.664062 763.527344 611.371094 743.507812 L 622.933594 410.878906 C 623.277344 401.261719 619.785156 391.898438 613.222656 384.855469 C 606.660156 377.8125 597.566406 373.667969 587.945312 373.332031 Z M 587.988281 373.375 "/>
</svg>
