<?xml version="1.0" encoding="UTF-8"?>
<svg xmlns="http://www.w3.org/2000/svg" xmlns:xlink="http://www.w3.org/1999/xlink" width="1024" height="1024" viewBox="0 0 1024 1024">
<path fill-rule="evenodd" fill="rgb(0%, 0%, 0%)" fill-opacity="1" d="M 540.289062 64 L 483.710938 64 C 438.101562 64 420.136719 67.839844 401.75 75.519531 C 383.316406 83.242188 367.957031 94.847656 355.5 110.507812 C 343.039062 126.078125 334.464844 142.335938 322.046875 186.199219 L 314.367188 213.332031 L 213.332031 213.332031 C 189.769531 213.332031 170.667969 232.4375 170.667969 256 C 170.667969 279.5625 189.769531 298.667969 213.332031 298.667969 L 237.355469 298.667969 L 267.347656 778.667969 C 270.847656 834.988281 272.597656 863.148438 284.714844 884.523438 C 295.363281 903.335938 311.480469 918.46875 330.921875 927.914062 C 352.980469 938.667969 381.226562 938.667969 437.675781 938.667969 L 586.324219 938.667969 C 642.773438 938.667969 671.019531 938.667969 693.078125 927.914062 C 712.519531 918.46875 728.636719 903.335938 739.285156 884.523438 C 751.402344 863.1875 753.152344 835.03125 756.652344 778.625 L 786.644531 298.667969 L 810.667969 298.667969 C 834.230469 298.667969 853.332031 279.5625 853.332031 256 C 853.332031 232.4375 834.230469 213.332031 810.667969 213.332031 L 709.675781 213.332031 L 701.996094 186.199219 C 689.535156 142.335938 680.960938 126.078125 668.5 110.464844 C 656.324219 95.054688 640.398438 83.027344 622.25 75.519531 C 603.863281 67.839844 585.898438 64 540.332031 64 Z M 620.929688 213.332031 L 619.863281 209.492188 C 611.199219 178.902344 607.488281 170.878906 601.769531 163.667969 C 598.535156 159.46875 594.230469 156.214844 589.3125 154.238281 C 580.777344 150.65625 572.074219 149.332031 540.289062 149.332031 L 483.710938 149.332031 C 451.925781 149.332031 443.179688 150.65625 434.6875 154.238281 C 429.769531 156.214844 425.464844 159.46875 422.230469 163.667969 C 416.46875 170.878906 412.800781 178.902344 404.136719 209.492188 L 403.03125 213.332031 L 620.96875 213.332031 Z M 410.027344 362.921875 C 401.539062 363.210938 393.511719 366.863281 387.71875 373.074219 C 381.925781 379.285156 378.835938 387.542969 379.136719 396.03125 L 391.808594 758.484375 C 392.589844 776.027344 407.359375 789.660156 424.90625 789.039062 C 442.453125 788.421875 456.222656 773.777344 455.765625 756.222656 L 443.09375 393.8125 C 442.492188 376.152344 427.6875 362.324219 410.027344 362.921875 Z M 581.035156 393.8125 C 581.84375 376.300781 596.589844 362.699219 614.109375 363.308594 C 631.628906 363.914062 645.398438 378.507812 644.992188 396.03125 L 632.320312 758.484375 C 631.539062 776.027344 616.769531 789.660156 599.222656 789.039062 C 581.671875 788.421875 567.902344 773.777344 568.363281 756.222656 Z M 581.035156 393.8125 "/>
</svg>
