<?xml version="1.0" encoding="UTF-8"?>
<svg xmlns="http://www.w3.org/2000/svg" xmlns:xlink="http://www.w3.org/1999/xlink" width="1024" height="1024" viewBox="0 0 1024 1024">
<path fill-rule="nonzero" fill="rgb(0%, 0%, 0%)" fill-opacity="1" d="M 882.515625 172.457031 C 895.777344 168.605469 910.078125 171.21875 921.121094 179.511719 C 932.164062 187.800781 938.664062 200.804688 938.667969 214.613281 L 938.625 458.324219 C 938.597656 474.949219 929.191406 490.132812 914.320312 497.5625 C 899.453125 504.992188 881.664062 503.398438 868.351562 493.441406 L 798.292969 440.746094 L 619.945312 678.316406 C 598.429688 706.941406 558.824219 714.808594 528 696.574219 L 521.601562 692.308594 L 379.222656 585.34375 L 190.71875 836.4375 C 172.800781 860.332031 140.160156 866.601562 114.902344 852.136719 L 108.757812 848.085938 C 85.195312 830.382812 78.46875 797.917969 93.054688 772.308594 L 97.109375 766.164062 L 313.726562 477.652344 C 335.238281 448.984375 374.886719 441.113281 405.71875 459.390625 L 412.074219 463.660156 L 554.410156 570.582031 L 704.683594 370.476562 L 634.410156 317.695312 C 622.035156 308.363281 615.492188 293.203125 617.191406 277.796875 C 618.890625 262.390625 628.578125 249.015625 642.6875 242.601562 L 648.535156 240.46875 L 882.558594 172.414062 Z M 882.515625 172.457031 "/>
</svg>
