<?xml version="1.0" encoding="UTF-8"?>
<svg xmlns="http://www.w3.org/2000/svg" xmlns:xlink="http://www.w3.org/1999/xlink" width="1024" height="1024" viewBox="0 0 1024 1024">
<path fill-rule="evenodd" fill="rgb(0%, 0%, 0%)" fill-opacity="1" d="M 500.90625 84.054688 C 278.1875 84.054688 115.925781 233.941406 84.480469 451.839844 C 82.261719 467.457031 89.257812 480.554688 102.230469 482.558594 C 115.03125 484.566406 125.867188 474.539062 128.511719 459.605469 C 159.359375 286.039062 310.828125 170.238281 500.949219 170.238281 C 708.136719 170.238281 852.523438 314.625 852.523438 521.8125 C 852.523438 703.828125 727.679688 861.652344 562.601562 894.039062 C 547.667969 897.023438 537.726562 907.988281 539.902344 920.746094 C 542.039062 933.675781 555.136719 940.671875 570.710938 938.453125 C 788.523438 907.5625 938.710938 744.832031 938.710938 521.8125 C 938.710938 265.003906 757.71875 84.054688 500.949219 84.054688 Z M 370.773438 518.65625 C 392.019531 492.117188 417.28125 463.1875 447.148438 433.960938 C 561.066406 319.0625 687.957031 312.0625 699.5625 324.351562 C 712.191406 336.296875 704.554688 462.207031 589.996094 577.449219 C 560.769531 607.316406 532.179688 632.574219 505.300781 653.824219 L 505.300781 738.902344 C 505.300781 767.914062 505.300781 769.492188 485.332031 784.382812 C 483.199219 785.960938 479.785156 788.652344 475.179688 792.191406 C 455.59375 807.382812 415.785156 838.273438 373.761719 864.085938 C 361.128906 871.765625 350.507812 865.40625 358.828125 854.144531 C 377.589844 828.371094 393.296875 800.507812 405.632812 771.113281 C 414.933594 749.183594 414.933594 729.257812 405.632812 711.980469 C 372.4375 722.644531 345.171875 719.273438 324.949219 699.691406 C 304.339844 679.765625 301.695312 651.863281 312.320312 618.324219 C 293.484375 609.007812 271.378906 609.007812 252.542969 618.324219 C 227.285156 627.625 200.0625 643.542969 169.472656 664.832031 C 157.523438 673.449219 151.210938 662.828125 159.53125 650.199219 C 186.410156 605.566406 219.519531 563.839844 233.898438 545.75 L 239.230469 538.921875 C 254.164062 518.996094 255.871094 518.996094 289.066406 518.996094 L 369.792969 518.996094 Z M 268.800781 698.027344 C 270.59375 699.988281 265.214844 704.296875 256.425781 711.425781 C 232.320312 730.921875 182.441406 771.285156 182.441406 840.832031 C 252.332031 840.832031 292.777344 791.59375 312.363281 767.742188 C 319.574219 758.953125 323.96875 753.621094 325.929688 755.5 C 332.585938 762.113281 310.316406 816.257812 272.128906 854.144531 C 228.234375 897.40625 168.222656 920.292969 106.667969 917.246094 C 106.667969 840.875 131.585938 789.675781 169.8125 751.828125 C 207.957031 713.644531 261.800781 691.371094 268.757812 698.710938 L 268.757812 698.027344 Z M 268.800781 698.027344 "/>
</svg>
