<?xml version="1.0" encoding="UTF-8"?>
<svg xmlns="http://www.w3.org/2000/svg" xmlns:xlink="http://www.w3.org/1999/xlink" width="1024" height="1024" viewBox="0 0 1024 1024">
<path fill-rule="evenodd" fill="rgb(0%, 0%, 0%)" fill-opacity="1" d="M 298.667969 426.878906 L 298.667969 298.667969 C 298.667969 180.847656 394.179688 85.332031 512 85.332031 C 629.820312 85.332031 725.332031 180.847656 725.332031 298.667969 C 725.332031 322.230469 706.230469 341.332031 682.667969 341.332031 C 659.101562 341.332031 640 322.230469 640 298.667969 C 640 227.972656 582.691406 170.667969 512 170.667969 C 441.308594 170.667969 384 227.972656 384 298.667969 L 384 426.667969 L 682.667969 426.667969 C 742.398438 426.667969 772.265625 426.667969 795.09375 438.316406 C 815.152344 448.539062 831.460938 464.847656 841.683594 484.90625 C 853.332031 507.734375 853.332031 537.601562 853.332031 597.332031 L 853.332031 725.332031 C 853.332031 785.066406 853.332031 814.933594 841.683594 837.761719 C 831.460938 857.820312 815.152344 874.128906 795.09375 884.351562 C 772.265625 896 742.398438 896 682.667969 896 L 341.332031 896 C 281.601562 896 251.734375 896 228.90625 884.351562 C 208.832031 874.136719 192.507812 857.824219 182.273438 837.761719 C 170.667969 814.933594 170.667969 785.066406 170.667969 725.332031 L 170.667969 597.332031 C 170.667969 537.601562 170.667969 507.734375 182.273438 484.90625 C 192.507812 464.839844 208.832031 448.53125 228.90625 438.316406 C 245.503906 429.824219 265.8125 427.519531 298.667969 426.878906 Z M 298.667969 426.878906 "/>
</svg>
