<?xml version="1.0" encoding="UTF-8"?>
<svg xmlns="http://www.w3.org/2000/svg" xmlns:xlink="http://www.w3.org/1999/xlink" width="1024" height="1024" viewBox="0 0 1024 1024">
<path fill-rule="evenodd" fill="rgb(0%, 0%, 0%)" fill-opacity="1" d="M 466.859375 102.65625 C 491.796875 77.742188 532.203125 77.742188 557.140625 102.65625 L 701.867188 247.039062 C 718.507812 263.679688 718.507812 290.988281 701.867188 307.625 C 693.894531 315.613281 683.074219 320.105469 671.785156 320.105469 C 660.5 320.105469 649.679688 315.613281 641.707031 307.625 L 621.824219 287.742188 C 599.027344 264.949219 578.890625 239.640625 561.792969 212.308594 L 552.617188 197.632812 L 543.828125 206.464844 C 551.03125 237.8125 554.667969 269.871094 554.667969 302.039062 L 554.667969 640 C 554.667969 663.5625 535.5625 682.667969 512 682.667969 C 488.4375 682.667969 469.332031 663.5625 469.332031 640 L 469.332031 301.996094 C 469.332031 269.832031 472.96875 237.769531 480.171875 206.421875 L 471.382812 197.632812 L 462.207031 212.308594 C 445.140625 239.617188 424.960938 264.960938 402.175781 287.742188 L 382.292969 307.625 C 374.320312 315.613281 363.5 320.105469 352.214844 320.105469 C 340.925781 320.105469 330.105469 315.613281 322.132812 307.625 C 305.492188 290.988281 305.492188 263.679688 322.132812 247.039062 Z M 853.332031 469.332031 C 829.769531 469.332031 810.667969 488.4375 810.667969 512 L 810.667969 771.285156 C 810.667969 790.871094 809.726562 795.605469 807.167969 800.46875 C 805.691406 803.347656 803.347656 805.691406 800.46875 807.167969 C 795.648438 809.726562 790.871094 810.667969 771.285156 810.667969 L 252.714844 810.667969 C 233.128906 810.667969 228.394531 809.726562 223.53125 807.167969 C 220.652344 805.691406 218.308594 803.347656 216.832031 800.46875 C 214.273438 795.648438 213.332031 790.871094 213.332031 771.285156 L 213.332031 512 C 213.332031 488.4375 194.230469 469.332031 170.667969 469.332031 C 147.101562 469.332031 128 488.4375 128 512 L 128 771.285156 C 128 803.710938 131.5 821.84375 141.609375 840.703125 C 151.125 858.582031 165.417969 872.832031 183.296875 882.390625 C 202.15625 892.5 220.246094 896 252.714844 896 L 771.285156 896 C 803.710938 896 821.84375 892.5 840.703125 882.390625 C 858.582031 872.832031 872.832031 858.582031 882.390625 840.703125 C 892.5 821.84375 896 803.753906 896 771.285156 L 896 512 C 896 488.4375 876.898438 469.332031 853.332031 469.332031 Z M 853.332031 469.332031 "/>
</svg>
