<?xml version="1.0" encoding="UTF-8"?>
<svg xmlns="http://www.w3.org/2000/svg" xmlns:xlink="http://www.w3.org/1999/xlink" width="1024" height="1024" viewBox="0 0 1024 1024">
<path fill-rule="evenodd" fill="rgb(0%, 0%, 0%)" fill-opacity="1" d="M 505.300781 170.113281 L 302.632812 384 L 192 384 C 156.652344 384 128 412.652344 128 448 L 128 576 C 128 611.347656 156.652344 640 192 640 L 302.632812 640 L 505.300781 853.886719 C 520.320312 869.726562 543.476562 874.8125 563.753906 866.730469 C 584.027344 858.644531 597.332031 839.023438 597.332031 817.195312 L 597.332031 206.804688 C 597.332031 184.976562 584.027344 165.355469 563.753906 157.269531 C 543.476562 149.1875 520.320312 154.273438 505.300781 170.113281 Z M 213.332031 554.667969 L 213.332031 469.332031 L 339.328125 469.332031 L 512 287.105469 L 512 736.851562 L 339.328125 554.667969 Z M 695.167969 435.457031 C 683.820312 424.800781 679.175781 408.808594 683.050781 393.734375 C 686.925781 378.65625 698.703125 366.886719 713.785156 363.023438 C 728.863281 359.15625 744.851562 363.8125 755.5 375.167969 L 832.042969 451.710938 L 908.5 375.339844 C 925.242188 359.167969 951.855469 359.402344 968.3125 375.859375 C 984.769531 392.316406 985 418.929688 968.832031 435.667969 L 892.332031 512.085938 L 968.832031 588.671875 C 980.179688 599.328125 984.824219 615.320312 980.949219 630.394531 C 977.074219 645.472656 965.296875 657.242188 950.214844 661.105469 C 935.136719 664.96875 919.148438 660.316406 908.5 648.960938 L 831.957031 572.414062 L 755.5 648.789062 C 738.757812 664.957031 712.144531 664.726562 695.6875 648.269531 C 679.230469 631.8125 679 605.199219 695.167969 588.457031 L 771.667969 512.042969 Z M 695.167969 435.457031 "/>
</svg>
