<?xml version="1.0" encoding="UTF-8"?>
<svg xmlns="http://www.w3.org/2000/svg" xmlns:xlink="http://www.w3.org/1999/xlink" width="1024" height="1024" viewBox="0 0 1024 1024">
<path fill-rule="evenodd" fill="rgb(0%, 0%, 0%)" fill-opacity="1" d="M 926.164062 883.5 C 942.820312 866.835938 942.820312 839.828125 926.164062 823.167969 L 243.5 140.5 C 226.757812 124.332031 200.144531 124.5625 183.6875 141.019531 C 167.230469 157.480469 167 184.089844 183.167969 200.832031 L 366.335938 384 L 277.332031 384 C 241.988281 384 213.332031 412.652344 213.332031 448 L 213.332031 576 C 213.332031 611.347656 241.988281 640 277.332031 640 L 387.96875 640 L 590.632812 853.886719 C 605.65625 869.726562 628.808594 874.8125 649.085938 866.730469 C 669.359375 858.644531 682.664062 839.023438 682.667969 817.195312 L 682.667969 700.332031 L 865.835938 883.5 C 882.496094 900.15625 909.503906 900.15625 926.164062 883.5 Z M 597.332031 614.996094 L 437.761719 455.425781 L 424.660156 469.332031 L 298.667969 469.332031 L 298.667969 554.667969 L 424.660156 554.667969 L 597.332031 736.894531 Z M 682.667969 206.804688 L 682.667969 458.964844 L 597.332031 373.632812 L 597.332031 287.148438 L 555.222656 331.5625 L 494.847656 271.230469 L 590.632812 170.113281 C 605.65625 154.273438 628.808594 149.1875 649.085938 157.269531 C 669.359375 165.355469 682.664062 184.976562 682.667969 206.804688 Z M 682.667969 206.804688 "/>
</svg>
