<?xml version="1.0" encoding="UTF-8"?>
<svg xmlns="http://www.w3.org/2000/svg" xmlns:xlink="http://www.w3.org/1999/xlink" width="1024" height="1024" viewBox="0 0 1024 1024">
<path fill-rule="evenodd" fill="rgb(0%, 0%, 0%)" fill-opacity="1" d="M 302.632812 384 L 505.300781 170.113281 C 520.320312 154.273438 543.476562 149.1875 563.753906 157.269531 C 584.027344 165.355469 597.332031 184.976562 597.332031 206.804688 L 597.332031 817.195312 C 597.332031 839.023438 584.027344 858.644531 563.753906 866.730469 C 543.476562 874.8125 520.320312 869.726562 505.300781 853.886719 L 302.632812 640 L 192 640 C 156.652344 640 128 611.347656 128 576 L 128 448 C 128 412.652344 156.652344 384 192 384 Z M 213.332031 469.332031 L 213.332031 554.667969 L 339.328125 554.667969 L 512 736.851562 L 512 287.148438 L 339.328125 469.332031 Z M 699.648438 674.132812 C 718.476562 688.289062 745.214844 684.507812 759.382812 665.683594 C 792.726562 621.390625 810.730469 567.441406 810.667969 512 C 810.738281 456.671875 792.8125 402.820312 759.59375 358.570312 C 745.457031 339.71875 718.710938 335.898438 699.863281 350.039062 C 681.011719 364.175781 677.191406 390.917969 691.328125 409.769531 C 713.300781 439.039062 725.332031 474.539062 725.332031 512 C 725.332031 549.546875 713.214844 585.089844 691.199219 614.441406 C 677.042969 633.273438 680.824219 660.011719 699.648438 674.175781 Z M 699.648438 674.132812 "/>
</svg>
