<?xml version="1.0" encoding="UTF-8"?>
<svg xmlns="http://www.w3.org/2000/svg" xmlns:xlink="http://www.w3.org/1999/xlink" width="1024" height="1024" viewBox="0 0 1024 1024">
<path fill-rule="evenodd" fill="rgb(0%, 0%, 0%)" fill-opacity="1" d="M 505.300781 170.113281 L 302.632812 384 L 192 384 C 156.652344 384 128 412.652344 128 448 L 128 576 C 128 611.347656 156.652344 640 192 640 L 302.632812 640 L 505.300781 853.886719 C 520.320312 869.726562 543.476562 874.8125 563.753906 866.730469 C 584.027344 858.644531 597.332031 839.023438 597.332031 817.195312 L 597.332031 206.804688 C 597.332031 184.976562 584.027344 165.355469 563.753906 157.269531 C 543.476562 149.1875 520.320312 154.273438 505.300781 170.113281 Z M 213.332031 554.667969 L 213.332031 469.332031 L 339.328125 469.332031 L 512 287.105469 L 512 736.851562 L 339.328125 554.667969 Z M 856.363281 813.652344 C 845.714844 825.007812 829.726562 829.664062 814.648438 825.800781 C 799.570312 821.933594 787.789062 810.164062 783.914062 795.089844 C 780.039062 780.011719 784.683594 764.019531 796.03125 753.367188 C 860.164062 689.429688 896.144531 602.554688 896 512 C 896.132812 421.457031 860.152344 334.601562 796.03125 270.675781 C 779.359375 254.003906 779.359375 226.976562 796.03125 210.304688 C 812.703125 193.632812 839.734375 193.632812 856.40625 210.304688 C 936.523438 290.246094 981.484375 398.820312 981.332031 512 C 981.484375 625.203125 936.507812 733.792969 856.363281 813.738281 Z M 699.648438 674.175781 C 718.476562 688.332031 745.214844 684.550781 759.382812 665.726562 C 792.734375 621.421875 810.738281 567.457031 810.667969 512 C 810.738281 456.671875 792.8125 402.820312 759.59375 358.570312 C 745.457031 339.71875 718.710938 335.898438 699.863281 350.039062 C 681.011719 364.175781 677.191406 390.917969 691.328125 409.769531 C 713.300781 439.039062 725.332031 474.539062 725.332031 512 C 725.332031 549.546875 713.214844 585.089844 691.199219 614.441406 C 677.042969 633.273438 680.824219 660.011719 699.648438 674.175781 Z M 699.648438 674.175781 "/>
</svg>
