<?xml version="1.0" encoding="UTF-8"?>
<svg xmlns="http://www.w3.org/2000/svg" xmlns:xlink="http://www.w3.org/1999/xlink" width="1024" height="1024" viewBox="0 0 1024 1024">
<path fill-rule="evenodd" fill="rgb(0%, 0%, 0%)" fill-opacity="1" d="M 302.632812 640 L 192 640 C 156.652344 640 128 611.347656 128 576 L 128 448 C 128 412.652344 156.652344 384 192 384 L 302.632812 384 L 523.691406 150.65625 C 550.230469 122.667969 597.332031 141.441406 597.332031 180.054688 L 597.332031 844.03125 C 597.332031 882.601562 550.230469 901.375 523.691406 873.386719 Z M 695.167969 435.457031 C 683.820312 424.800781 679.175781 408.808594 683.050781 393.734375 C 686.925781 378.65625 698.703125 366.886719 713.785156 363.023438 C 728.863281 359.15625 744.851562 363.8125 755.5 375.167969 L 832.042969 451.710938 L 908.5 375.339844 C 919.214844 364.246094 935.078125 359.800781 949.996094 363.703125 C 964.914062 367.609375 976.5625 379.257812 980.46875 394.175781 C 984.371094 409.09375 979.921875 424.957031 968.832031 435.667969 L 892.332031 512.085938 L 968.832031 588.671875 C 980.179688 599.328125 984.824219 615.320312 980.949219 630.394531 C 977.074219 645.472656 965.296875 657.242188 950.214844 661.105469 C 935.136719 664.96875 919.148438 660.316406 908.5 648.960938 L 831.957031 572.414062 L 755.5 648.832031 C 738.828125 665.492188 711.804688 665.480469 695.148438 648.8125 C 678.488281 632.140625 678.496094 605.117188 695.167969 588.457031 L 771.667969 512.085938 Z M 695.167969 435.457031 "/>
</svg>
