<?xml version="1.0" encoding="UTF-8"?>
<svg xmlns="http://www.w3.org/2000/svg" xmlns:xlink="http://www.w3.org/1999/xlink" width="1024" height="1024" viewBox="0 0 1024 1024">
<path fill-rule="evenodd" fill="rgb(0%, 0%, 0%)" fill-opacity="1" d="M 192 640 L 302.632812 640 L 523.691406 873.300781 C 550.230469 901.332031 597.332031 882.558594 597.332031 843.988281 L 597.332031 180.011719 C 597.332031 141.441406 550.230469 122.667969 523.691406 150.65625 L 302.632812 384 L 192 384 C 156.652344 384 128 412.652344 128 448 L 128 576 C 128 611.347656 156.652344 640 192 640 Z M 699.648438 674.175781 C 718.476562 688.332031 745.214844 684.550781 759.382812 665.726562 C 792.734375 621.421875 810.738281 567.457031 810.667969 512 C 810.738281 456.671875 792.8125 402.820312 759.59375 358.570312 C 745.457031 339.71875 718.710938 335.898438 699.863281 350.039062 C 681.011719 364.175781 677.191406 390.917969 691.328125 409.769531 C 713.300781 439.039062 725.332031 474.539062 725.332031 512 C 725.332031 549.546875 713.214844 585.128906 691.199219 614.441406 C 677.042969 633.273438 680.824219 660.011719 699.648438 674.175781 Z M 699.648438 674.175781 "/>
</svg>
