<?xml version="1.0" encoding="UTF-8"?>
<svg xmlns="http://www.w3.org/2000/svg" xmlns:xlink="http://www.w3.org/1999/xlink" width="1024" height="1024" viewBox="0 0 1024 1024">
<path fill-rule="evenodd" fill="rgb(0%, 0%, 0%)" fill-opacity="1" d="M 926.164062 883.5 C 942.820312 866.835938 942.820312 839.828125 926.164062 823.167969 L 243.5 140.5 C 226.757812 124.332031 200.144531 124.5625 183.6875 141.019531 C 167.230469 157.480469 167 184.089844 183.167969 200.832031 L 366.335938 384 L 277.332031 384 C 241.988281 384 213.332031 412.652344 213.332031 448 L 213.332031 576 C 213.332031 611.347656 241.988281 640 277.332031 640 L 387.96875 640 L 609.023438 873.300781 C 635.5625 901.332031 682.667969 882.558594 682.667969 843.988281 L 682.667969 700.332031 L 865.835938 883.5 C 882.496094 900.15625 909.503906 900.15625 926.164062 883.5 Z M 682.667969 180.054688 L 682.667969 459.007812 L 494.847656 271.230469 L 609.023438 150.699219 C 635.5625 122.667969 682.667969 141.441406 682.667969 180.054688 Z M 682.667969 180.054688 "/>
</svg>
