<?xml version="1.0" encoding="UTF-8"?>
<svg xmlns="http://www.w3.org/2000/svg" xmlns:xlink="http://www.w3.org/1999/xlink" width="1024" height="1024" viewBox="0 0 1024 1024">
<path fill-rule="nonzero" fill="rgb(0%, 0%, 0%)" fill-opacity="1" d="M 448.664062 695.296875 C 483.6875 660.332031 540.421875 660.378906 575.386719 695.398438 C 610.351562 730.417969 610.304688 787.152344 575.28125 822.117188 C 540.246094 857.082031 483.503906 857.027344 448.539062 821.992188 C 413.574219 786.957031 413.628906 730.210938 448.664062 695.246094 Z M 174.078125 554.238281 C 360.449219 367.871094 663.550781 367.871094 849.921875 554.238281 L 765.441406 638.71875 C 625.390625 498.9375 398.609375 498.9375 258.558594 638.71875 Z M 5.121094 385.28125 C 284.671875 105.777344 739.328125 105.777344 1018.878906 385.28125 L 934.398438 469.761719 C 701.441406 236.800781 322.558594 236.800781 89.601562 469.761719 L 5.121094 385.332031 Z M 5.121094 385.28125 "/>
</svg>
