<?xml version="1.0" encoding="UTF-8"?>
<svg xmlns="http://www.w3.org/2000/svg" xmlns:xlink="http://www.w3.org/1999/xlink" width="1024" height="1024" viewBox="0 0 1024 1024">
<path fill-rule="evenodd" fill="rgb(0%, 0%, 0%)" fill-opacity="1" d="M 818.601562 89.171875 C 840.832031 99.839844 867.070312 115.285156 887.9375 136.148438 C 908.84375 157.054688 924.289062 183.253906 934.871094 205.484375 C 948.222656 233.386719 939.5625 265.558594 917.761719 287.402344 L 609.960938 595.15625 C 596.734375 608.382812 580.609375 618.238281 562.816406 623.957031 L 382.675781 681.683594 C 371.253906 685.347656 358.742188 682.316406 350.261719 673.832031 C 341.785156 665.34375 338.765625 652.828125 342.441406 641.40625 L 400.171875 461.3125 C 405.867188 443.53125 415.726562 427.367188 428.929688 414.164062 L 736.726562 106.367188 C 758.570312 84.523438 790.742188 75.902344 818.644531 89.214844 Z M 827.605469 196.523438 C 817.066406 186.566406 805.171875 178.148438 792.277344 171.519531 L 493.867188 469.929688 C 490.835938 472.957031 488.273438 476.425781 486.273438 480.214844 L 422.398438 601.683594 L 543.828125 537.855469 C 547.667969 535.851562 551.125 533.289062 554.15625 530.261719 L 852.566406 231.851562 C 845.933594 218.957031 837.519531 207.0625 827.5625 196.523438 Z M 213.289062 234.667969 C 213.273438 223.351562 222.089844 213.988281 233.386719 213.332031 L 469.332031 213.546875 C 492.898438 213.546875 512 194.445312 512 170.878906 C 512 147.316406 492.898438 128.214844 469.332031 128.214844 L 234.667969 128 C 175.757812 128 128 175.757812 128 234.667969 L 128 771.285156 C 128 803.710938 131.5 821.84375 141.609375 840.703125 C 151.167969 858.582031 165.417969 872.875 183.296875 882.433594 C 202.15625 892.5 220.246094 896 252.714844 896 L 771.285156 896 C 803.710938 896 821.84375 892.5 840.703125 882.433594 C 858.625 872.875 872.875 858.582031 882.433594 840.703125 C 892.5 821.84375 896 803.753906 896 771.285156 L 896 554.667969 C 896 531.101562 876.898438 512 853.332031 512 C 829.769531 512 810.667969 531.101562 810.667969 554.667969 L 810.667969 771.285156 C 810.667969 790.871094 809.769531 795.648438 807.167969 800.46875 C 805.6875 803.34375 803.34375 805.6875 800.46875 807.167969 C 795.648438 809.726562 790.871094 810.667969 771.285156 810.667969 L 252.714844 810.667969 C 233.128906 810.667969 228.394531 809.726562 223.53125 807.167969 C 220.652344 805.691406 218.308594 803.347656 216.832031 800.46875 C 214.273438 795.648438 213.332031 790.871094 213.332031 771.285156 L 213.332031 234.667969 Z M 213.289062 234.667969 "/>
</svg>
